<svg width="535" height="190" viewBox="0 0 535 190" fill="none" xmlns="http://www.w3.org/2000/svg">
<path d="M426.475 189.923V129.546H464.732V189.652" fill="white"/>
<path d="M426.475 189.923V129.546H464.732V189.652" stroke="#57544F" stroke-width="0.856816" stroke-miterlimit="10"/>
<path d="M448.077 142.054H415.228" stroke="#57544F" stroke-width="0.856816" stroke-miterlimit="10"/>
<path d="M426.482 188.651V123.806H382.918V188.931" fill="white"/>
<path d="M426.482 188.651V123.806H382.918V188.931" stroke="#57544F" stroke-width="0.856816" stroke-miterlimit="10"/>
<path d="M372.116 108.357H318.567V186.451H372.116V108.357Z" fill="white"/>
<path d="M372.116 108.357H318.567V186.451H372.116V108.357Z" stroke="#57544F" stroke-width="0.856816" stroke-miterlimit="10"/>
<path d="M274.953 111.83H248.178V185.212H274.953V111.83Z" fill="white"/>
<path d="M170.853 139.594L154.487 132.157L137.629 139.594" stroke="#57544F" stroke-width="0.856816" stroke-miterlimit="10"/>
<path d="M140.119 148.026H98.4702V185.213H140.119V148.026Z" stroke="#57544F" stroke-width="0.856816" stroke-miterlimit="10"/>
<path d="M491.359 184.962V73.5175H529.617V184.467" fill="white"/>
<path d="M491.359 184.962V73.5175H529.617V184.467" stroke="#57544F" stroke-width="0.856816" stroke-miterlimit="10"/>
<path d="M512.963 88.0045H480.113" stroke="#57544F" stroke-width="0.856816" stroke-miterlimit="10"/>
<path d="M491.418 184.466V69.7561H447.854V184.961" fill="white"/>
<path d="M491.418 184.466V69.7561H447.854V184.961" stroke="#57544F" stroke-width="0.856816" stroke-miterlimit="10"/>
<path d="M544.314 79.8228H511.465V185.209H544.314V79.8228Z" fill="white"/>
<path d="M544.314 79.8228H511.465V185.209H544.314V79.8228Z" stroke="#57544F" stroke-width="0.856816" stroke-miterlimit="10"/>
<path d="M533.764 98.0036V103.43" stroke="#57544F" stroke-width="0.856816" stroke-miterlimit="10"/>
<path d="M524.209 98.0036V103.43" stroke="#57544F" stroke-width="0.856816" stroke-miterlimit="10"/>
<path d="M533.764 118.434V123.861" stroke="#57544F" stroke-width="0.856816" stroke-miterlimit="10"/>
<path d="M499.713 114.713V106.076" stroke="#57544F" stroke-width="0.856816" stroke-miterlimit="10"/>
<path d="M476.906 93.1146V84.4771" stroke="#57544F" stroke-width="0.856816" stroke-miterlimit="10"/>
<path d="M462.797 93.1146V84.4771" stroke="#57544F" stroke-width="0.856816" stroke-miterlimit="10"/>
<path d="M524.209 127.868V133.294" stroke="#57544F" stroke-width="0.856816" stroke-miterlimit="10"/>
<path d="M253.276 111.892H286.125" stroke="#57544F" stroke-width="0.856816" stroke-miterlimit="10"/>
<path d="M274.875 184.714V89.0181H318.438V184.962" fill="white"/>
<path d="M274.875 184.714V89.0181H318.438V184.962" stroke="#57544F" stroke-width="0.856816" stroke-miterlimit="10"/>
<path d="M254.779 184.971H221.93V108.921H230.49" fill="#F9B399"/>
<path d="M254.779 184.971H221.93V108.921H230.49" stroke="#57544F" stroke-width="0.856816" stroke-miterlimit="10"/>
<path d="M221.936 129.103H210.823V184.972H221.936V129.103Z" fill="#F9B399"/>
<path d="M221.936 129.103H210.823V184.972H221.936V129.103Z" stroke="#57544F" stroke-width="0.856816" stroke-miterlimit="10"/>
<path d="M216.145 137.483V142.909" stroke="#57544F" stroke-width="0.856816" stroke-miterlimit="10"/>
<path d="M216.145 165.049V170.475" stroke="#57544F" stroke-width="0.856816" stroke-miterlimit="10"/>
<path d="M266.528 133.975V125.337" stroke="#57544F" stroke-width="0.856816" stroke-miterlimit="10"/>
<path d="M289.33 112.377V103.738" stroke="#57544F" stroke-width="0.856816" stroke-miterlimit="10"/>
<path d="M303.5 112.377V103.738" stroke="#57544F" stroke-width="0.856816" stroke-miterlimit="10"/>
<path d="M27.2969 139.687H1.00034V184.973H27.2969V139.687Z" stroke="#57544F" stroke-width="0.856816" stroke-miterlimit="10"/>
<path d="M1.00034 144.81H27.2969" stroke="#57544F" stroke-width="0.856816" stroke-miterlimit="10"/>
<path d="M115.764 154.087C115.725 153.263 116.015 152.457 116.569 151.845C117.123 151.233 117.897 150.866 118.721 150.823C119.546 150.865 120.32 151.233 120.874 151.845C121.428 152.456 121.718 153.263 121.679 154.087V163.612H115.767V154.143C115.766 154.125 115.764 154.106 115.764 154.087Z" stroke="#57544F" stroke-width="0.856816" stroke-miterlimit="10"/>
<path d="M102.418 154.087C102.38 153.263 102.67 152.456 103.224 151.845C103.778 151.233 104.552 150.866 105.377 150.823C106.201 150.865 106.975 151.233 107.529 151.845C108.084 152.456 108.373 153.263 108.334 154.087V163.612H102.422V154.143C102.418 154.125 102.418 154.106 102.418 154.087V154.087Z" stroke="#57544F" stroke-width="0.856816" stroke-miterlimit="10"/>
<path d="M129.114 154.087C129.076 153.263 129.365 152.457 129.92 151.845C130.474 151.233 131.248 150.866 132.072 150.823C132.896 150.865 133.67 151.233 134.225 151.845C134.779 152.456 135.068 153.263 135.03 154.087V163.612H129.118V154.143C129.117 154.125 129.114 154.106 129.114 154.087Z" stroke="#57544F" stroke-width="0.856816" stroke-miterlimit="10"/>
<path d="M115.764 171.164C115.725 170.339 116.015 169.533 116.569 168.921C117.123 168.309 117.897 167.941 118.721 167.898C119.546 167.941 120.32 168.309 120.874 168.921C121.428 169.532 121.718 170.339 121.679 171.164V180.686H115.767V171.218C115.766 171.2 115.764 171.182 115.764 171.164V171.164Z" stroke="#57544F" stroke-width="0.856816" stroke-miterlimit="10"/>
<path d="M102.418 171.164C102.38 170.339 102.669 169.532 103.224 168.92C103.778 168.309 104.552 167.941 105.377 167.898C106.201 167.941 106.975 168.309 107.53 168.921C108.084 169.532 108.373 170.339 108.334 171.164V180.686H102.422V171.218C102.418 171.2 102.418 171.182 102.418 171.164V171.164Z" stroke="#57544F" stroke-width="0.856816" stroke-miterlimit="10"/>
<path d="M129.114 171.164C129.076 170.339 129.365 169.533 129.92 168.921C130.474 168.309 131.248 167.941 132.072 167.898C132.897 167.941 133.671 168.309 134.225 168.921C134.779 169.532 135.068 170.339 135.03 171.164V180.686H129.118V171.218C129.117 171.2 129.114 171.182 129.114 171.164V171.164Z" stroke="#57544F" stroke-width="0.856816" stroke-miterlimit="10"/>
<path d="M23.8652 153.199H20.6427V163.653H23.8652V153.199Z" stroke="#57544F" stroke-width="0.856816" stroke-miterlimit="10"/>
<path d="M15.6855 153.199H12.4631V163.653H15.6855V153.199Z" stroke="#57544F" stroke-width="0.856816" stroke-miterlimit="10"/>
<path d="M7.50684 153.199H4.28349V163.653H7.50684V153.199Z" stroke="#57544F" stroke-width="0.856816" stroke-miterlimit="10"/>
<path d="M16.4707 134.459H13.2482V139.685H16.4707V134.459Z" fill="white"/>
<path d="M16.4707 134.459H13.2482V139.685H16.4707V134.459Z" stroke="#57544F" stroke-width="0.856816" stroke-miterlimit="10"/>
<path d="M74.6367 134.459H71.4142V139.685H74.6367V134.459Z" stroke="#57544F" stroke-width="0.856816" stroke-miterlimit="10"/>
<path d="M23.8652 168.406H20.6427V178.86H23.8652V168.406Z" stroke="#57544F" stroke-width="0.856816" stroke-miterlimit="10"/>
<path d="M15.6855 168.406H12.4631V178.86H15.6855V168.406Z" stroke="#57544F" stroke-width="0.856816" stroke-miterlimit="10"/>
<path d="M7.50684 168.406H4.28349V178.86H7.50684V168.406Z" stroke="#57544F" stroke-width="0.856816" stroke-miterlimit="10"/>
<path d="M210.828 139.687H170.999V142.348V145.008L168.999 145.33V184.973H210.828V139.687Z" stroke="#57544F" stroke-width="0.856816" stroke-miterlimit="10"/>
<path d="M168.999 147.95H210.828" stroke="#57544F" stroke-width="0.856816" stroke-miterlimit="10"/>
<path d="M198.802 174.145C198.802 172.093 200.127 170.431 201.76 170.431C203.393 170.431 204.719 172.092 204.719 174.145V184.976H198.807V174.207V174.144" fill="#F9B399"/>
<path d="M198.802 174.145C198.802 172.093 200.127 170.431 201.76 170.431C203.393 170.431 204.719 172.092 204.719 174.145V184.976H198.807V174.207C198.808 174.186 198.802 174.165 198.802 174.145V174.145Z" stroke="#57544F" stroke-width="0.856816" stroke-miterlimit="10"/>
<path d="M186.939 174.145C186.939 172.093 188.264 170.431 189.897 170.431C191.53 170.431 192.855 172.092 192.855 174.145V184.976H186.944V174.207V174.144" fill="#F9B399"/>
<path d="M186.939 174.145C186.939 172.093 188.264 170.431 189.897 170.431C191.53 170.431 192.855 172.092 192.855 174.145V184.976H186.944V174.207C186.942 174.186 186.939 174.165 186.939 174.145V174.145Z" stroke="#57544F" stroke-width="0.856816" stroke-miterlimit="10"/>
<path d="M175.076 174.145C175.076 172.093 176.401 170.431 178.034 170.431C179.668 170.431 180.992 172.092 180.992 174.145V184.976H175.08V174.207V174.144" fill="#F9B399"/>
<path d="M175.076 174.145C175.076 172.093 176.401 170.431 178.034 170.431C179.668 170.431 180.992 172.092 180.992 174.145V184.976H175.08V174.207C175.079 174.186 175.076 174.165 175.076 174.145V174.145Z" stroke="#57544F" stroke-width="0.856816" stroke-miterlimit="10"/>
<path d="M205.547 154.439H202.324V161.752H205.547V154.439Z" fill="#F9B399"/>
<path d="M205.547 154.439H202.324V161.752H205.547V154.439Z" stroke="#57544F" stroke-width="0.856816" stroke-miterlimit="10"/>
<path d="M196.377 154.439H193.154V161.752H196.377V154.439Z" fill="#F9B399"/>
<path d="M196.377 154.439H193.154V161.752H196.377V154.439Z" stroke="#57544F" stroke-width="0.856816" stroke-miterlimit="10"/>
<path d="M187.205 154.439H183.983V161.752H187.205V154.439Z" fill="#F9B399"/>
<path d="M187.205 154.439H183.983V161.752H187.205V154.439Z" stroke="#57544F" stroke-width="0.856816" stroke-miterlimit="10"/>
<path d="M178.035 154.439H174.813V161.752H178.035V154.439Z" fill="#F9B399"/>
<path d="M178.035 154.439H174.813V161.752H178.035V154.439Z" stroke="#57544F" stroke-width="0.856816" stroke-miterlimit="10"/>
<path d="M420.195 133.116H416.973V140.429H420.195V133.116Z" fill="white"/>
<path d="M420.195 133.116H416.973V140.429H420.195V133.116Z" stroke="#57544F" stroke-width="0.856816" stroke-miterlimit="10"/>
<path d="M411.024 133.116H407.802V140.429H411.024V133.116Z" fill="white"/>
<path d="M411.024 133.116H407.802V140.429H411.024V133.116Z" stroke="#57544F" stroke-width="0.856816" stroke-miterlimit="10"/>
<path d="M401.854 133.116H398.631V140.429H401.854V133.116Z" fill="white"/>
<path d="M401.854 133.116H398.631V140.429H401.854V133.116Z" stroke="#57544F" stroke-width="0.856816" stroke-miterlimit="10"/>
<path d="M392.682 133.116H389.459V140.429H392.682V133.116Z" fill="white"/>
<path d="M392.682 133.116H389.459V140.429H392.682V133.116Z" stroke="#57544F" stroke-width="0.856816" stroke-miterlimit="10"/>
<path d="M420.195 150.968H416.973V158.281H420.195V150.968Z" fill="white"/>
<path d="M420.195 150.968H416.973V158.281H420.195V150.968Z" stroke="#57544F" stroke-width="0.856816" stroke-miterlimit="10"/>
<path d="M411.024 150.968H407.802V158.281H411.024V150.968Z" fill="white"/>
<path d="M411.024 150.968H407.802V158.281H411.024V150.968Z" stroke="#57544F" stroke-width="0.856816" stroke-miterlimit="10"/>
<path d="M401.854 150.968H398.631V158.281H401.854V150.968Z" fill="white"/>
<path d="M401.854 150.968H398.631V158.281H401.854V150.968Z" stroke="#57544F" stroke-width="0.856816" stroke-miterlimit="10"/>
<path d="M392.682 150.968H389.459V158.281H392.682V150.968Z" fill="#F9B399"/>
<path d="M392.682 150.968H389.459V158.281H392.682V150.968Z" stroke="#57544F" stroke-width="0.856816" stroke-miterlimit="10"/>
<path d="M420.195 168.819H416.973V176.132H420.195V168.819Z" fill="white"/>
<path d="M420.195 168.819H416.973V176.132H420.195V168.819Z" stroke="#57544F" stroke-width="0.856816" stroke-miterlimit="10"/>
<path d="M411.024 168.819H407.802V176.132H411.024V168.819Z" fill="white"/>
<path d="M411.024 168.819H407.802V176.132H411.024V168.819Z" stroke="#57544F" stroke-width="0.856816" stroke-miterlimit="10"/>
<path d="M401.854 168.819H398.631V176.132H401.854V168.819Z" fill="white"/>
<path d="M401.854 168.819H398.631V176.132H401.854V168.819Z" stroke="#57544F" stroke-width="0.856816" stroke-miterlimit="10"/>
<path d="M392.682 168.819H389.459V176.132H392.682V168.819Z" fill="#F9B399"/>
<path d="M392.682 168.819H389.459V176.132H392.682V168.819Z" stroke="#57544F" stroke-width="0.856816" stroke-miterlimit="10"/>
<path d="M69.2422 144.811V184.973H27.4142V142.076H67.2422" stroke="#57544F" stroke-width="0.856816" stroke-miterlimit="10"/>
<path d="M98.3672 144.811H69.2492V184.972H98.3672V144.811Z" stroke="#57544F" stroke-width="0.856816" stroke-miterlimit="10"/>
<path d="M27.4141 147.95H69.2422" stroke="#57544F" stroke-width="0.856816" stroke-miterlimit="10"/>
<path d="M57.2173 174.145C57.2173 172.093 58.542 170.431 60.1751 170.431C61.8082 170.431 63.1328 172.092 63.1328 174.145V184.976H57.2208V174.207V174.144" fill="#F9B399"/>
<path d="M57.2173 174.145C57.2173 172.093 58.542 170.431 60.1751 170.431C61.8082 170.431 63.1328 172.092 63.1328 174.145V184.976H57.2208V174.207C57.2199 174.186 57.2173 174.165 57.2173 174.145Z" stroke="#57544F" stroke-width="0.856816" stroke-miterlimit="10"/>
<path d="M45.3532 174.145C45.3532 172.093 46.6778 170.431 48.3109 170.431C49.944 170.431 51.2686 172.092 51.2686 174.145V184.976H45.3566V174.207V174.144" fill="#F9B399"/>
<path d="M45.3532 174.145C45.3532 172.093 46.6778 170.431 48.3109 170.431C49.944 170.431 51.2686 172.092 51.2686 174.145V184.976H45.3566V174.207C45.3558 174.186 45.3532 174.165 45.3532 174.145Z" stroke="#57544F" stroke-width="0.856816" stroke-miterlimit="10"/>
<path d="M33.4899 174.145C33.4899 172.093 34.8146 170.431 36.4477 170.431C38.0808 170.431 39.4062 172.092 39.4062 174.145V184.976H33.4942V174.207V174.144" fill="#F9B399"/>
<path d="M33.4899 174.145C33.4899 172.093 34.8146 170.431 36.4477 170.431C38.0808 170.431 39.4062 172.092 39.4062 174.145V184.976H33.4942V174.207C33.4925 174.186 33.4899 174.165 33.4899 174.145V174.145Z" stroke="#57544F" stroke-width="0.856816" stroke-miterlimit="10"/>
<path d="M63.9609 154.439H60.7385V161.752H63.9609V154.439Z" fill="#F9B399"/>
<path d="M63.9609 154.439H60.7385V161.752H63.9609V154.439Z" stroke="#57544F" stroke-width="0.856816" stroke-miterlimit="10"/>
<path d="M54.79 154.439H51.5676V161.752H54.79V154.439Z" fill="#F9B399"/>
<path d="M54.79 154.439H51.5676V161.752H54.79V154.439Z" stroke="#57544F" stroke-width="0.856816" stroke-miterlimit="10"/>
<path d="M45.6191 154.439H42.3967V161.752H45.6191V154.439Z" fill="#F9B399"/>
<path d="M45.6191 154.439H42.3967V161.752H45.6191V154.439Z" stroke="#57544F" stroke-width="0.856816" stroke-miterlimit="10"/>
<path d="M94.5898 154.439H91.3674V161.752H94.5898V154.439Z" stroke="#57544F" stroke-width="0.856816" stroke-miterlimit="10"/>
<path d="M85.4199 154.439H82.1974V161.752H85.4199V154.439Z" stroke="#57544F" stroke-width="0.856816" stroke-miterlimit="10"/>
<path d="M76.249 154.439H73.0265V161.752H76.249V154.439Z" stroke="#57544F" stroke-width="0.856816" stroke-miterlimit="10"/>
<path d="M94.5898 169.707H91.3674V177.02H94.5898V169.707Z" stroke="#57544F" stroke-width="0.856816" stroke-miterlimit="10"/>
<path d="M85.4199 169.707H82.1974V177.02H85.4199V169.707Z" stroke="#57544F" stroke-width="0.856816" stroke-miterlimit="10"/>
<path d="M76.249 169.707H73.0265V177.02H76.249V169.707Z" stroke="#57544F" stroke-width="0.856816" stroke-miterlimit="10"/>
<path d="M169.008 144.811H139.89V184.972H169.008V144.811Z" stroke="#57544F" stroke-width="0.856816" stroke-miterlimit="10"/>
<path d="M170.99 139.686H137.536V144.809H170.99V139.686Z" stroke="#57544F" stroke-width="0.856816" stroke-miterlimit="10"/>
<path d="M165.23 154.439H162.008V161.752H165.23V154.439Z" fill="#F9B399"/>
<path d="M165.23 154.439H162.008V161.752H165.23V154.439Z" stroke="#57544F" stroke-width="0.856816" stroke-miterlimit="10"/>
<path d="M156.061 154.439H152.838V161.752H156.061V154.439Z" fill="#F9B399"/>
<path d="M156.061 154.439H152.838V161.752H156.061V154.439Z" stroke="#57544F" stroke-width="0.856816" stroke-miterlimit="10"/>
<path d="M146.889 154.439H143.666V161.752H146.889V154.439Z" fill="#F9B399"/>
<path d="M146.889 154.439H143.666V161.752H146.889V154.439Z" stroke="#57544F" stroke-width="0.856816" stroke-miterlimit="10"/>
<path d="M165.23 169.707H162.008V177.02H165.23V169.707Z" fill="#F9B399"/>
<path d="M165.23 169.707H162.008V177.02H165.23V169.707Z" stroke="#57544F" stroke-width="0.856816" stroke-miterlimit="10"/>
<path d="M156.061 169.707H152.838V177.02H156.061V169.707Z" fill="#F9B399"/>
<path d="M156.061 169.707H152.838V177.02H156.061V169.707Z" stroke="#57544F" stroke-width="0.856816" stroke-miterlimit="10"/>
<path d="M146.889 169.707H143.666V177.02H146.889V169.707Z" fill="#F9B399"/>
<path d="M146.889 169.707H143.666V177.02H146.889V169.707Z" stroke="#57544F" stroke-width="0.856816" stroke-miterlimit="10"/>
<path d="M36.4492 154.439H33.2259V161.752H36.4492V154.439Z" fill="#F9B399"/>
<path d="M36.4492 154.439H33.2259V161.752H36.4492V154.439Z" stroke="#57544F" stroke-width="0.856816" stroke-miterlimit="10"/>
<path d="M100.351 139.686H66.8962V144.809H100.351V139.686Z" stroke="#57544F" stroke-width="0.856816" stroke-miterlimit="10"/>
<path d="M237.634 172.389C237.613 171.265 238.04 170.179 238.821 169.37C239.601 168.561 240.671 168.094 241.794 168.074C242.918 168.095 243.988 168.561 244.768 169.37C245.548 170.179 245.975 171.265 245.954 172.389V184.973H237.634V172.463V172.389Z" fill="#F9B399"/>
<path d="M237.634 172.389C237.613 171.265 238.04 170.179 238.821 169.37C239.601 168.561 240.671 168.094 241.794 168.074C242.918 168.095 243.988 168.561 244.768 169.37C245.548 170.179 245.975 171.265 245.954 172.389V184.973H237.634V172.463C237.637 172.437 237.634 172.413 237.634 172.389Z" stroke="#57544F" stroke-width="0.856816" stroke-miterlimit="10"/>
<path d="M256.855 164.698H226.731V184.973H256.855V164.698Z" fill="#F9B399"/>
<path d="M256.855 164.698H226.731V184.973H256.855V164.698Z" stroke="#57544F" stroke-width="0.856816" stroke-miterlimit="10"/>
<path d="M254.895 139.686H228.599V161.399H254.895V139.686Z" fill="white"/>
<path d="M254.895 139.686H228.599V161.399H254.895V139.686Z" stroke="#57544F" stroke-width="0.856816" stroke-miterlimit="10"/>
<path d="M252.674 122.138H230.673V139.685H252.674V122.138Z" fill="white"/>
<path d="M252.674 122.138H230.673V139.685H252.674V122.138Z" stroke="#57544F" stroke-width="0.856816" stroke-miterlimit="10"/>
<path d="M252.674 99.5236H230.673V117.627H252.674V99.5236Z" fill="white"/>
<path d="M252.674 99.5236H230.673V117.627H252.674V99.5236Z" stroke="#57544F" stroke-width="0.856816" stroke-miterlimit="10"/>
<path d="M245.953 172.388H237.633V184.974H245.953V172.388Z" fill="#F9B399"/>
<path d="M245.953 172.388H237.633V184.974H245.953V172.388Z" stroke="#57544F" stroke-width="0.856816" stroke-miterlimit="10"/>
<path d="M245.953 176.778H237.633V184.974H245.953V176.778Z" fill="#F9B399"/>
<path d="M245.953 176.778H237.633V184.974H245.953V176.778Z" stroke="#57544F" stroke-width="0.856816" stroke-miterlimit="10"/>
<path d="M245.953 180.876H237.633V184.974H245.953V180.876Z" fill="#F9B399"/>
<path d="M245.953 180.876H237.633V184.974H245.953V180.876Z" stroke="#57544F" stroke-width="0.856816" stroke-miterlimit="10"/>
<path d="M253.068 164.777H249.889V184.973H253.068V164.777Z" fill="#F9B399"/>
<path d="M253.068 164.777H249.889V184.973H253.068V164.777Z" stroke="#57544F" stroke-width="0.856816" stroke-miterlimit="10"/>
<path d="M233.906 164.777H230.727V184.973H233.906V164.777Z" fill="#F9B399"/>
<path d="M233.906 164.777H230.727V184.973H233.906V164.777Z" stroke="#57544F" stroke-width="0.856816" stroke-miterlimit="10"/>
<path d="M233.382 135.223V139.684H238.593V122.138H233.382V135.223Z" fill="#F9B399"/>
<path d="M233.382 135.223V139.684H238.593V122.138H233.382V135.222" stroke="#57544F" stroke-width="0.856816" stroke-miterlimit="10"/>
<path d="M237.635 139.686H233.755V161.446H237.635V139.686Z" fill="#F9B399"/>
<path d="M237.635 139.686H233.755V161.446H237.635V139.686Z" stroke="#57544F" stroke-width="0.856816" stroke-miterlimit="10"/>
<path d="M249.51 122.138H244.612V139.685H249.51V122.138Z" fill="#F9B399"/>
<path d="M249.51 122.138H244.612V139.685H249.51V122.138Z" stroke="#57544F" stroke-width="0.856816" stroke-miterlimit="10"/>
<path d="M249.832 139.686H245.952V161.446H249.832V139.686Z" fill="#F9B399"/>
<path d="M249.832 139.686H245.952V161.446H249.832V139.686Z" stroke="#57544F" stroke-width="0.856816" stroke-miterlimit="10"/>
<path d="M226.7 165.133L220.935 161.399H262.622L256.857 165.133H226.7Z" fill="#F9B399"/>
<path d="M226.7 165.133L220.935 161.399H262.622L256.857 165.133H226.7Z" stroke="#57544F" stroke-width="0.856816" stroke-miterlimit="10"/>
<path d="M245.953 145.827H237.633V161.398H245.953V145.827Z" fill="#F9B399"/>
<path d="M245.953 145.827H237.633V161.398H245.953V145.827Z" stroke="#57544F" stroke-width="0.856816" stroke-miterlimit="10"/>
<path d="M245.953 151.174H237.633V161.399H245.953V151.174Z" fill="#F9B399"/>
<path d="M245.953 151.174H237.633V161.399H245.953V151.174Z" stroke="#57544F" stroke-width="0.856816" stroke-miterlimit="10"/>
<path d="M245.953 156.084H237.633V161.399H245.953V156.084Z" fill="#F9B399"/>
<path d="M245.953 156.084H237.633V161.399H245.953V156.084Z" stroke="#57544F" stroke-width="0.856816" stroke-miterlimit="10"/>
<path d="M235.462 108.919C235.462 109.724 235.62 110.521 235.928 111.264C236.236 112.008 236.688 112.683 237.257 113.252C237.826 113.821 238.501 114.272 239.245 114.58C239.988 114.888 240.785 115.047 241.59 115.047C242.395 115.047 243.191 114.888 243.935 114.58C244.678 114.272 245.354 113.821 245.923 113.252C246.492 112.683 246.943 112.008 247.251 111.264C247.559 110.521 247.718 109.724 247.718 108.919C247.718 107.294 247.072 105.736 245.923 104.586C244.774 103.437 243.215 102.792 241.59 102.792C239.965 102.792 238.406 103.437 237.257 104.586C236.107 105.736 235.462 107.294 235.462 108.919Z" fill="white"/>
<path d="M235.462 108.919C235.462 109.724 235.62 110.521 235.928 111.264C236.236 112.008 236.688 112.683 237.257 113.252C237.826 113.821 238.501 114.272 239.245 114.58C239.988 114.888 240.785 115.047 241.59 115.047C242.395 115.047 243.191 114.888 243.935 114.58C244.678 114.272 245.354 113.821 245.923 113.252C246.492 112.683 246.943 112.008 247.251 111.264C247.559 110.521 247.718 109.724 247.718 108.919C247.718 107.294 247.072 105.736 245.923 104.586C244.774 103.437 243.215 102.792 241.59 102.792C239.965 102.792 238.406 103.437 237.257 104.586C236.107 105.736 235.462 107.294 235.462 108.919V108.919Z" stroke="#57544F" stroke-width="0.856816" stroke-miterlimit="10"/>
<path d="M238.617 108.919C238.617 109.309 238.694 109.695 238.843 110.056C238.992 110.417 239.211 110.745 239.487 111.021C239.763 111.297 240.091 111.515 240.452 111.665C240.812 111.814 241.199 111.891 241.589 111.891C241.98 111.891 242.366 111.814 242.727 111.665C243.088 111.515 243.416 111.297 243.692 111.021C243.968 110.745 244.187 110.417 244.336 110.056C244.486 109.696 244.563 109.309 244.562 108.919C244.562 108.13 244.249 107.374 243.692 106.816C243.134 106.259 242.378 105.945 241.589 105.945C240.801 105.946 240.045 106.259 239.488 106.817C238.93 107.374 238.617 108.13 238.617 108.919Z" fill="#F9B399"/>
<path d="M238.617 108.919C238.617 109.309 238.694 109.695 238.843 110.056C238.992 110.417 239.211 110.745 239.487 111.021C239.763 111.297 240.091 111.515 240.452 111.665C240.812 111.814 241.199 111.891 241.589 111.891C241.98 111.891 242.366 111.814 242.727 111.665C243.088 111.515 243.416 111.297 243.692 111.021C243.968 110.745 244.187 110.417 244.336 110.056C244.486 109.696 244.563 109.309 244.562 108.919C244.562 108.13 244.249 107.374 243.692 106.816C243.134 106.259 242.378 105.945 241.589 105.945C240.801 105.946 240.045 106.259 239.488 106.817C238.93 107.374 238.617 108.13 238.617 108.919V108.919Z" stroke="#57544F" stroke-width="0.856816" stroke-miterlimit="10"/>
<path d="M245.955 145.484C245.955 144.938 245.847 144.397 245.638 143.892C245.429 143.387 245.123 142.929 244.736 142.542C244.35 142.156 243.891 141.85 243.387 141.641C242.882 141.432 242.341 141.324 241.794 141.324C240.691 141.324 239.633 141.762 238.853 142.543C238.073 143.323 237.634 144.381 237.634 145.484" fill="#F9B399"/>
<path d="M245.955 145.484C245.955 144.938 245.847 144.397 245.638 143.892C245.429 143.387 245.123 142.929 244.736 142.542C244.35 142.156 243.891 141.85 243.387 141.641C242.882 141.432 242.341 141.324 241.794 141.324C240.691 141.324 239.633 141.762 238.853 142.543C238.073 143.323 237.634 144.381 237.634 145.484" stroke="#57544F" stroke-width="0.856816" stroke-miterlimit="10"/>
<path d="M241.749 145.98V161.399" stroke="#57544F" stroke-width="0.856816" stroke-miterlimit="10"/>
<path d="M244.613 126.867H238.592V139.684H244.613V126.867Z" fill="#F9B399"/>
<path d="M244.613 126.867H238.592V139.684H244.613V126.867Z" stroke="#57544F" stroke-width="0.856816" stroke-miterlimit="10"/>
<path d="M244.613 132.83H238.592V139.685H244.613V132.83Z" fill="#F9B399"/>
<path d="M244.613 132.83H238.592V139.685H244.613V132.83Z" stroke="#57544F" stroke-width="0.856816" stroke-miterlimit="10"/>
<path d="M241.57 126.867V139.684" stroke="#57544F" stroke-width="0.856816" stroke-miterlimit="10"/>
<path d="M241.749 172.388V184.974" stroke="#57544F" stroke-width="0.856816" stroke-miterlimit="10"/>
<path d="M227.193 99.5236H256.303" stroke="#57544F" stroke-width="0.856816" stroke-miterlimit="10"/>
<path d="M252.536 99.5235H230.511C230.509 97.9446 230.849 96.384 231.505 94.948C232.161 93.512 233.119 92.2344 234.314 91.2022C233.715 91.0597 233.185 90.7129 232.814 90.2215C232.444 89.7301 232.256 89.1249 232.284 88.5101C232.244 87.8294 232.475 87.1607 232.926 86.6496C233.378 86.1386 234.013 85.8267 234.693 85.782H248.353C249.033 85.8269 249.668 86.1389 250.12 86.6499C250.571 87.1608 250.802 87.8295 250.762 88.5101C250.79 89.1251 250.602 89.7303 250.231 90.2217C249.86 90.7131 249.33 91.0598 248.731 91.2022C249.926 92.2342 250.884 93.5118 251.541 94.9479C252.197 96.3839 252.537 97.9446 252.535 99.5235" fill="white"/>
<path d="M252.536 99.5235H230.511C230.509 97.9446 230.849 96.384 231.505 94.948C232.161 93.512 233.119 92.2344 234.314 91.2022C233.715 91.0597 233.185 90.7129 232.814 90.2215C232.444 89.7301 232.256 89.1249 232.284 88.5101C232.244 87.8294 232.475 87.1607 232.926 86.6496C233.378 86.1386 234.013 85.8267 234.693 85.782H248.353C249.033 85.8269 249.668 86.1389 250.12 86.6499C250.571 87.1608 250.802 87.8295 250.762 88.5101C250.79 89.1251 250.602 89.7303 250.231 90.2217C249.86 90.7131 249.33 91.0598 248.731 91.2022C249.926 92.2341 250.885 93.5117 251.541 94.9477C252.198 96.3837 252.537 97.9445 252.536 99.5235V99.5235Z" stroke="#57544F" stroke-width="0.856816" stroke-miterlimit="10"/>
<path d="M234.928 79.7372H248.363V85.782H234.928V79.7372Z" fill="white"/>
<path d="M234.928 79.7372H248.363V85.782H234.928V79.7372Z" stroke="#57544F" stroke-width="0.856816" stroke-miterlimit="10"/>
<path d="M235.787 79.7362C235.787 79.7362 236.197 73.0531 241.345 71.127C241.345 71.127 246.514 71.384 247.334 79.7362" fill="white"/>
<path d="M235.787 79.7362C235.787 79.7362 236.197 73.0531 241.345 71.127C241.345 71.127 246.514 71.384 247.334 79.7362" stroke="#57544F" stroke-width="0.856816" stroke-miterlimit="10"/>
<path d="M241.562 71.1261V58.4375C241.562 58.4375 236.033 54.2391 232.798 58.4375V63.8492C232.798 63.8492 237.887 60.3602 241.375 63.8492" fill="white"/>
<path d="M250.014 99.2991C250.014 97.0267 249.111 94.8473 247.504 93.2405C245.897 91.6337 243.718 90.7309 241.446 90.7309C240.32 90.7304 239.205 90.9516 238.165 91.3819C237.125 91.8122 236.18 92.4433 235.384 93.239C234.588 94.0347 233.956 94.9794 233.526 96.0192C233.095 97.0591 232.873 98.1735 232.873 99.2991" fill="white"/>
<path d="M250.014 99.2991C250.014 97.0267 249.111 94.8473 247.504 93.2405C245.897 91.6337 243.718 90.7309 241.446 90.7309C240.32 90.7304 239.205 90.9516 238.165 91.3819C237.125 91.8122 236.18 92.4433 235.384 93.239C234.588 94.0347 233.956 94.9794 233.526 96.0192C233.095 97.0591 232.873 98.1735 232.873 99.2991" stroke="#57544F" stroke-width="0.856816" stroke-miterlimit="10"/>
<path d="M246.614 99.2991C246.614 97.9232 246.068 96.6036 245.095 95.6307C244.122 94.6577 242.802 94.1111 241.426 94.1111C240.745 94.1109 240.07 94.245 239.44 94.5056C238.811 94.7662 238.239 95.1483 237.757 95.6301C237.275 96.1119 236.893 96.6839 236.632 97.3135C236.371 97.943 236.237 98.6177 236.237 99.2991" fill="white"/>
<path d="M246.614 99.2991C246.614 97.9232 246.068 96.6036 245.095 95.6307C244.122 94.6577 242.802 94.1111 241.426 94.1111C240.745 94.1109 240.07 94.245 239.44 94.5056C238.811 94.7662 238.239 95.1483 237.757 95.6301C237.275 96.1119 236.893 96.6839 236.632 97.3135C236.371 97.943 236.237 98.6177 236.237 99.2991" stroke="#57544F" stroke-width="0.856816" stroke-miterlimit="10"/>
<path d="M256.303 117.629H227.193V122.138H256.303V117.629Z" fill="white"/>
<path d="M256.303 117.629H227.193V122.138H256.303V117.629Z" stroke="#57544F" stroke-width="0.856816" stroke-miterlimit="10"/>
<path d="M233.383 99.5245V117.628" stroke="#57544F" stroke-width="0.856816" stroke-miterlimit="10"/>
<path d="M249.847 99.5245V117.628" stroke="#57544F" stroke-width="0.856816" stroke-miterlimit="10"/>
<path fill-rule="evenodd" clip-rule="evenodd" d="M270.688 146.831C270.445 145.897 270.323 144.936 270.323 143.971C270.323 142.168 270.752 140.392 271.576 138.788C272.401 137.185 273.596 135.802 275.063 134.754C274.172 133.439 273.696 131.887 273.698 130.299C273.698 128.187 274.537 126.162 276.03 124.669C277.523 123.176 279.548 122.337 281.66 122.337C283.772 122.337 285.797 123.176 287.29 124.669C288.783 126.162 289.622 128.187 289.622 130.299C289.625 131.887 289.149 133.439 288.258 134.754C289.725 135.802 290.92 137.185 291.745 138.788C292.569 140.392 292.998 142.168 292.997 143.971C292.998 144.936 292.876 145.897 292.633 146.831C294.514 149.257 295.533 152.24 295.529 155.309C295.529 158.987 294.068 162.515 291.467 165.116C288.866 167.717 285.338 169.178 281.66 169.178C277.982 169.178 274.455 167.717 271.854 165.116C269.253 162.515 267.792 158.987 267.792 155.309C267.788 152.24 268.807 149.257 270.688 146.831Z" fill="white"/>
<path d="M270.688 146.831C270.445 145.897 270.323 144.936 270.323 143.971C270.323 142.168 270.752 140.392 271.576 138.788C272.401 137.185 273.596 135.802 275.063 134.754C274.172 133.439 273.696 131.887 273.698 130.299C273.698 128.187 274.537 126.162 276.03 124.669C277.523 123.176 279.548 122.337 281.66 122.337C283.772 122.337 285.797 123.176 287.29 124.669C288.783 126.162 289.622 128.187 289.622 130.299C289.625 131.887 289.149 133.439 288.258 134.754C289.725 135.802 290.92 137.185 291.745 138.788C292.569 140.392 292.998 142.168 292.997 143.971C292.998 144.936 292.876 145.897 292.633 146.831C294.514 149.257 295.533 152.24 295.529 155.309C295.529 158.987 294.068 162.515 291.467 165.116C288.866 167.717 285.338 169.178 281.66 169.178C277.982 169.178 274.455 167.717 271.854 165.116C269.253 162.515 267.792 158.987 267.792 155.309C267.788 152.24 268.807 149.257 270.688 146.831V146.831Z" stroke="#57544F" stroke-width="0.856816" stroke-miterlimit="10"/>
<path fill-rule="evenodd" clip-rule="evenodd" d="M287.492 152.124L281.66 160.001L276.402 152.124" fill="white"/>
<path d="M287.492 152.124L281.66 160.001L276.402 152.124" stroke="#57544F" stroke-width="0.856816" stroke-miterlimit="10"/>
<path fill-rule="evenodd" clip-rule="evenodd" d="M285.789 142.423L281.669 146.753L277.953 142.423" fill="#F9B399"/>
<path d="M285.789 142.423L281.669 146.753L277.953 142.423" stroke="#57544F" stroke-width="0.856816" stroke-miterlimit="10"/>
<path d="M281.66 139.908V184.596" stroke="#57544F" stroke-width="0.856816" stroke-miterlimit="10"/>
<path fill-rule="evenodd" clip-rule="evenodd" d="M527.528 152.4C527.323 151.61 527.219 150.796 527.22 149.98C527.219 148.455 527.583 146.951 528.281 145.595C528.979 144.239 529.99 143.069 531.232 142.183C530.478 141.07 530.076 139.757 530.077 138.413C530.077 136.626 530.787 134.911 532.051 133.648C533.315 132.384 535.029 131.674 536.816 131.674C538.604 131.674 540.318 132.384 541.581 133.648C542.845 134.911 543.555 136.626 543.555 138.413C543.556 139.757 543.154 141.07 542.401 142.183C543.642 143.069 544.654 144.239 545.351 145.595C546.049 146.952 546.412 148.455 546.412 149.98C546.412 150.796 546.309 151.61 546.104 152.4C547.696 154.453 548.558 156.978 548.555 159.576C548.555 161.118 548.251 162.644 547.661 164.068C547.071 165.492 546.207 166.786 545.117 167.876C544.027 168.966 542.733 169.831 541.308 170.421C539.884 171.011 538.358 171.314 536.816 171.314C535.275 171.314 533.748 171.011 532.324 170.421C530.9 169.831 529.606 168.966 528.516 167.876C527.426 166.786 526.561 165.492 525.971 164.068C525.382 162.644 525.078 161.118 525.078 159.576C525.075 156.978 525.938 154.453 527.529 152.4" fill="white"/>
<path d="M527.528 152.4C527.323 151.61 527.219 150.796 527.22 149.98C527.219 148.455 527.583 146.951 528.281 145.595C528.979 144.239 529.99 143.069 531.232 142.183C530.478 141.07 530.076 139.757 530.077 138.413C530.077 136.626 530.787 134.911 532.051 133.648C533.315 132.384 535.029 131.674 536.816 131.674C538.604 131.674 540.318 132.384 541.581 133.648C542.845 134.911 543.555 136.626 543.555 138.413C543.556 139.757 543.154 141.07 542.401 142.183C543.642 143.069 544.654 144.239 545.351 145.595C546.049 146.952 546.412 148.455 546.412 149.98C546.412 150.796 546.309 151.61 546.104 152.4C547.696 154.453 548.558 156.978 548.555 159.576C548.555 161.118 548.251 162.644 547.661 164.068C547.071 165.492 546.207 166.786 545.117 167.876C544.027 168.966 542.733 169.831 541.308 170.421C539.884 171.011 538.358 171.314 536.816 171.314C535.275 171.314 533.748 171.011 532.324 170.421C530.9 169.831 529.606 168.966 528.516 167.876C527.426 166.786 526.561 165.492 525.971 164.068C525.382 162.644 525.078 161.118 525.078 159.576C525.075 156.978 525.937 154.454 527.528 152.4V152.4Z" stroke="#57544F" stroke-width="0.856816" stroke-miterlimit="10"/>
<path fill-rule="evenodd" clip-rule="evenodd" d="M541.754 156.878L536.817 163.545L532.366 156.878" fill="white"/>
<path d="M541.754 156.878L536.817 163.545L532.366 156.878" stroke="#57544F" stroke-width="0.856816" stroke-miterlimit="10"/>
<path fill-rule="evenodd" clip-rule="evenodd" d="M540.316 148.669L536.828 152.334L533.683 148.669" fill="white"/>
<path d="M540.316 148.669L536.828 152.334L533.683 148.669" stroke="#57544F" stroke-width="0.856816" stroke-miterlimit="10"/>
<path fill-rule="evenodd" clip-rule="evenodd" d="M507.069 145.464C506.819 144.504 506.693 143.516 506.693 142.524C506.693 140.67 507.134 138.843 507.982 137.195C508.83 135.547 510.059 134.125 511.567 133.047C510.651 131.695 510.162 130.098 510.164 128.464C510.164 126.293 511.027 124.211 512.562 122.676C514.097 121.141 516.179 120.278 518.35 120.278C520.522 120.278 522.604 121.141 524.139 122.676C525.674 124.211 526.537 126.293 526.537 128.464C526.54 130.098 526.051 131.695 525.135 133.047C526.643 134.125 527.872 135.547 528.719 137.195C529.567 138.843 530.008 140.67 530.008 142.524C530.008 143.516 529.882 144.504 529.633 145.464C531.567 147.958 532.615 151.025 532.611 154.182C532.611 157.963 531.109 161.589 528.436 164.264C525.762 166.938 522.136 168.441 518.355 168.442C514.573 168.442 510.946 166.939 508.271 164.265C505.597 161.591 504.095 157.964 504.095 154.182C504.091 151.025 505.139 147.958 507.073 145.464" fill="white"/>
<path d="M507.069 145.464C506.819 144.504 506.693 143.516 506.693 142.524C506.693 140.67 507.134 138.843 507.982 137.195C508.83 135.547 510.059 134.125 511.567 133.047C510.651 131.695 510.162 130.098 510.164 128.464C510.164 126.293 511.027 124.211 512.562 122.676C514.097 121.141 516.179 120.278 518.35 120.278C520.522 120.278 522.604 121.141 524.139 122.676C525.674 124.211 526.537 126.293 526.537 128.464C526.54 130.098 526.051 131.695 525.135 133.047C526.643 134.125 527.872 135.547 528.719 137.195C529.567 138.843 530.008 140.67 530.008 142.524C530.008 143.516 529.882 144.504 529.633 145.464C531.567 147.958 532.615 151.025 532.611 154.182C532.611 157.963 531.109 161.589 528.436 164.264C525.762 166.938 522.136 168.441 518.355 168.442C514.573 168.442 510.946 166.939 508.271 164.265C505.597 161.591 504.095 157.964 504.095 154.182C504.09 151.026 505.136 147.959 507.069 145.464V145.464Z" stroke="#57544F" stroke-width="0.856816" stroke-miterlimit="10"/>
<path fill-rule="evenodd" clip-rule="evenodd" d="M524.348 150.909L518.35 159.006L512.943 150.909" fill="white"/>
<path d="M524.348 150.909L518.35 159.006L512.943 150.909" stroke="#57544F" stroke-width="0.856816" stroke-miterlimit="10"/>
<path fill-rule="evenodd" clip-rule="evenodd" d="M522.596 140.934L518.359 145.389L514.539 140.934" fill="white"/>
<path d="M522.596 140.934L518.359 145.389L514.539 140.934" stroke="#57544F" stroke-width="0.856816" stroke-miterlimit="10"/>
<path d="M518.351 138.845V184.791" stroke="#57544F" stroke-width="0.856816" stroke-miterlimit="10"/>
<path d="M415.128 105.515C424.641 106.789 433.855 109.728 442.35 114.196L415.128 105.515Z" fill="white"/>
<path d="M433.586 123.727H377.558L404.829 111.331L433.586 123.727Z" fill="white"/>
<path d="M433.586 123.727H377.558L404.829 111.331L433.586 123.727Z" stroke="#57544F" stroke-width="0.856816" stroke-miterlimit="10"/>
<path d="M394.424 146.392H355.253V186.454H394.424V146.392Z" fill="white"/>
<path d="M394.424 146.392H355.253V186.454H394.424V146.392Z" stroke="#57544F" stroke-width="0.856816" stroke-miterlimit="10"/>
<path d="M140.119 148.025H98.4702" stroke="#57544F" stroke-width="0.856816" stroke-miterlimit="10"/>
<path d="M384.752 155.678H381.529V166.132H384.752V155.678Z" fill="white"/>
<path d="M384.752 155.678H381.529V166.132H384.752V155.678Z" stroke="#57544F" stroke-width="0.856816" stroke-miterlimit="10"/>
<path d="M376.572 155.678H373.35V166.132H376.572V155.678Z" fill="#F9B399"/>
<path d="M376.572 155.678H373.35V166.132H376.572V155.678Z" stroke="#57544F" stroke-width="0.856816" stroke-miterlimit="10"/>
<path d="M368.393 155.678H365.17V166.132H368.393V155.678Z" fill="white"/>
<path d="M368.393 155.678H365.17V166.132H368.393V155.678Z" stroke="#57544F" stroke-width="0.856816" stroke-miterlimit="10"/>
<path d="M384.752 170.885H381.529V181.339H384.752V170.885Z" fill="#F9B399"/>
<path d="M384.752 170.885H381.529V181.339H384.752V170.885Z" stroke="#57544F" stroke-width="0.856816" stroke-miterlimit="10"/>
<path d="M376.572 170.885H373.35V181.339H376.572V170.885Z" fill="#F9B399"/>
<path d="M376.572 170.885H373.35V181.339H376.572V170.885Z" stroke="#57544F" stroke-width="0.856816" stroke-miterlimit="10"/>
<path d="M368.393 170.885H365.17V181.339H368.393V170.885Z" fill="#F9B399"/>
<path d="M368.393 170.885H365.17V181.339H368.393V170.885Z" stroke="#57544F" stroke-width="0.856816" stroke-miterlimit="10"/>
</svg>
