<svg width="895" height="191" viewBox="0 0 895 191" fill="none" xmlns="http://www.w3.org/2000/svg">
<path d="M480.564 148.521C541.601 122.073 702.175 58.8685 857.494 155.842C857.494 155.842 888.136 176.288 893.587 184.974C901.444 197.494 480.564 184.974 480.564 184.974V148.521Z" fill="white"/>
<path d="M480.564 148.521C541.601 122.073 702.175 58.8685 857.494 155.842C857.494 155.842 888.136 176.288 893.587 184.974C901.444 197.494 480.564 184.974 480.564 184.974V148.521Z" stroke="#57544F" stroke-width="0.856816" stroke-miterlimit="10"/>
<path d="M127.92 128.035C176.215 102.56 303.001 50.3938 416.18 114.03L429.639 176.782L139.578 188.185L114.6 142.248L127.92 128.035Z" fill="white"/>
<path d="M127.92 128.035C176.215 102.56 303.001 50.3938 416.18 114.03L429.639 176.782L139.578 188.185L114.6 142.248L127.92 128.035" stroke="#57544F" stroke-width="0.856816" stroke-miterlimit="10"/>
<path d="M166.48 115.957V100.585H173.437V112.324" fill="white"/>
<path d="M166.48 115.957V100.585H173.437V112.324" stroke="#57544F" stroke-width="0.856816" stroke-miterlimit="10"/>
<path d="M190.869 101.413V96.1006H197.826V99.4568" fill="white"/>
<path d="M190.869 101.413V96.1006H197.826V99.4568" stroke="#57544F" stroke-width="0.856816" stroke-miterlimit="10"/>
<path d="M179.786 111.593C179.786 111.593 170.863 110.383 163.178 119.076L179.786 111.593Z" fill="white"/>
<path d="M179.786 111.593C179.786 111.593 170.863 110.383 163.178 119.076" stroke="#57544F" stroke-width="0.856816" stroke-miterlimit="10"/>
<path d="M330.57 189.923V129.546H292.312V189.652" fill="white"/>
<path d="M330.57 189.923V129.546H292.312V189.652" stroke="#57544F" stroke-width="0.856816" stroke-miterlimit="10"/>
<path d="M308.968 142.054H341.817" stroke="#57544F" stroke-width="0.856816" stroke-miterlimit="10"/>
<path d="M330.562 188.651V123.806H374.126V188.931" fill="white"/>
<path d="M330.562 188.651V123.806H374.126V188.931" stroke="#57544F" stroke-width="0.856816" stroke-miterlimit="10"/>
<path d="M384.929 108.357H438.478V186.451H384.929V108.357Z" fill="white"/>
<path d="M384.929 108.357H438.478V186.451H384.929V108.357Z" stroke="#57544F" stroke-width="0.856816" stroke-miterlimit="10"/>
<path d="M482.092 111.83H508.866V185.212H482.092V111.83Z" fill="white"/>
<path d="M53.8008 95.4648H119.994V186.698H53.8008V95.4648Z" fill="white"/>
<path d="M586.192 139.594L602.558 132.157L619.416 139.594" fill="white"/>
<path d="M586.192 139.594L602.558 132.157L619.416 139.594" stroke="#57544F" stroke-width="0.856816" stroke-miterlimit="10"/>
<path d="M616.926 148.026H658.575V185.213H616.926V148.026Z" fill="white"/>
<path d="M616.926 148.026H658.575V185.213H616.926V148.026Z" stroke="#57544F" stroke-width="0.856816" stroke-miterlimit="10"/>
<path d="M265.685 184.962V73.5175H227.428V184.467" fill="white"/>
<path d="M265.685 184.962V73.5175H227.428V184.467" stroke="#57544F" stroke-width="0.856816" stroke-miterlimit="10"/>
<path fill-rule="evenodd" clip-rule="evenodd" d="M186.125 141.999C186.336 141.185 186.443 140.348 186.443 139.507C186.444 137.936 186.069 136.388 185.351 134.991C184.632 133.593 183.591 132.388 182.312 131.475C183.089 130.329 183.503 128.976 183.501 127.591C183.501 125.751 182.77 123.985 181.468 122.684C180.167 121.382 178.401 120.651 176.561 120.651C174.72 120.651 172.955 121.382 171.653 122.684C170.352 123.985 169.62 125.751 169.62 127.591C169.618 128.976 170.032 130.329 170.809 131.475C169.531 132.388 168.489 133.593 167.77 134.991C167.052 136.388 166.677 137.936 166.678 139.507C166.678 140.348 166.785 141.185 166.997 141.999C165.357 144.113 164.469 146.712 164.473 149.387C164.473 152.592 165.746 155.666 168.013 157.933C170.279 160.2 173.353 161.473 176.559 161.473C179.763 161.472 182.836 160.198 185.102 157.931C187.367 155.665 188.64 152.591 188.64 149.387C188.644 146.712 187.756 144.113 186.117 141.999" fill="white"/>
<path d="M186.125 141.999C186.336 141.185 186.443 140.348 186.443 139.507C186.444 137.936 186.069 136.388 185.351 134.991C184.632 133.593 183.591 132.388 182.312 131.475C183.089 130.329 183.503 128.976 183.501 127.591C183.501 125.751 182.77 123.985 181.468 122.684C180.167 121.382 178.401 120.651 176.561 120.651C174.72 120.651 172.955 121.382 171.653 122.684C170.352 123.985 169.62 125.751 169.62 127.591C169.618 128.976 170.032 130.329 170.809 131.475C169.531 132.388 168.489 133.593 167.77 134.991C167.052 136.388 166.677 137.936 166.678 139.507C166.678 140.348 166.785 141.185 166.997 141.999C165.357 144.113 164.469 146.712 164.473 149.387C164.473 152.592 165.746 155.666 168.013 157.933C170.279 160.2 173.353 161.473 176.559 161.473C179.763 161.472 182.836 160.198 185.102 157.931C187.367 155.665 188.64 152.591 188.64 149.387C188.646 146.713 187.761 144.114 186.125 141.999V141.999Z" stroke="#57544F" stroke-width="0.856816" stroke-miterlimit="10"/>
<path fill-rule="evenodd" clip-rule="evenodd" d="M171.481 146.612L176.564 153.476L181.146 146.612" fill="white"/>
<path d="M171.481 146.612L176.564 153.476L181.146 146.612" stroke="#57544F" stroke-width="0.856816" stroke-miterlimit="10"/>
<path fill-rule="evenodd" clip-rule="evenodd" d="M172.965 140.638L176.556 144.408L179.794 140.638" fill="white"/>
<path d="M172.965 140.638L176.556 144.408L179.794 140.638" stroke="#57544F" stroke-width="0.856816" stroke-miterlimit="10"/>
<path d="M176.564 135.967V184.958" stroke="#57544F" stroke-width="0.856816" stroke-miterlimit="10"/>
<path d="M127.92 138.575H173.288V184.972H127.92V138.575Z" fill="white"/>
<path d="M127.92 138.575H173.288V184.972H127.92V138.575Z" stroke="#57544F" stroke-width="0.856816" stroke-miterlimit="10"/>
<path d="M244.082 88.0045H276.932" stroke="#57544F" stroke-width="0.856816" stroke-miterlimit="10"/>
<path d="M265.627 184.466V69.7561H309.191V184.961" fill="white"/>
<path d="M265.627 184.466V69.7561H309.191V184.961" stroke="#57544F" stroke-width="0.856816" stroke-miterlimit="10"/>
<path d="M212.73 79.8228H245.58V185.209H212.73V79.8228Z" fill="white"/>
<path d="M212.73 79.8228H245.58V185.209H212.73V79.8228Z" stroke="#57544F" stroke-width="0.856816" stroke-miterlimit="10"/>
<path d="M201.617 109.841H212.73V165.711H201.617V109.841Z" fill="white"/>
<path d="M201.617 109.841H212.73V165.711H201.617V109.841Z" stroke="#57544F" stroke-width="0.856816" stroke-miterlimit="10"/>
<path d="M223.281 98.0036V103.43" stroke="#57544F" stroke-width="0.856816" stroke-miterlimit="10"/>
<path d="M232.836 98.0036V103.43" stroke="#57544F" stroke-width="0.856816" stroke-miterlimit="10"/>
<path d="M223.281 118.434V123.861" stroke="#57544F" stroke-width="0.856816" stroke-miterlimit="10"/>
<path d="M206.938 118.222V123.648" stroke="#57544F" stroke-width="0.856816" stroke-miterlimit="10"/>
<path d="M206.938 145.787V151.214" stroke="#57544F" stroke-width="0.856816" stroke-miterlimit="10"/>
<path d="M257.332 114.713V106.076" stroke="#57544F" stroke-width="0.856816" stroke-miterlimit="10"/>
<path d="M280.139 93.1146V84.4771" stroke="#57544F" stroke-width="0.856816" stroke-miterlimit="10"/>
<path d="M294.248 93.1146V84.4771" stroke="#57544F" stroke-width="0.856816" stroke-miterlimit="10"/>
<path d="M232.836 127.868V133.294" stroke="#57544F" stroke-width="0.856816" stroke-miterlimit="10"/>
<path d="M503.769 111.892H470.92" stroke="#57544F" stroke-width="0.856816" stroke-miterlimit="10"/>
<path d="M482.17 184.714V89.0181H438.606V184.962" fill="white"/>
<path d="M482.17 184.714V89.0181H438.606V184.962" stroke="#57544F" stroke-width="0.856816" stroke-miterlimit="10"/>
<path d="M502.266 184.971H535.115V108.921H526.555" fill="#F9B399"/>
<path d="M502.266 184.971H535.115V108.921H526.555" stroke="#57544F" stroke-width="0.856816" stroke-miterlimit="10"/>
<path d="M535.109 129.103H546.222V184.972H535.109V129.103Z" fill="#F9B399"/>
<path d="M535.109 129.103H546.222V184.972H535.109V129.103Z" stroke="#57544F" stroke-width="0.856816" stroke-miterlimit="10"/>
<path d="M540.9 137.483V142.909" stroke="#57544F" stroke-width="0.856816" stroke-miterlimit="10"/>
<path d="M540.9 165.049V170.475" stroke="#57544F" stroke-width="0.856816" stroke-miterlimit="10"/>
<path d="M490.517 133.975V125.337" stroke="#57544F" stroke-width="0.856816" stroke-miterlimit="10"/>
<path d="M467.715 112.377V103.738" stroke="#57544F" stroke-width="0.856816" stroke-miterlimit="10"/>
<path d="M453.545 112.377V103.738" stroke="#57544F" stroke-width="0.856816" stroke-miterlimit="10"/>
<path d="M0.740234 144.563H46.1086V184.973H0.740234V144.563Z" fill="#B8C7E5"/>
<path d="M0.740234 144.563H46.1086V184.973H0.740234V144.563Z" stroke="#57544F" stroke-width="0.856816" stroke-miterlimit="10"/>
<path d="M0.740234 138.575H46.1086V184.972H0.740234V138.575Z" fill="white"/>
<path d="M0.740234 138.575H46.1086V184.972H0.740234V138.575Z" stroke="#57544F" stroke-width="0.856816" stroke-miterlimit="10"/>
<path d="M4.07227 150.23H9.28599V161.528H4.07227V150.23Z" fill="white"/>
<path d="M4.07227 150.23H9.28599V161.528H4.07227V150.23Z" stroke="#57544F" stroke-width="0.856816" stroke-miterlimit="10"/>
<path d="M15.2363 150.23H20.4501V161.528H15.2363V150.23Z" fill="white"/>
<path d="M15.2363 150.23H20.4501V161.528H15.2363V150.23Z" stroke="#57544F" stroke-width="0.856816" stroke-miterlimit="10"/>
<path d="M26.4004 150.23H31.6141V161.528H26.4004V150.23Z" fill="white"/>
<path d="M26.4004 150.23H31.6141V161.528H26.4004V150.23Z" stroke="#57544F" stroke-width="0.856816" stroke-miterlimit="10"/>
<path d="M37.5635 150.23H42.7772V161.528H37.5635V150.23Z" fill="white"/>
<path d="M37.5635 150.23H42.7772V161.528H37.5635V150.23Z" stroke="#57544F" stroke-width="0.856816" stroke-miterlimit="10"/>
<path d="M4.07227 170.065H9.28599V175.713H4.07227V170.065Z" fill="white"/>
<path d="M4.07227 170.065H9.28599V175.713H4.07227V170.065Z" stroke="#57544F" stroke-width="0.856816" stroke-miterlimit="10"/>
<path d="M15.2363 170.065H20.4501V181.362H15.2363V170.065Z" fill="white"/>
<path d="M15.2363 170.065H20.4501V181.362H15.2363V170.065Z" stroke="#57544F" stroke-width="0.856816" stroke-miterlimit="10"/>
<path d="M26.4004 170.065H31.6141V181.362H26.4004V170.065Z" fill="white"/>
<path d="M26.4004 170.065H31.6141V181.362H26.4004V170.065Z" stroke="#57544F" stroke-width="0.856816" stroke-miterlimit="10"/>
<path d="M37.5635 170.065H42.7772V175.713H37.5635V170.065Z" fill="white"/>
<path d="M37.5635 170.065H42.7772V175.713H37.5635V170.065Z" stroke="#57544F" stroke-width="0.856816" stroke-miterlimit="10"/>
<path d="M46.1086 165.796H0.740234" stroke="#57544F" stroke-width="0.856816" stroke-miterlimit="10"/>
<path d="M53.168 103.9C53.168 86.7639 68.3755 72.8749 87.1347 72.8749C105.894 72.8749 121.102 86.7656 121.102 103.9" fill="white"/>
<path d="M53.168 103.9C53.168 86.7639 68.3755 72.8749 87.1347 72.8749C105.894 72.8749 121.102 86.7656 121.102 103.9" stroke="#57544F" stroke-width="0.856816" stroke-miterlimit="10"/>
<path d="M53.873 135.285C53.873 116.014 68.4218 100.392 86.3687 100.392C104.316 100.392 118.864 116.014 118.864 135.285" fill="white"/>
<path d="M53.873 135.285C53.873 116.014 68.4218 100.392 86.3687 100.392C104.316 100.392 118.864 116.014 118.864 135.285" stroke="#57544F" stroke-width="0.856816" stroke-miterlimit="10"/>
<path d="M68.999 126.327C68.999 118.061 77.2861 111.36 87.5062 111.36C97.7263 111.36 106.013 118.061 106.013 126.327L98.8864 128.04C98.8864 122.709 93.7525 118.387 87.4189 118.387C81.0853 118.387 75.9504 122.708 75.9504 128.04L68.999 126.327Z" fill="white"/>
<path d="M68.999 126.327C68.999 118.061 77.2861 111.36 87.5062 111.36C97.7263 111.36 106.013 118.061 106.013 126.327L98.8864 128.04C98.8864 122.709 93.7525 118.387 87.4189 118.387C81.0853 118.387 75.9504 122.708 75.9504 128.04L68.999 126.327Z" stroke="#57544F" stroke-width="0.856816" stroke-miterlimit="10"/>
<path d="M91.9734 72.8732H85.0332V70.6061C85.0334 70.1554 85.2126 69.7232 85.5314 69.4046C85.8501 69.086 86.2824 68.907 86.7331 68.907H90.3908C90.8108 68.907 91.2137 69.0738 91.5108 69.3707C91.8079 69.6676 91.9748 70.0704 91.9751 70.4904L91.9734 72.8732Z" fill="white"/>
<path d="M91.9734 72.8732H85.0332V70.6061C85.0334 70.1554 85.2126 69.7232 85.5314 69.4046C85.8501 69.086 86.2824 68.907 86.7331 68.907H90.3908C90.8108 68.907 91.2137 69.0738 91.5108 69.3707C91.8079 69.6676 91.9748 70.0704 91.9751 70.4904L91.9734 72.8732Z" stroke="#57544F" stroke-width="0.856816" stroke-miterlimit="10"/>
<path d="M88.502 48.6124V59.9215" stroke="#57544F" stroke-width="0.856816" stroke-miterlimit="10"/>
<path d="M90.9026 66.9474C91.4827 66.9474 91.0586 65.0153 90.8435 64.4756L89.2078 60.368C89.1544 60.2338 89.0612 60.1192 88.9407 60.0396C88.8202 59.96 88.6783 59.9191 88.5339 59.9225C88.3896 59.9258 88.2497 59.9732 88.133 60.0584C88.0164 60.1435 87.9287 60.2623 87.8815 60.3988L86.4086 64.6649C86.251 65.1233 85.6187 66.9474 86.1036 66.9474" fill="#B8C7E5"/>
<path d="M90.9026 66.9474C91.4827 66.9474 91.0586 65.0153 90.8435 64.4756L89.2078 60.368C89.1544 60.2338 89.0612 60.1192 88.9407 60.0396C88.8202 59.96 88.6783 59.9191 88.5339 59.9225C88.3896 59.9258 88.2497 59.9732 88.133 60.0584C88.0164 60.1435 87.9287 60.2623 87.8815 60.3988L86.4086 64.6649C86.251 65.1233 85.6187 66.9474 86.1036 66.9474" fill="white"/>
<path d="M90.9026 66.9474C91.4827 66.9474 91.0586 65.0153 90.8435 64.4756L89.2078 60.368C89.1544 60.2338 89.0612 60.1192 88.9407 60.0396C88.8202 59.96 88.6783 59.9191 88.5339 59.9225C88.3896 59.9258 88.2497 59.9732 88.133 60.0584C88.0164 60.1435 87.9287 60.2623 87.8815 60.3988L86.4086 64.6649C86.251 65.1233 85.6187 66.9474 86.1036 66.9474" stroke="#57544F" stroke-width="0.856816" stroke-miterlimit="10"/>
<path d="M114.285 115.804H127.921V184.972H114.285V115.804Z" fill="#B8C7E5"/>
<path d="M114.285 115.804H127.921V184.972H114.285V115.804Z" stroke="#57544F" stroke-width="0.856816" stroke-miterlimit="10"/>
<path d="M127.92 184.971H114.285V106.077H127.92V184.971Z" fill="white"/>
<path d="M127.92 184.971H114.285V106.077H127.92V184.971Z" stroke="#57544F" stroke-width="0.856816" stroke-miterlimit="10"/>
<path d="M124.697 115.801V106.076" stroke="#57544F" stroke-width="0.856816" stroke-miterlimit="10"/>
<path d="M117.137 115.801V106.076" stroke="#57544F" stroke-width="0.856816" stroke-miterlimit="10"/>
<path d="M125.204 91.4498C125.204 90.4418 124.804 89.475 124.091 88.7622C123.378 88.0494 122.411 87.649 121.403 87.649C120.904 87.6489 120.41 87.7471 119.948 87.9381C119.487 88.1291 119.068 88.409 118.715 88.7619C118.362 89.1149 118.082 89.5339 117.891 89.9951C117.7 90.4563 117.602 90.9506 117.602 91.4498H119.161V97.0072H123.645V91.4498H125.204Z" fill="white"/>
<path d="M125.204 91.4498C125.204 90.4418 124.804 89.475 124.091 88.7622C123.378 88.0494 122.411 87.649 121.403 87.649C120.904 87.6489 120.41 87.7471 119.948 87.9381C119.487 88.1291 119.068 88.409 118.715 88.7619C118.362 89.1149 118.082 89.5339 117.891 89.9951C117.7 90.4563 117.602 90.9506 117.602 91.4498H119.161V97.0072H123.645V91.4498H125.204Z" stroke="#57544F" stroke-width="0.856816" stroke-miterlimit="10"/>
<path d="M122.961 123.942C122.961 124.347 122.8 124.736 122.514 125.023C122.227 125.31 121.838 125.471 121.433 125.471C121.027 125.471 120.639 125.31 120.352 125.023C120.065 124.736 119.904 124.347 119.904 123.942C119.905 123.537 120.066 123.148 120.352 122.861C120.639 122.575 121.027 122.414 121.433 122.413C121.838 122.414 122.227 122.575 122.513 122.861C122.8 123.148 122.961 123.537 122.961 123.942Z" fill="#B8C7E5"/>
<path d="M122.961 123.942C122.961 124.347 122.8 124.736 122.514 125.023C122.227 125.31 121.838 125.471 121.433 125.471C121.027 125.471 120.639 125.31 120.352 125.023C120.065 124.736 119.904 124.347 119.904 123.942C119.905 123.537 120.066 123.148 120.352 122.861C120.639 122.575 121.027 122.414 121.433 122.413C121.838 122.414 122.227 122.575 122.513 122.861C122.8 123.148 122.961 123.537 122.961 123.942Z" stroke="#57544F" stroke-width="0.856816" stroke-miterlimit="10"/>
<path d="M46.0488 115.804H59.6842V184.972H46.0488V115.804Z" fill="#B8C7E5"/>
<path d="M46.0488 115.804H59.6842V184.972H46.0488V115.804Z" stroke="#57544F" stroke-width="0.856816" stroke-miterlimit="10"/>
<path d="M59.6861 184.971H46.0508V106.077H59.6861V184.971Z" fill="white"/>
<path d="M59.6861 184.971H46.0508V106.077H59.6861V184.971Z" stroke="#57544F" stroke-width="0.856816" stroke-miterlimit="10"/>
<path d="M56.6455 115.801V106.076" stroke="#57544F" stroke-width="0.856816" stroke-miterlimit="10"/>
<path d="M49.0947 115.801V106.076" stroke="#57544F" stroke-width="0.856816" stroke-miterlimit="10"/>
<path d="M56.9687 91.4498C56.9687 90.9506 56.8703 90.4563 56.6793 89.9951C56.4882 89.5339 56.2082 89.1149 55.8552 88.7619C55.5022 88.409 55.083 88.1291 54.6217 87.9381C54.1605 87.7471 53.6662 87.6489 53.167 87.649C52.1589 87.649 51.1922 88.0494 50.4794 88.7622C49.7666 89.475 49.3662 90.4418 49.3662 91.4498H50.9256V97.0072H55.4093V91.4498H56.9687Z" fill="white"/>
<path d="M56.9687 91.4498C56.9687 90.9506 56.8703 90.4563 56.6793 89.9951C56.4882 89.5339 56.2082 89.1149 55.8552 88.7619C55.5022 88.409 55.083 88.1291 54.6217 87.9381C54.1605 87.7471 53.6662 87.6489 53.167 87.649C52.1589 87.649 51.1922 88.0494 50.4794 88.7622C49.7666 89.475 49.3662 90.4418 49.3662 91.4498H50.9256V97.0072H55.4093V91.4498H56.9687Z" stroke="#57544F" stroke-width="0.856816" stroke-miterlimit="10"/>
<path d="M54.727 123.942C54.727 124.347 54.5659 124.736 54.2793 125.023C53.9926 125.309 53.6038 125.471 53.1984 125.471C52.793 125.471 52.4042 125.309 52.1176 125.023C51.8309 124.736 51.6699 124.347 51.6699 123.942C51.6696 123.741 51.7088 123.542 51.7855 123.356C51.8622 123.17 51.9747 123.002 52.1166 122.859C52.2586 122.717 52.4273 122.604 52.6129 122.527C52.7985 122.45 52.9975 122.411 53.1984 122.411C53.6038 122.411 53.9925 122.572 54.2791 122.859C54.5657 123.145 54.7268 123.534 54.727 123.939" fill="#B8C7E5"/>
<path d="M54.727 123.942C54.727 124.347 54.5659 124.736 54.2793 125.023C53.9926 125.309 53.6038 125.471 53.1984 125.471C52.793 125.471 52.4042 125.309 52.1176 125.023C51.8309 124.736 51.6699 124.347 51.6699 123.942C51.6696 123.741 51.7088 123.542 51.7855 123.356C51.8622 123.17 51.9747 123.002 52.1166 122.859C52.2586 122.717 52.4273 122.604 52.6129 122.527C52.7985 122.45 52.9975 122.411 53.1984 122.411C53.3993 122.411 53.5983 122.451 53.7838 122.528C53.9694 122.605 54.138 122.717 54.2799 122.86C54.4219 123.002 54.5344 123.171 54.6111 123.356C54.6879 123.542 54.7273 123.741 54.727 123.942V123.942Z" stroke="#57544F" stroke-width="0.856816" stroke-miterlimit="10"/>
<path d="M85.6855 68.4177C85.6855 67.6709 85.9822 66.9548 86.5101 66.4266C87.0381 65.8985 87.7543 65.6016 88.5011 65.6014C88.8709 65.6014 89.2371 65.6743 89.5788 65.8158C89.9205 65.9573 90.231 66.1648 90.4925 66.4263C90.754 66.6878 90.9614 66.9983 91.103 67.34C91.2445 67.6817 91.3174 68.0479 91.3174 68.4177" fill="white"/>
<path d="M85.6855 68.4177C85.6855 67.6709 85.9822 66.9548 86.5101 66.4266C87.0381 65.8985 87.7543 65.6016 88.5011 65.6014C88.8709 65.6014 89.2371 65.6743 89.5788 65.8158C89.9205 65.9573 90.231 66.1648 90.4925 66.4263C90.754 66.6878 90.9614 66.9983 91.103 67.34C91.2445 67.6817 91.3174 68.0479 91.3174 68.4177" stroke="#57544F" stroke-width="0.856816" stroke-miterlimit="10"/>
<path d="M75.5525 164.721C75.5525 161.785 73.6564 159.409 71.3173 159.409C68.9782 159.409 67.082 161.789 67.082 164.721V180.227H75.5517V164.811V164.721" fill="white"/>
<path d="M75.5525 164.721C75.5525 161.785 73.6564 159.409 71.3173 159.409C68.9782 159.409 67.082 161.789 67.082 164.721V180.227H75.5517V164.811C75.55 164.78 75.5525 164.749 75.5525 164.721Z" stroke="#57544F" stroke-width="0.856816" stroke-miterlimit="10"/>
<path d="M107.349 164.721C107.349 161.785 105.453 159.409 103.114 159.409C100.775 159.409 98.8789 161.789 98.8789 164.721V180.227H107.349V164.811V164.721" fill="white"/>
<path d="M107.349 164.721C107.349 161.785 105.453 159.409 103.114 159.409C100.775 159.409 98.8789 161.789 98.8789 164.721V180.227H107.349V164.811C107.347 164.78 107.349 164.749 107.349 164.721Z" stroke="#57544F" stroke-width="0.856816" stroke-miterlimit="10"/>
<path d="M91.9745 133.352C91.9745 130.415 90.0782 128.039 87.7391 128.039C85.4 128.039 83.5039 130.42 83.5039 133.352V148.857H91.9735V133.442V133.352" fill="#B8C7E5"/>
<path d="M91.9745 133.352C91.9745 130.415 90.0782 128.039 87.7391 128.039C85.4 128.039 83.5039 130.42 83.5039 133.352V148.857H91.9735V133.442C91.9718 133.412 91.9745 133.382 91.9745 133.352Z" fill="white" stroke="#57544F" stroke-width="0.856816" stroke-miterlimit="10"/>
<path d="M67.084 136.056H75.5536V148.859H67.084V136.056Z" fill="white"/>
<path d="M67.084 136.056H75.5536V148.859H67.084V136.056Z" stroke="#57544F" stroke-width="0.856816" stroke-miterlimit="10"/>
<path d="M98.8945 136.056H107.364V148.859H98.8945V136.056Z" fill="white"/>
<path d="M98.8945 136.056H107.364V148.859H98.8945V136.056Z" stroke="#57544F" stroke-width="0.856816" stroke-miterlimit="10"/>
<path d="M121.434 83.4883V87.6481" stroke="#57544F" stroke-width="0.856816" stroke-miterlimit="10"/>
<path d="M53.1973 83.4883V87.6481" stroke="#57544F" stroke-width="0.856816" stroke-miterlimit="10"/>
<path d="M94.3426 112.414L91.9727 118.843L94.3426 112.414Z" fill="#B8C7E5"/>
<path d="M94.3426 112.414L91.9727 118.843" stroke="#57544F" stroke-width="0.856816" stroke-miterlimit="10"/>
<path d="M99.9502 115.244L95.8555 120.43L99.9502 115.244Z" fill="#B8C7E5"/>
<path d="M99.9502 115.244L95.8555 120.43" stroke="#57544F" stroke-width="0.856816" stroke-miterlimit="10"/>
<path d="M80.3574 112.648L82.7274 119.077L80.3574 112.648Z" fill="#B8C7E5"/>
<path d="M80.3574 112.648L82.7274 119.077" stroke="#57544F" stroke-width="0.856816" stroke-miterlimit="10"/>
<path d="M74.75 115.478L78.8447 120.664L74.75 115.478Z" fill="#B8C7E5"/>
<path d="M74.75 115.478L78.8447 120.664" stroke="#57544F" stroke-width="0.856816" stroke-miterlimit="10"/>
<path d="M56.9688 100.53H117.601" stroke="#57544F" stroke-width="0.856816" stroke-miterlimit="10"/>
<path d="M729.748 139.687H756.045V184.973H729.748V139.687Z" fill="white"/>
<path d="M729.748 139.687H756.045V184.973H729.748V139.687Z" stroke="#57544F" stroke-width="0.856816" stroke-miterlimit="10"/>
<path d="M756.045 144.81H729.748" stroke="#57544F" stroke-width="0.856816" stroke-miterlimit="10"/>
<path d="M641.281 154.087C641.32 153.263 641.03 152.457 640.476 151.845C639.922 151.233 639.148 150.866 638.323 150.823C637.499 150.865 636.725 151.233 636.171 151.845C635.617 152.456 635.327 153.263 635.366 154.087V163.612H641.278V154.143V154.087" fill="#F9B399"/>
<path d="M641.281 154.087C641.32 153.263 641.03 152.457 640.476 151.845C639.922 151.233 639.148 150.866 638.323 150.823C637.499 150.865 636.725 151.233 636.171 151.845C635.617 152.456 635.327 153.263 635.366 154.087V163.612H641.278V154.143C641.279 154.125 641.281 154.106 641.281 154.087Z" stroke="#57544F" stroke-width="0.856816" stroke-miterlimit="10"/>
<path d="M654.627 154.087C654.665 153.263 654.375 152.456 653.821 151.845C653.267 151.233 652.493 150.866 651.668 150.823C650.844 150.865 650.07 151.233 649.516 151.845C648.961 152.456 648.672 153.263 648.71 154.087V163.612H654.623V154.143V154.087" fill="#F9B399"/>
<path d="M654.627 154.087C654.665 153.263 654.375 152.456 653.821 151.845C653.267 151.233 652.493 150.866 651.668 150.823C650.844 150.865 650.07 151.233 649.516 151.845C648.961 152.456 648.672 153.263 648.71 154.087V163.612H654.623V154.143C654.627 154.125 654.627 154.106 654.627 154.087V154.087Z" stroke="#57544F" stroke-width="0.856816" stroke-miterlimit="10"/>
<path d="M627.931 154.087C627.969 153.263 627.68 152.457 627.125 151.845C626.571 151.233 625.797 150.866 624.973 150.823C624.148 150.865 623.374 151.233 622.82 151.845C622.266 152.456 621.976 153.263 622.015 154.087V163.612H627.927V154.143V154.087" fill="white"/>
<path d="M627.931 154.087C627.969 153.263 627.68 152.457 627.125 151.845C626.571 151.233 625.797 150.866 624.973 150.823C624.148 150.865 623.374 151.233 622.82 151.845C622.266 152.456 621.976 153.263 622.015 154.087V163.612H627.927V154.143C627.928 154.125 627.931 154.106 627.931 154.087Z" stroke="#57544F" stroke-width="0.856816" stroke-miterlimit="10"/>
<path d="M641.281 171.164C641.32 170.339 641.03 169.533 640.476 168.921C639.922 168.309 639.148 167.941 638.323 167.898C637.499 167.941 636.725 168.309 636.171 168.921C635.617 169.532 635.327 170.339 635.366 171.164V180.686H641.278V171.218V171.163" fill="#F9B399"/>
<path d="M641.281 171.164C641.32 170.339 641.03 169.533 640.476 168.921C639.922 168.309 639.148 167.941 638.323 167.898C637.499 167.941 636.725 168.309 636.171 168.921C635.617 169.532 635.327 170.339 635.366 171.164V180.686H641.278V171.218C641.279 171.2 641.281 171.182 641.281 171.164V171.164Z" stroke="#57544F" stroke-width="0.856816" stroke-miterlimit="10"/>
<path d="M654.627 171.164C654.665 170.339 654.376 169.532 653.821 168.92C653.267 168.309 652.493 167.941 651.668 167.898C650.844 167.941 650.07 168.309 649.515 168.921C648.961 169.532 648.672 170.339 648.71 171.164V180.686H654.623V171.218V171.163" fill="#F9B399"/>
<path d="M654.627 171.164C654.665 170.339 654.376 169.532 653.821 168.92C653.267 168.309 652.493 167.941 651.668 167.898C650.844 167.941 650.07 168.309 649.515 168.921C648.961 169.532 648.672 170.339 648.71 171.164V180.686H654.623V171.218C654.627 171.2 654.627 171.182 654.627 171.164V171.164Z" stroke="#57544F" stroke-width="0.856816" stroke-miterlimit="10"/>
<path d="M627.931 171.164C627.969 170.339 627.68 169.533 627.125 168.921C626.571 168.309 625.797 167.941 624.973 167.898C624.148 167.941 623.374 168.309 622.82 168.921C622.266 169.532 621.976 170.339 622.015 171.164V180.686H627.927V171.218V171.163" fill="#F9B399"/>
<path d="M627.931 171.164C627.969 170.339 627.68 169.533 627.125 168.921C626.571 168.309 625.797 167.941 624.973 167.898C624.148 167.941 623.374 168.309 622.82 168.921C622.266 169.532 621.976 170.339 622.015 171.164V180.686H627.927V171.218C627.928 171.2 627.931 171.182 627.931 171.164V171.164Z" stroke="#57544F" stroke-width="0.856816" stroke-miterlimit="10"/>
<path d="M733.18 153.199H736.402V163.653H733.18V153.199Z" fill="#F9B399"/>
<path d="M733.18 153.199H736.402V163.653H733.18V153.199Z" stroke="#57544F" stroke-width="0.856816" stroke-miterlimit="10"/>
<path d="M741.359 153.199H744.582V163.653H741.359V153.199Z" fill="#F9B399"/>
<path d="M741.359 153.199H744.582V163.653H741.359V153.199Z" stroke="#57544F" stroke-width="0.856816" stroke-miterlimit="10"/>
<path d="M749.538 153.199H752.761V163.653H749.538V153.199Z" fill="#F9B399"/>
<path d="M749.538 153.199H752.761V163.653H749.538V153.199Z" stroke="#57544F" stroke-width="0.856816" stroke-miterlimit="10"/>
<path d="M740.574 134.459H743.797V139.685H740.574V134.459Z" fill="white"/>
<path d="M740.574 134.459H743.797V139.685H740.574V134.459Z" stroke="#57544F" stroke-width="0.856816" stroke-miterlimit="10"/>
<path d="M682.408 134.459H685.631V139.685H682.408V134.459Z" fill="white"/>
<path d="M682.408 134.459H685.631V139.685H682.408V134.459Z" stroke="#57544F" stroke-width="0.856816" stroke-miterlimit="10"/>
<path d="M733.18 168.406H736.402V178.86H733.18V168.406Z" fill="#F9B399"/>
<path d="M733.18 168.406H736.402V178.86H733.18V168.406Z" stroke="#57544F" stroke-width="0.856816" stroke-miterlimit="10"/>
<path d="M741.359 168.406H744.582V178.86H741.359V168.406Z" fill="#F9B399"/>
<path d="M741.359 168.406H744.582V178.86H741.359V168.406Z" stroke="#57544F" stroke-width="0.856816" stroke-miterlimit="10"/>
<path d="M749.538 168.406H752.761V178.86H749.538V168.406Z" fill="#F9B399"/>
<path d="M749.538 168.406H752.761V178.86H749.538V168.406Z" stroke="#57544F" stroke-width="0.856816" stroke-miterlimit="10"/>
<path d="M546.217 139.687H588.046V184.973H546.217V139.687Z" fill="white"/>
<path d="M546.217 139.687H588.046V184.973H546.217V139.687Z" stroke="#57544F" stroke-width="0.856816" stroke-miterlimit="10"/>
<path d="M588.046 147.95H546.217" stroke="#57544F" stroke-width="0.856816" stroke-miterlimit="10"/>
<path d="M558.243 174.145C558.243 172.093 556.918 170.431 555.285 170.431C553.652 170.431 552.326 172.092 552.326 174.145V184.976H558.238V174.207V174.144" fill="#F9B399"/>
<path d="M558.243 174.145C558.243 172.093 556.918 170.431 555.285 170.431C553.652 170.431 552.326 172.092 552.326 174.145V184.976H558.238V174.207C558.237 174.186 558.243 174.165 558.243 174.145V174.145Z" stroke="#57544F" stroke-width="0.856816" stroke-miterlimit="10"/>
<path d="M570.106 174.145C570.106 172.093 568.781 170.431 567.148 170.431C565.515 170.431 564.189 172.092 564.189 174.145V184.976H570.101V174.207V174.144" fill="#F9B399"/>
<path d="M570.106 174.145C570.106 172.093 568.781 170.431 567.148 170.431C565.515 170.431 564.189 172.092 564.189 174.145V184.976H570.101V174.207C570.103 174.186 570.106 174.165 570.106 174.145V174.145Z" stroke="#57544F" stroke-width="0.856816" stroke-miterlimit="10"/>
<path d="M581.969 174.145C581.969 172.093 580.644 170.431 579.01 170.431C577.377 170.431 576.053 172.092 576.053 174.145V184.976H581.965V174.207V174.144" fill="#F9B399"/>
<path d="M581.969 174.145C581.969 172.093 580.644 170.431 579.01 170.431C577.377 170.431 576.053 172.092 576.053 174.145V184.976H581.965V174.207C581.966 174.186 581.969 174.165 581.969 174.145V174.145Z" stroke="#57544F" stroke-width="0.856816" stroke-miterlimit="10"/>
<path d="M551.498 154.439H554.721V161.752H551.498V154.439Z" fill="#F9B399"/>
<path d="M551.498 154.439H554.721V161.752H551.498V154.439Z" stroke="#57544F" stroke-width="0.856816" stroke-miterlimit="10"/>
<path d="M560.668 154.439H563.89V161.752H560.668V154.439Z" fill="#F9B399"/>
<path d="M560.668 154.439H563.89V161.752H560.668V154.439Z" stroke="#57544F" stroke-width="0.856816" stroke-miterlimit="10"/>
<path d="M569.84 154.439H573.062V161.752H569.84V154.439Z" fill="#F9B399"/>
<path d="M569.84 154.439H573.062V161.752H569.84V154.439Z" stroke="#57544F" stroke-width="0.856816" stroke-miterlimit="10"/>
<path d="M579.01 154.439H582.232V161.752H579.01V154.439Z" fill="#F9B399"/>
<path d="M579.01 154.439H582.232V161.752H579.01V154.439Z" stroke="#57544F" stroke-width="0.856816" stroke-miterlimit="10"/>
<path d="M336.85 133.116H340.072V140.429H336.85V133.116Z" fill="white"/>
<path d="M336.85 133.116H340.072V140.429H336.85V133.116Z" stroke="#57544F" stroke-width="0.856816" stroke-miterlimit="10"/>
<path d="M346.021 133.116H349.243V140.429H346.021V133.116Z" fill="white"/>
<path d="M346.021 133.116H349.243V140.429H346.021V133.116Z" stroke="#57544F" stroke-width="0.856816" stroke-miterlimit="10"/>
<path d="M355.191 133.116H358.414V140.429H355.191V133.116Z" fill="white"/>
<path d="M355.191 133.116H358.414V140.429H355.191V133.116Z" stroke="#57544F" stroke-width="0.856816" stroke-miterlimit="10"/>
<path d="M364.363 133.116H367.586V140.429H364.363V133.116Z" fill="white"/>
<path d="M364.363 133.116H367.586V140.429H364.363V133.116Z" stroke="#57544F" stroke-width="0.856816" stroke-miterlimit="10"/>
<path d="M336.85 150.968H340.072V158.281H336.85V150.968Z" fill="white"/>
<path d="M336.85 150.968H340.072V158.281H336.85V150.968Z" stroke="#57544F" stroke-width="0.856816" stroke-miterlimit="10"/>
<path d="M346.021 150.968H349.243V158.281H346.021V150.968Z" fill="white"/>
<path d="M346.021 150.968H349.243V158.281H346.021V150.968Z" stroke="#57544F" stroke-width="0.856816" stroke-miterlimit="10"/>
<path d="M355.191 150.968H358.414V158.281H355.191V150.968Z" fill="white"/>
<path d="M355.191 150.968H358.414V158.281H355.191V150.968Z" stroke="#57544F" stroke-width="0.856816" stroke-miterlimit="10"/>
<path d="M364.363 150.968H367.586V158.281H364.363V150.968Z" fill="#F9B399"/>
<path d="M364.363 150.968H367.586V158.281H364.363V150.968Z" stroke="#57544F" stroke-width="0.856816" stroke-miterlimit="10"/>
<path d="M336.85 168.819H340.072V176.132H336.85V168.819Z" fill="white"/>
<path d="M336.85 168.819H340.072V176.132H336.85V168.819Z" stroke="#57544F" stroke-width="0.856816" stroke-miterlimit="10"/>
<path d="M346.021 168.819H349.243V176.132H346.021V168.819Z" fill="white"/>
<path d="M346.021 168.819H349.243V176.132H346.021V168.819Z" stroke="#57544F" stroke-width="0.856816" stroke-miterlimit="10"/>
<path d="M355.191 168.819H358.414V176.132H355.191V168.819Z" fill="white"/>
<path d="M355.191 168.819H358.414V176.132H355.191V168.819Z" stroke="#57544F" stroke-width="0.856816" stroke-miterlimit="10"/>
<path d="M364.363 168.819H367.586V176.132H364.363V168.819Z" fill="#F9B399"/>
<path d="M364.363 168.819H367.586V176.132H364.363V168.819Z" stroke="#57544F" stroke-width="0.856816" stroke-miterlimit="10"/>
<path d="M687.803 144.811V184.973H729.631V142.076H687.803" fill="#F9B399"/>
<path d="M687.803 144.811V184.973H729.631V142.076H687.803" stroke="#57544F" stroke-width="0.856816" stroke-miterlimit="10"/>
<path d="M658.678 144.811H687.796V184.972H658.678V144.811Z" fill="white"/>
<path d="M658.678 144.811H687.796V184.972H658.678V144.811Z" stroke="#57544F" stroke-width="0.856816" stroke-miterlimit="10"/>
<path d="M729.631 147.95H687.803" stroke="#57544F" stroke-width="0.856816" stroke-miterlimit="10"/>
<path d="M699.828 174.145C699.828 172.093 698.503 170.431 696.87 170.431C695.237 170.431 693.912 172.092 693.912 174.145V184.976H699.824V174.207V174.144" fill="#F9B399"/>
<path d="M699.828 174.145C699.828 172.093 698.503 170.431 696.87 170.431C695.237 170.431 693.912 172.092 693.912 174.145V184.976H699.824V174.207C699.825 174.186 699.828 174.165 699.828 174.145Z" stroke="#57544F" stroke-width="0.856816" stroke-miterlimit="10"/>
<path d="M711.692 174.145C711.692 172.093 710.367 170.431 708.734 170.431C707.101 170.431 705.776 172.092 705.776 174.145V184.976H711.688V174.207V174.144" fill="#F9B399"/>
<path d="M711.692 174.145C711.692 172.093 710.367 170.431 708.734 170.431C707.101 170.431 705.776 172.092 705.776 174.145V184.976H711.688V174.207C711.689 174.186 711.692 174.165 711.692 174.145Z" stroke="#57544F" stroke-width="0.856816" stroke-miterlimit="10"/>
<path d="M723.555 174.145C723.555 172.093 722.23 170.431 720.597 170.431C718.964 170.431 717.639 172.092 717.639 174.145V184.976H723.551V174.207V174.144" fill="#F9B399"/>
<path d="M723.555 174.145C723.555 172.093 722.23 170.431 720.597 170.431C718.964 170.431 717.639 172.092 717.639 174.145V184.976H723.551V174.207C723.552 174.186 723.555 174.165 723.555 174.145V174.145Z" stroke="#57544F" stroke-width="0.856816" stroke-miterlimit="10"/>
<path d="M693.084 154.439H696.306V161.752H693.084V154.439Z" fill="#F9B399"/>
<path d="M693.084 154.439H696.306V161.752H693.084V154.439Z" stroke="#57544F" stroke-width="0.856816" stroke-miterlimit="10"/>
<path d="M702.255 154.439H705.477V161.752H702.255V154.439Z" fill="#F9B399"/>
<path d="M702.255 154.439H705.477V161.752H702.255V154.439Z" stroke="#57544F" stroke-width="0.856816" stroke-miterlimit="10"/>
<path d="M711.426 154.439H714.648V161.752H711.426V154.439Z" fill="#F9B399"/>
<path d="M711.426 154.439H714.648V161.752H711.426V154.439Z" stroke="#57544F" stroke-width="0.856816" stroke-miterlimit="10"/>
<path d="M662.455 154.439H665.678V161.752H662.455V154.439Z" fill="#F9B399"/>
<path d="M662.455 154.439H665.678V161.752H662.455V154.439Z" stroke="#57544F" stroke-width="0.856816" stroke-miterlimit="10"/>
<path d="M671.625 154.439H674.847V161.752H671.625V154.439Z" fill="#F9B399"/>
<path d="M671.625 154.439H674.847V161.752H671.625V154.439Z" stroke="#57544F" stroke-width="0.856816" stroke-miterlimit="10"/>
<path d="M680.796 154.439H684.018V161.752H680.796V154.439Z" fill="#F9B399"/>
<path d="M680.796 154.439H684.018V161.752H680.796V154.439Z" stroke="#57544F" stroke-width="0.856816" stroke-miterlimit="10"/>
<path d="M662.455 169.707H665.678V177.02H662.455V169.707Z" fill="#F9B399"/>
<path d="M662.455 169.707H665.678V177.02H662.455V169.707Z" stroke="#57544F" stroke-width="0.856816" stroke-miterlimit="10"/>
<path d="M671.625 169.707H674.847V177.02H671.625V169.707Z" fill="#F9B399"/>
<path d="M671.625 169.707H674.847V177.02H671.625V169.707Z" stroke="#57544F" stroke-width="0.856816" stroke-miterlimit="10"/>
<path d="M680.796 169.707H684.018V177.02H680.796V169.707Z" fill="#F9B399"/>
<path d="M680.796 169.707H684.018V177.02H680.796V169.707Z" stroke="#57544F" stroke-width="0.856816" stroke-miterlimit="10"/>
<path d="M588.037 144.811H617.155V184.972H588.037V144.811Z" fill="white"/>
<path d="M588.037 144.811H617.155V184.972H588.037V144.811Z" stroke="#57544F" stroke-width="0.856816" stroke-miterlimit="10"/>
<path d="M586.055 139.686H619.509V144.809H586.055V139.686Z" fill="white"/>
<path d="M586.055 139.686H619.509V144.809H586.055V139.686Z" stroke="#57544F" stroke-width="0.856816" stroke-miterlimit="10"/>
<path d="M591.814 154.439H595.037V161.752H591.814V154.439Z" fill="#F9B399"/>
<path d="M591.814 154.439H595.037V161.752H591.814V154.439Z" stroke="#57544F" stroke-width="0.856816" stroke-miterlimit="10"/>
<path d="M600.984 154.439H604.207V161.752H600.984V154.439Z" fill="#F9B399"/>
<path d="M600.984 154.439H604.207V161.752H600.984V154.439Z" stroke="#57544F" stroke-width="0.856816" stroke-miterlimit="10"/>
<path d="M610.156 154.439H613.379V161.752H610.156V154.439Z" fill="#F9B399"/>
<path d="M610.156 154.439H613.379V161.752H610.156V154.439Z" stroke="#57544F" stroke-width="0.856816" stroke-miterlimit="10"/>
<path d="M591.814 169.707H595.037V177.02H591.814V169.707Z" fill="#F9B399"/>
<path d="M591.814 169.707H595.037V177.02H591.814V169.707Z" stroke="#57544F" stroke-width="0.856816" stroke-miterlimit="10"/>
<path d="M600.984 169.707H604.207V177.02H600.984V169.707Z" fill="#F9B399"/>
<path d="M600.984 169.707H604.207V177.02H600.984V169.707Z" stroke="#57544F" stroke-width="0.856816" stroke-miterlimit="10"/>
<path d="M610.156 169.707H613.379V177.02H610.156V169.707Z" fill="#F9B399"/>
<path d="M610.156 169.707H613.379V177.02H610.156V169.707Z" stroke="#57544F" stroke-width="0.856816" stroke-miterlimit="10"/>
<path d="M720.596 154.439H723.819V161.752H720.596V154.439Z" fill="#F9B399"/>
<path d="M720.596 154.439H723.819V161.752H720.596V154.439Z" stroke="#57544F" stroke-width="0.856816" stroke-miterlimit="10"/>
<path d="M656.694 139.686H690.149V144.809H656.694V139.686Z" fill="white"/>
<path d="M656.694 139.686H690.149V144.809H656.694V139.686Z" stroke="#57544F" stroke-width="0.856816" stroke-miterlimit="10"/>
<path d="M130.483 129.355H111.973" stroke="#57544F" stroke-width="0.856816" stroke-miterlimit="10"/>
<path d="M62.1005 129.355H43.5898" stroke="#57544F" stroke-width="0.856816" stroke-miterlimit="10"/>
<path d="M62.1005 147.344H43.5898" stroke="#57544F" stroke-width="0.856816" stroke-miterlimit="10"/>
<path d="M49.6621 97.008H56.1336V106.075H49.6621V97.008Z" fill="white"/>
<path d="M49.6621 97.008H56.1336V106.075H49.6621V97.008Z" stroke="#57544F" stroke-width="0.856816" stroke-miterlimit="10"/>
<path d="M117.867 97.008H124.339V106.075H117.867V97.008Z" fill="white"/>
<path d="M117.867 97.008H124.339V106.075H117.867V97.008Z" stroke="#57544F" stroke-width="0.856816" stroke-miterlimit="10"/>
<path d="M21.5527 126.153H36.4622" stroke="#57544F" stroke-width="0.856816" stroke-miterlimit="10"/>
<path d="M24.6924 78.6122H33.3222" stroke="#57544F" stroke-width="0.856816" stroke-miterlimit="10"/>
<path d="M33.3213 47.2844L29.284 14.6749C29.2701 14.5882 29.2255 14.5094 29.1587 14.4525C29.0919 14.3956 29.0072 14.3644 28.9194 14.3644C28.8317 14.3644 28.7467 14.3956 28.6799 14.4525C28.6131 14.5094 28.5688 14.5882 28.5548 14.6749L24.6914 46.2057" fill="white"/>
<path d="M33.3213 47.2844L29.284 14.6749C29.2701 14.5882 29.2255 14.5094 29.1587 14.4525C29.0919 14.3956 29.0072 14.3644 28.9194 14.3644C28.8317 14.3644 28.7467 14.3956 28.6799 14.4525C28.6131 14.5094 28.5688 14.5882 28.5548 14.6749L24.6914 46.2057" stroke="#57544F" stroke-width="0.856816" stroke-miterlimit="10"/>
<path d="M29.0059 0.759277V14.6748" stroke="#57544F" stroke-width="0.856816" stroke-miterlimit="10"/>
<path d="M36.4621 67.8676H33.3218V46.2168H24.692V67.8676H21.5527L24.3939 78.6112H24.692V138.569H33.3218V78.1631L36.4621 67.8676Z" fill="white"/>
<path d="M36.4621 67.8676H33.3218V46.2168H24.692V67.8676H21.5527L24.3939 78.6112H24.692V138.569H33.3218V78.1631L36.4621 67.8676Z" stroke="#57544F" stroke-width="0.856816" stroke-miterlimit="10"/>
<path d="M23.1816 80.8681H34.8335V84.477H23.1816V80.8681Z" fill="#B8C7E5"/>
<path d="M23.1816 80.8681H34.8335V84.477H23.1816V80.8681Z" fill="white" stroke="#57544F" stroke-width="0.856816" stroke-miterlimit="10"/>
<path d="M23.1816 122.544H34.8335V126.153H23.1816V122.544Z" fill="white"/>
<path d="M23.1816 122.544H34.8335V126.153H23.1816V122.544Z" stroke="#57544F" stroke-width="0.856816" stroke-miterlimit="10"/>
<path d="M119.161 94.2319C119.161 94.2319 96.6014 88.3875 55.6953 94.2319H119.161Z" fill="white"/>
<path d="M119.161 94.2319C119.161 94.2319 96.6014 88.3875 55.6953 94.2319" stroke="#57544F" stroke-width="0.856816" stroke-miterlimit="10"/>
<path d="M519.411 172.389C519.432 171.265 519.005 170.179 518.224 169.37C517.444 168.561 516.374 168.094 515.25 168.074C514.127 168.095 513.057 168.561 512.277 169.37C511.497 170.179 511.07 171.265 511.091 172.389V184.973H519.411V172.463V172.389Z" fill="#F9B399"/>
<path d="M519.411 172.389C519.432 171.265 519.005 170.179 518.224 169.37C517.444 168.561 516.374 168.094 515.25 168.074C514.127 168.095 513.057 168.561 512.277 169.37C511.497 170.179 511.07 171.265 511.091 172.389V184.973H519.411V172.463C519.408 172.437 519.411 172.413 519.411 172.389Z" stroke="#57544F" stroke-width="0.856816" stroke-miterlimit="10"/>
<path d="M500.189 164.698H530.314V184.973H500.189V164.698Z" fill="#F9B399"/>
<path d="M500.189 164.698H530.314V184.973H500.189V164.698Z" stroke="#57544F" stroke-width="0.856816" stroke-miterlimit="10"/>
<path d="M502.15 139.686H528.446V161.399H502.15V139.686Z" fill="white"/>
<path d="M502.15 139.686H528.446V161.399H502.15V139.686Z" stroke="#57544F" stroke-width="0.856816" stroke-miterlimit="10"/>
<path d="M504.371 122.138H526.372V139.685H504.371V122.138Z" fill="white"/>
<path d="M504.371 122.138H526.372V139.685H504.371V122.138Z" stroke="#57544F" stroke-width="0.856816" stroke-miterlimit="10"/>
<path d="M504.371 99.5236H526.372V117.627H504.371V99.5236Z" fill="white"/>
<path d="M504.371 99.5236H526.372V117.627H504.371V99.5236Z" stroke="#57544F" stroke-width="0.856816" stroke-miterlimit="10"/>
<path d="M511.092 172.388H519.412V184.974H511.092V172.388Z" fill="#F9B399"/>
<path d="M511.092 172.388H519.412V184.974H511.092V172.388Z" stroke="#57544F" stroke-width="0.856816" stroke-miterlimit="10"/>
<path d="M511.092 176.778H519.412V184.974H511.092V176.778Z" fill="#F9B399"/>
<path d="M511.092 176.778H519.412V184.974H511.092V176.778Z" stroke="#57544F" stroke-width="0.856816" stroke-miterlimit="10"/>
<path d="M511.092 180.876H519.412V184.974H511.092V180.876Z" fill="#F9B399"/>
<path d="M511.092 180.876H519.412V184.974H511.092V180.876Z" stroke="#57544F" stroke-width="0.856816" stroke-miterlimit="10"/>
<path d="M503.977 164.777H507.156V184.973H503.977V164.777Z" fill="#F9B399"/>
<path d="M503.977 164.777H507.156V184.973H503.977V164.777Z" stroke="#57544F" stroke-width="0.856816" stroke-miterlimit="10"/>
<path d="M523.139 164.777H526.318V184.973H523.139V164.777Z" fill="#F9B399"/>
<path d="M523.139 164.777H526.318V184.973H523.139V164.777Z" stroke="#57544F" stroke-width="0.856816" stroke-miterlimit="10"/>
<path d="M523.663 135.223V139.684H518.452V122.138H523.663V135.223Z" fill="#F9B399"/>
<path d="M523.663 135.223V139.684H518.452V122.138H523.663V135.222" stroke="#57544F" stroke-width="0.856816" stroke-miterlimit="10"/>
<path d="M519.41 139.686H523.29V161.446H519.41V139.686Z" fill="#F9B399"/>
<path d="M519.41 139.686H523.29V161.446H519.41V139.686Z" stroke="#57544F" stroke-width="0.856816" stroke-miterlimit="10"/>
<path d="M507.535 122.138H512.433V139.685H507.535V122.138Z" fill="#F9B399"/>
<path d="M507.535 122.138H512.433V139.685H507.535V122.138Z" stroke="#57544F" stroke-width="0.856816" stroke-miterlimit="10"/>
<path d="M507.213 139.686H511.093V161.446H507.213V139.686Z" fill="#F9B399"/>
<path d="M507.213 139.686H511.093V161.446H507.213V139.686Z" stroke="#57544F" stroke-width="0.856816" stroke-miterlimit="10"/>
<path d="M530.345 165.133L536.11 161.399H494.423L500.188 165.133H530.345Z" fill="#F9B399"/>
<path d="M530.345 165.133L536.11 161.399H494.423L500.188 165.133H530.345Z" stroke="#57544F" stroke-width="0.856816" stroke-miterlimit="10"/>
<path d="M511.092 145.827H519.412V161.398H511.092V145.827Z" fill="#F9B399"/>
<path d="M511.092 145.827H519.412V161.398H511.092V145.827Z" stroke="#57544F" stroke-width="0.856816" stroke-miterlimit="10"/>
<path d="M511.092 151.174H519.412V161.399H511.092V151.174Z" fill="#F9B399"/>
<path d="M511.092 151.174H519.412V161.399H511.092V151.174Z" stroke="#57544F" stroke-width="0.856816" stroke-miterlimit="10"/>
<path d="M511.092 156.084H519.412V161.399H511.092V156.084Z" fill="#F9B399"/>
<path d="M511.092 156.084H519.412V161.399H511.092V156.084Z" stroke="#57544F" stroke-width="0.856816" stroke-miterlimit="10"/>
<path d="M521.583 108.919C521.583 109.724 521.425 110.521 521.117 111.264C520.809 112.008 520.357 112.683 519.788 113.252C519.219 113.821 518.544 114.272 517.8 114.58C517.057 114.888 516.26 115.047 515.455 115.047C514.65 115.047 513.854 114.888 513.11 114.58C512.367 114.272 511.691 113.821 511.122 113.252C510.553 112.683 510.102 112.008 509.794 111.264C509.486 110.521 509.327 109.724 509.327 108.919C509.327 107.294 509.973 105.736 511.122 104.586C512.271 103.437 513.83 102.792 515.455 102.792C517.08 102.792 518.639 103.437 519.788 104.586C520.937 105.736 521.583 107.294 521.583 108.919Z" fill="white"/>
<path d="M521.583 108.919C521.583 109.724 521.425 110.521 521.117 111.264C520.809 112.008 520.357 112.683 519.788 113.252C519.219 113.821 518.544 114.272 517.8 114.58C517.057 114.888 516.26 115.047 515.455 115.047C514.65 115.047 513.854 114.888 513.11 114.58C512.367 114.272 511.691 113.821 511.122 113.252C510.553 112.683 510.102 112.008 509.794 111.264C509.486 110.521 509.327 109.724 509.327 108.919C509.327 107.294 509.973 105.736 511.122 104.586C512.271 103.437 513.83 102.792 515.455 102.792C517.08 102.792 518.639 103.437 519.788 104.586C520.937 105.736 521.583 107.294 521.583 108.919V108.919Z" stroke="#57544F" stroke-width="0.856816" stroke-miterlimit="10"/>
<path d="M518.428 108.919C518.428 109.309 518.351 109.695 518.202 110.056C518.052 110.417 517.834 110.745 517.558 111.021C517.282 111.297 516.954 111.515 516.593 111.665C516.233 111.814 515.846 111.891 515.456 111.891C515.065 111.891 514.679 111.814 514.318 111.665C513.957 111.515 513.629 111.297 513.353 111.021C513.077 110.745 512.858 110.417 512.709 110.056C512.559 109.696 512.482 109.309 512.482 108.919C512.482 108.13 512.796 107.374 513.353 106.816C513.911 106.259 514.667 105.945 515.456 105.945C516.244 105.946 517 106.259 517.557 106.817C518.115 107.374 518.428 108.13 518.428 108.919Z" fill="#F9B399"/>
<path d="M518.428 108.919C518.428 109.309 518.351 109.695 518.202 110.056C518.052 110.417 517.834 110.745 517.558 111.021C517.282 111.297 516.954 111.515 516.593 111.665C516.233 111.814 515.846 111.891 515.456 111.891C515.065 111.891 514.679 111.814 514.318 111.665C513.957 111.515 513.629 111.297 513.353 111.021C513.077 110.745 512.858 110.417 512.709 110.056C512.559 109.696 512.482 109.309 512.482 108.919C512.482 108.13 512.796 107.374 513.353 106.816C513.911 106.259 514.667 105.945 515.456 105.945C516.244 105.946 517 106.259 517.557 106.817C518.115 107.374 518.428 108.13 518.428 108.919V108.919Z" stroke="#57544F" stroke-width="0.856816" stroke-miterlimit="10"/>
<path d="M511.09 145.484C511.09 144.938 511.198 144.397 511.407 143.892C511.616 143.387 511.922 142.929 512.309 142.542C512.695 142.156 513.154 141.85 513.658 141.641C514.163 141.432 514.704 141.324 515.251 141.324C516.354 141.324 517.412 141.762 518.192 142.543C518.972 143.323 519.41 144.381 519.41 145.484" fill="#F9B399"/>
<path d="M511.09 145.484C511.09 144.938 511.198 144.397 511.407 143.892C511.616 143.387 511.922 142.929 512.309 142.542C512.695 142.156 513.154 141.85 513.658 141.641C514.163 141.432 514.704 141.324 515.251 141.324C516.354 141.324 517.412 141.762 518.192 142.543C518.972 143.323 519.41 144.381 519.41 145.484" stroke="#57544F" stroke-width="0.856816" stroke-miterlimit="10"/>
<path d="M515.296 145.98V161.399" stroke="#57544F" stroke-width="0.856816" stroke-miterlimit="10"/>
<path d="M512.432 126.867H518.453V139.684H512.432V126.867Z" fill="#F9B399"/>
<path d="M512.432 126.867H518.453V139.684H512.432V126.867Z" stroke="#57544F" stroke-width="0.856816" stroke-miterlimit="10"/>
<path d="M512.432 132.83H518.453V139.685H512.432V132.83Z" fill="#F9B399"/>
<path d="M512.432 132.83H518.453V139.685H512.432V132.83Z" stroke="#57544F" stroke-width="0.856816" stroke-miterlimit="10"/>
<path d="M515.475 126.867V139.684" stroke="#57544F" stroke-width="0.856816" stroke-miterlimit="10"/>
<path d="M515.296 172.388V184.974" stroke="#57544F" stroke-width="0.856816" stroke-miterlimit="10"/>
<path d="M529.852 99.5236H500.742" stroke="#57544F" stroke-width="0.856816" stroke-miterlimit="10"/>
<path d="M504.509 99.5235H526.534C526.535 97.9446 526.196 96.384 525.54 94.948C524.884 93.512 523.925 92.2344 522.731 91.2022C523.329 91.0597 523.86 90.7129 524.231 90.2215C524.601 89.7301 524.789 89.1249 524.761 88.5101C524.801 87.8294 524.57 87.1607 524.119 86.6496C523.667 86.1386 523.032 85.8267 522.352 85.782H508.692C508.011 85.8269 507.377 86.1389 506.925 86.6499C506.474 87.1608 506.243 87.8295 506.282 88.5101C506.255 89.1251 506.443 89.7303 506.814 90.2217C507.184 90.7131 507.715 91.0598 508.314 91.2022C507.119 92.2342 506.16 93.5118 505.504 94.9479C504.847 96.3839 504.508 97.9446 504.51 99.5235" fill="white"/>
<path d="M504.509 99.5235H526.534C526.535 97.9446 526.196 96.384 525.54 94.948C524.884 93.512 523.925 92.2344 522.731 91.2022C523.329 91.0597 523.86 90.7129 524.231 90.2215C524.601 89.7301 524.789 89.1249 524.761 88.5101C524.801 87.8294 524.57 87.1607 524.119 86.6496C523.667 86.1386 523.032 85.8267 522.352 85.782H508.692C508.011 85.8269 507.377 86.1389 506.925 86.6499C506.474 87.1608 506.243 87.8295 506.282 88.5101C506.255 89.1251 506.443 89.7303 506.814 90.2217C507.184 90.7131 507.715 91.0598 508.314 91.2022C507.119 92.2341 506.16 93.5117 505.503 94.9477C504.847 96.3837 504.508 97.9445 504.509 99.5235V99.5235Z" stroke="#57544F" stroke-width="0.856816" stroke-miterlimit="10"/>
<path d="M522.117 79.7372H508.682V85.782H522.117V79.7372Z" fill="white"/>
<path d="M522.117 79.7372H508.682V85.782H522.117V79.7372Z" stroke="#57544F" stroke-width="0.856816" stroke-miterlimit="10"/>
<path d="M521.258 79.7362C521.258 79.7362 520.848 73.0531 515.7 71.127C515.7 71.127 510.531 71.384 509.711 79.7362" fill="white"/>
<path d="M521.258 79.7362C521.258 79.7362 520.848 73.0531 515.7 71.127C515.7 71.127 510.531 71.384 509.711 79.7362" stroke="#57544F" stroke-width="0.856816" stroke-miterlimit="10"/>
<path d="M515.483 71.1261V58.4375C515.483 58.4375 521.012 54.2391 524.247 58.4375V63.8492C524.247 63.8492 519.158 60.3602 515.67 63.8492" fill="white"/>
<path d="M507.031 99.2991C507.031 97.0267 507.934 94.8473 509.541 93.2405C511.148 91.6337 513.327 90.7309 515.599 90.7309C516.725 90.7304 517.84 90.9516 518.88 91.3819C519.92 91.8122 520.865 92.4433 521.661 93.239C522.457 94.0347 523.088 94.9794 523.519 96.0192C523.95 97.0591 524.172 98.1735 524.172 99.2991" fill="white"/>
<path d="M507.031 99.2991C507.031 97.0267 507.934 94.8473 509.541 93.2405C511.148 91.6337 513.327 90.7309 515.599 90.7309C516.725 90.7304 517.84 90.9516 518.88 91.3819C519.92 91.8122 520.865 92.4433 521.661 93.239C522.457 94.0347 523.088 94.9794 523.519 96.0192C523.95 97.0591 524.172 98.1735 524.172 99.2991" stroke="#57544F" stroke-width="0.856816" stroke-miterlimit="10"/>
<path d="M510.431 99.2991C510.431 97.9232 510.977 96.6036 511.95 95.6307C512.923 94.6577 514.243 94.1111 515.619 94.1111C516.3 94.1109 516.975 94.245 517.605 94.5056C518.234 94.7662 518.806 95.1483 519.288 95.6301C519.77 96.1119 520.152 96.6839 520.413 97.3135C520.674 97.943 520.808 98.6177 520.808 99.2991" fill="white"/>
<path d="M510.431 99.2991C510.431 97.9232 510.977 96.6036 511.95 95.6307C512.923 94.6577 514.243 94.1111 515.619 94.1111C516.3 94.1109 516.975 94.245 517.605 94.5056C518.234 94.7662 518.806 95.1483 519.288 95.6301C519.77 96.1119 520.152 96.6839 520.413 97.3135C520.674 97.943 520.808 98.6177 520.808 99.2991" stroke="#57544F" stroke-width="0.856816" stroke-miterlimit="10"/>
<path d="M500.742 117.629H529.852V122.138H500.742V117.629Z" fill="white"/>
<path d="M500.742 117.629H529.852V122.138H500.742V117.629Z" stroke="#57544F" stroke-width="0.856816" stroke-miterlimit="10"/>
<path d="M523.662 99.5245V117.628" stroke="#57544F" stroke-width="0.856816" stroke-miterlimit="10"/>
<path d="M507.198 99.5245V117.628" stroke="#57544F" stroke-width="0.856816" stroke-miterlimit="10"/>
<path fill-rule="evenodd" clip-rule="evenodd" d="M486.357 146.831C486.6 145.897 486.722 144.936 486.721 143.971C486.722 142.168 486.293 140.392 485.469 138.788C484.644 137.185 483.449 135.802 481.982 134.754C482.873 133.439 483.349 131.887 483.346 130.299C483.346 128.187 482.508 126.162 481.015 124.669C479.522 123.176 477.496 122.337 475.385 122.337C473.273 122.337 471.248 123.176 469.755 124.669C468.262 126.162 467.423 128.187 467.422 130.299C467.42 131.887 467.896 133.439 468.787 134.754C467.32 135.802 466.125 137.185 465.3 138.788C464.476 140.392 464.047 142.168 464.047 143.971C464.047 144.936 464.169 145.897 464.412 146.831C462.531 149.257 461.512 152.24 461.516 155.309C461.516 158.987 462.977 162.515 465.578 165.116C468.179 167.717 471.707 169.178 475.385 169.178C479.063 169.178 482.59 167.717 485.191 165.116C487.792 162.515 489.253 158.987 489.253 155.309C489.257 152.24 488.238 149.257 486.357 146.831Z" fill="white"/>
<path d="M486.357 146.831C486.6 145.897 486.722 144.936 486.721 143.971C486.722 142.168 486.293 140.392 485.469 138.788C484.644 137.185 483.449 135.802 481.982 134.754C482.873 133.439 483.349 131.887 483.346 130.299C483.346 128.187 482.508 126.162 481.015 124.669C479.522 123.176 477.496 122.337 475.385 122.337C473.273 122.337 471.248 123.176 469.755 124.669C468.262 126.162 467.423 128.187 467.422 130.299C467.42 131.887 467.896 133.439 468.787 134.754C467.32 135.802 466.125 137.185 465.3 138.788C464.476 140.392 464.047 142.168 464.047 143.971C464.047 144.936 464.169 145.897 464.412 146.831C462.531 149.257 461.512 152.24 461.516 155.309C461.516 158.987 462.977 162.515 465.578 165.116C468.179 167.717 471.707 169.178 475.385 169.178C479.063 169.178 482.59 167.717 485.191 165.116C487.792 162.515 489.253 158.987 489.253 155.309C489.257 152.24 488.238 149.257 486.357 146.831V146.831Z" stroke="#57544F" stroke-width="0.856816" stroke-miterlimit="10"/>
<path fill-rule="evenodd" clip-rule="evenodd" d="M469.553 152.124L475.385 160.001L480.643 152.124" fill="white"/>
<path d="M469.553 152.124L475.385 160.001L480.643 152.124" stroke="#57544F" stroke-width="0.856816" stroke-miterlimit="10"/>
<path fill-rule="evenodd" clip-rule="evenodd" d="M471.256 142.423L475.376 146.753L479.091 142.423" fill="#F9B399"/>
<path d="M471.256 142.423L475.376 146.753L479.091 142.423" stroke="#57544F" stroke-width="0.856816" stroke-miterlimit="10"/>
<path d="M475.385 139.908V184.596" stroke="#57544F" stroke-width="0.856816" stroke-miterlimit="10"/>
<path fill-rule="evenodd" clip-rule="evenodd" d="M229.516 152.4C229.722 151.61 229.826 150.796 229.825 149.98C229.825 148.455 229.462 146.951 228.764 145.595C228.066 144.239 227.055 143.069 225.813 142.183C226.567 141.07 226.969 139.757 226.967 138.413C226.967 136.626 226.257 134.911 224.994 133.648C223.73 132.384 222.016 131.674 220.229 131.674C218.441 131.674 216.727 132.384 215.463 133.648C214.2 134.911 213.49 136.626 213.49 138.413C213.489 139.757 213.891 141.07 214.644 142.183C213.403 143.069 212.391 144.239 211.694 145.595C210.996 146.952 210.633 148.455 210.633 149.98C210.633 150.796 210.736 151.61 210.941 152.4C209.349 154.453 208.487 156.978 208.49 159.576C208.49 161.118 208.794 162.644 209.384 164.068C209.974 165.492 210.838 166.786 211.928 167.876C213.018 168.966 214.312 169.831 215.736 170.421C217.161 171.011 218.687 171.314 220.229 171.314C221.77 171.314 223.297 171.011 224.721 170.421C226.145 169.831 227.439 168.966 228.529 167.876C229.619 166.786 230.484 165.492 231.073 164.068C231.663 162.644 231.967 161.118 231.967 159.576C231.97 156.978 231.107 154.453 229.516 152.4" fill="white"/>
<path d="M229.516 152.4C229.722 151.61 229.826 150.796 229.825 149.98C229.825 148.455 229.462 146.951 228.764 145.595C228.066 144.239 227.055 143.069 225.813 142.183C226.567 141.07 226.969 139.757 226.967 138.413C226.967 136.626 226.257 134.911 224.994 133.648C223.73 132.384 222.016 131.674 220.229 131.674C218.441 131.674 216.727 132.384 215.463 133.648C214.2 134.911 213.49 136.626 213.49 138.413C213.489 139.757 213.891 141.07 214.644 142.183C213.403 143.069 212.391 144.239 211.694 145.595C210.996 146.952 210.632 148.455 210.633 149.98C210.633 150.796 210.736 151.61 210.941 152.4C209.349 154.453 208.487 156.978 208.49 159.576C208.49 161.118 208.794 162.644 209.384 164.068C209.974 165.492 210.838 166.786 211.928 167.876C213.018 168.966 214.312 169.831 215.736 170.421C217.161 171.011 218.687 171.314 220.229 171.314C221.77 171.314 223.297 171.011 224.721 170.421C226.145 169.831 227.439 168.966 228.529 167.876C229.619 166.786 230.484 165.492 231.073 164.068C231.663 162.644 231.967 161.118 231.967 159.576C231.97 156.978 231.108 154.454 229.516 152.4V152.4Z" stroke="#57544F" stroke-width="0.856816" stroke-miterlimit="10"/>
<path fill-rule="evenodd" clip-rule="evenodd" d="M215.291 156.878L220.228 163.545L224.679 156.878" fill="white"/>
<path d="M215.291 156.878L220.228 163.545L224.679 156.878" stroke="#57544F" stroke-width="0.856816" stroke-miterlimit="10"/>
<path fill-rule="evenodd" clip-rule="evenodd" d="M216.729 148.669L220.217 152.334L223.362 148.669" fill="white"/>
<path d="M216.729 148.669L220.217 152.334L223.362 148.669" stroke="#57544F" stroke-width="0.856816" stroke-miterlimit="10"/>
<path d="M220.229 147.037V184.862" stroke="#57544F" stroke-width="0.856816" stroke-miterlimit="10"/>
<path fill-rule="evenodd" clip-rule="evenodd" d="M249.976 145.464C250.226 144.504 250.352 143.516 250.351 142.524C250.352 140.67 249.911 138.843 249.063 137.195C248.215 135.547 246.986 134.125 245.478 133.047C246.394 131.695 246.883 130.098 246.88 128.464C246.88 126.293 246.018 124.211 244.483 122.676C242.948 121.141 240.866 120.278 238.694 120.278C236.523 120.278 234.441 121.141 232.906 122.676C231.37 124.211 230.508 126.293 230.508 128.464C230.505 130.098 230.994 131.695 231.91 133.047C230.402 134.125 229.173 135.547 228.326 137.195C227.478 138.843 227.036 140.67 227.037 142.524C227.037 143.516 227.163 144.504 227.412 145.464C225.478 147.958 224.43 151.025 224.434 154.182C224.434 157.963 225.935 161.589 228.609 164.264C231.283 166.938 234.909 168.441 238.69 168.442C242.472 168.442 246.099 166.939 248.773 164.265C251.448 161.591 252.95 157.964 252.95 154.182C252.954 151.025 251.906 147.958 249.972 145.464" fill="white"/>
<path d="M249.976 145.464C250.226 144.504 250.352 143.516 250.351 142.524C250.352 140.67 249.911 138.843 249.063 137.195C248.215 135.547 246.986 134.125 245.478 133.047C246.394 131.695 246.883 130.098 246.88 128.464C246.88 126.293 246.018 124.211 244.483 122.676C242.948 121.141 240.866 120.278 238.694 120.278C236.523 120.278 234.441 121.141 232.906 122.676C231.37 124.211 230.508 126.293 230.508 128.464C230.505 130.098 230.994 131.695 231.91 133.047C230.402 134.125 229.173 135.547 228.326 137.195C227.478 138.843 227.036 140.67 227.037 142.524C227.037 143.516 227.163 144.504 227.412 145.464C225.478 147.958 224.43 151.025 224.434 154.182C224.434 157.963 225.935 161.589 228.609 164.264C231.283 166.938 234.909 168.441 238.69 168.442C242.472 168.442 246.099 166.939 248.773 164.265C251.448 161.591 252.95 157.964 252.95 154.182C252.955 151.026 251.909 147.959 249.976 145.464V145.464Z" stroke="#57544F" stroke-width="0.856816" stroke-miterlimit="10"/>
<path fill-rule="evenodd" clip-rule="evenodd" d="M232.697 150.909L238.695 159.006L244.102 150.909" fill="white"/>
<path d="M232.697 150.909L238.695 159.006L244.102 150.909" stroke="#57544F" stroke-width="0.856816" stroke-miterlimit="10"/>
<path fill-rule="evenodd" clip-rule="evenodd" d="M234.449 140.934L238.686 145.389L242.506 140.934" fill="white"/>
<path d="M234.449 140.934L238.686 145.389L242.506 140.934" stroke="#57544F" stroke-width="0.856816" stroke-miterlimit="10"/>
<path d="M238.694 138.845V184.791" stroke="#57544F" stroke-width="0.856816" stroke-miterlimit="10"/>
<path d="M186.229 149.995C186.229 148.373 186.548 146.766 187.169 145.267C187.79 143.768 188.7 142.406 189.847 141.259C190.995 140.112 192.357 139.202 193.856 138.581C195.355 137.96 196.961 137.641 198.584 137.641C200.206 137.641 201.813 137.96 203.312 138.581C204.811 139.202 206.173 140.112 207.32 141.259C208.467 142.406 209.377 143.768 209.998 145.267C210.619 146.766 210.938 148.373 210.938 149.995" fill="white"/>
<path d="M186.229 149.995C186.229 148.373 186.548 146.766 187.169 145.267C187.79 143.768 188.7 142.406 189.847 141.259C190.995 140.112 192.357 139.202 193.856 138.581C195.355 137.96 196.961 137.641 198.584 137.641C200.206 137.641 201.813 137.96 203.312 138.581C204.811 139.202 206.173 140.112 207.32 141.259C208.467 142.406 209.377 143.768 209.998 145.267C210.619 146.766 210.938 148.373 210.938 149.995" stroke="#57544F" stroke-width="0.856816" stroke-miterlimit="10"/>
<path d="M198.582 132.083V137.64" stroke="#57544F" stroke-width="0.856816" stroke-miterlimit="10"/>
<path d="M183.491 150.132H213.674V184.973H183.491V150.132Z" fill="white"/>
<path d="M183.491 150.132H213.674V184.973H183.491V150.132Z" stroke="#57544F" stroke-width="0.856816" stroke-miterlimit="10"/>
<path d="M202.816 164.721C202.816 161.785 200.92 159.409 198.581 159.409C196.242 159.409 194.346 161.789 194.346 164.721V180.227H202.815V164.811V164.721" fill="white"/>
<path d="M202.816 164.721C202.816 161.785 200.92 159.409 198.581 159.409C196.242 159.409 194.346 161.789 194.346 164.721V180.227H202.815V164.811C202.814 164.78 202.816 164.749 202.816 164.721Z" stroke="#57544F" stroke-width="0.856816" stroke-miterlimit="10"/>
<path d="M212.923 159.405C210.584 159.405 208.688 161.785 208.688 164.717V180.223H212.923" fill="white"/>
<path d="M212.923 159.405C210.584 159.405 208.688 161.785 208.688 164.717V180.223H212.923" stroke="#57544F" stroke-width="0.856816" stroke-miterlimit="10"/>
<path d="M184.242 159.405C186.58 159.405 188.477 161.785 188.477 164.717C188.477 164.747 188.477 164.776 188.473 164.807H188.477V180.223H184.242" fill="white"/>
<path d="M184.242 159.405C186.58 159.405 188.477 161.785 188.477 164.717C188.477 164.747 188.477 164.776 188.473 164.807H188.477V180.223H184.242" stroke="#57544F" stroke-width="0.856816" stroke-miterlimit="10"/>
<path d="M216.757 155.262H180.434" stroke="#57544F" stroke-width="0.856816" stroke-miterlimit="10"/>
<path d="M147.221 126.153H162.13" stroke="#57544F" stroke-width="0.856816" stroke-miterlimit="10"/>
<path d="M150.361 78.6122H158.991" stroke="#57544F" stroke-width="0.856816" stroke-miterlimit="10"/>
<path d="M158.991 47.2844L154.954 14.6749C154.94 14.5882 154.896 14.5094 154.829 14.4525C154.762 14.3956 154.677 14.3644 154.589 14.3644C154.502 14.3644 154.417 14.3956 154.35 14.4525C154.283 14.5094 154.239 14.5882 154.225 14.6749L150.361 46.2057" fill="white"/>
<path d="M158.991 47.2844L154.954 14.6749C154.94 14.5882 154.896 14.5094 154.829 14.4525C154.762 14.3956 154.677 14.3644 154.589 14.3644C154.502 14.3644 154.417 14.3956 154.35 14.4525C154.283 14.5094 154.239 14.5882 154.225 14.6749L150.361 46.2057" stroke="#57544F" stroke-width="0.856816" stroke-miterlimit="10"/>
<path d="M154.677 0.759277V14.6748" stroke="#57544F" stroke-width="0.856816" stroke-miterlimit="10"/>
<path d="M162.13 67.8676H158.99V46.2168H150.365V67.8676H147.225L150.067 78.6112H150.365V138.569H158.994V78.1631L162.13 67.8676Z" fill="white"/>
<path d="M162.13 67.8676H158.99V46.2168H150.365V67.8676H147.225L150.067 78.6112H150.365V138.569H158.994V78.1631L162.13 67.8676Z" stroke="#57544F" stroke-width="0.856816" stroke-miterlimit="10"/>
<path d="M148.85 80.8681H160.501V84.477H148.85V80.8681Z" fill="white"/>
<path d="M148.85 80.8681H160.501V84.477H148.85V80.8681Z" stroke="#57544F" stroke-width="0.856816" stroke-miterlimit="10"/>
<path d="M148.85 122.544H160.501V126.153H148.85V122.544Z" fill="white"/>
<path d="M148.85 122.544H160.501V126.153H148.85V122.544Z" stroke="#57544F" stroke-width="0.856816" stroke-miterlimit="10"/>
<path d="M127.92 144.563H173.288V184.973H127.92V144.563Z" fill="white"/>
<path d="M127.92 144.563H173.288V184.973H127.92V144.563Z" stroke="#57544F" stroke-width="0.856816" stroke-miterlimit="10"/>
<path d="M131.252 150.23H136.466V161.528H131.252V150.23Z" fill="white"/>
<path d="M131.252 150.23H136.466V161.528H131.252V150.23Z" stroke="#57544F" stroke-width="0.856816" stroke-miterlimit="10"/>
<path d="M142.416 150.23H147.63V161.528H142.416V150.23Z" fill="white"/>
<path d="M142.416 150.23H147.63V161.528H142.416V150.23Z" stroke="#57544F" stroke-width="0.856816" stroke-miterlimit="10"/>
<path d="M153.58 150.23H158.794V161.528H153.58V150.23Z" fill="white"/>
<path d="M153.58 150.23H158.794V161.528H153.58V150.23Z" stroke="#57544F" stroke-width="0.856816" stroke-miterlimit="10"/>
<path d="M164.743 150.23H169.957V161.528H164.743V150.23Z" fill="white"/>
<path d="M164.743 150.23H169.957V161.528H164.743V150.23Z" stroke="#57544F" stroke-width="0.856816" stroke-miterlimit="10"/>
<path d="M131.252 170.065H136.466V175.713H131.252V170.065Z" fill="white"/>
<path d="M131.252 170.065H136.466V175.713H131.252V170.065Z" stroke="#57544F" stroke-width="0.856816" stroke-miterlimit="10"/>
<path d="M142.416 170.065H147.63V181.362H142.416V170.065Z" fill="white"/>
<path d="M142.416 170.065H147.63V181.362H142.416V170.065Z" stroke="#57544F" stroke-width="0.856816" stroke-miterlimit="10"/>
<path d="M153.58 170.065H158.794V181.362H153.58V170.065Z" fill="white"/>
<path d="M153.58 170.065H158.794V181.362H153.58V170.065Z" stroke="#57544F" stroke-width="0.856816" stroke-miterlimit="10"/>
<path d="M164.743 170.065H169.957V175.713H164.743V170.065Z" fill="white"/>
<path d="M164.743 170.065H169.957V175.713H164.743V170.065Z" stroke="#57544F" stroke-width="0.856816" stroke-miterlimit="10"/>
<path d="M173.289 165.796H127.921" stroke="#57544F" stroke-width="0.856816" stroke-miterlimit="10"/>
<path d="M130.483 147.344H111.973" stroke="#57544F" stroke-width="0.856816" stroke-miterlimit="10"/>
<path d="M691.363 100.468H709.941V119.726H691.363V100.468Z" fill="#F9B399"/>
<path d="M691.363 100.468H709.941V119.726H691.363V100.468Z" stroke="#57544F" stroke-width="0.856816" stroke-miterlimit="10"/>
<path d="M676.074 122.156C690.949 115.554 722.577 113.883 725.17 113.624V122.156" fill="white"/>
<path d="M676.074 122.156C690.949 115.554 722.577 113.883 725.17 113.624V122.156" stroke="#57544F" stroke-width="0.856816" stroke-miterlimit="10"/>
<path d="M687.645 127.477C688.421 127.037 694.57 124.366 704.998 123.986L687.645 127.477Z" fill="#F9B399"/>
<path d="M687.645 127.477C688.421 127.037 694.57 124.366 704.998 123.986" stroke="#57544F" stroke-width="0.856816" stroke-miterlimit="10"/>
<path d="M638.032 130.536V110.976H651.674V126.6" fill="#F9B399"/>
<path d="M638.032 130.536V110.976H651.674V126.6" stroke="#57544F" stroke-width="0.856816" stroke-miterlimit="10"/>
<path d="M566.24 124.829V105.266H579.882V120.656" fill="#F9B399"/>
<path d="M566.24 124.829V105.266H579.882V120.656" stroke="#57544F" stroke-width="0.856816" stroke-miterlimit="10"/>
<path d="M610.359 112.431V92.8695H624.002V108.26" fill="white"/>
<path d="M610.359 112.431V92.8695H624.002V108.26" stroke="#57544F" stroke-width="0.856816" stroke-miterlimit="10"/>
<path d="M554.717 130.911C554.717 130.911 571.813 120.511 589.663 119.025L554.717 130.911Z" fill="white"/>
<path d="M554.717 130.911C554.717 130.911 571.813 120.511 589.663 119.025" stroke="#57544F" stroke-width="0.856816" stroke-miterlimit="10"/>
<path d="M658.684 125.351C649.171 126.625 639.956 129.563 631.462 134.031L658.684 125.351Z" fill="#F9B399"/>
<path d="M658.684 125.351C649.171 126.625 639.956 129.563 631.462 134.031" stroke="#57544F" stroke-width="0.856816" stroke-miterlimit="10"/>
<path d="M321.266 110.703V91.1414H334.909V106.765" fill="white"/>
<path d="M321.266 110.703V91.1414H334.909V106.765" stroke="#57544F" stroke-width="0.856816" stroke-miterlimit="10"/>
<path d="M341.917 105.515C332.404 106.789 323.19 109.728 314.695 114.196L341.917 105.515Z" fill="white"/>
<path d="M341.917 105.515C332.404 106.789 323.19 109.728 314.695 114.196" stroke="#57544F" stroke-width="0.856816" stroke-miterlimit="10"/>
<path d="M323.459 123.727H379.487L352.216 111.331L323.459 123.727Z" fill="white"/>
<path d="M323.459 123.727H379.487L352.216 111.331L323.459 123.727Z" stroke="#57544F" stroke-width="0.856816" stroke-miterlimit="10"/>
<path d="M362.621 146.392H401.792V186.454H362.621V146.392Z" fill="white"/>
<path d="M362.621 146.392H401.792V186.454H362.621V146.392Z" stroke="#57544F" stroke-width="0.856816" stroke-miterlimit="10"/>
<path d="M616.926 148.025H658.575" stroke="#57544F" stroke-width="0.856816" stroke-miterlimit="10"/>
<path d="M372.293 155.678H375.515V166.132H372.293V155.678Z" fill="white"/>
<path d="M372.293 155.678H375.515V166.132H372.293V155.678Z" stroke="#57544F" stroke-width="0.856816" stroke-miterlimit="10"/>
<path d="M380.473 155.678H383.695V166.132H380.473V155.678Z" fill="#F9B399"/>
<path d="M380.473 155.678H383.695V166.132H380.473V155.678Z" stroke="#57544F" stroke-width="0.856816" stroke-miterlimit="10"/>
<path d="M388.652 155.678H391.875V166.132H388.652V155.678Z" fill="white"/>
<path d="M388.652 155.678H391.875V166.132H388.652V155.678Z" stroke="#57544F" stroke-width="0.856816" stroke-miterlimit="10"/>
<path d="M372.293 170.885H375.515V181.339H372.293V170.885Z" fill="#F9B399"/>
<path d="M372.293 170.885H375.515V181.339H372.293V170.885Z" stroke="#57544F" stroke-width="0.856816" stroke-miterlimit="10"/>
<path d="M380.473 170.885H383.695V181.339H380.473V170.885Z" fill="#F9B399"/>
<path d="M380.473 170.885H383.695V181.339H380.473V170.885Z" stroke="#57544F" stroke-width="0.856816" stroke-miterlimit="10"/>
<path d="M388.652 170.885H391.875V181.339H388.652V170.885Z" fill="#F9B399"/>
<path d="M388.652 170.885H391.875V181.339H388.652V170.885Z" stroke="#57544F" stroke-width="0.856816" stroke-miterlimit="10"/>
</svg>
