<svg width="143" height="103" viewBox="0 0 143 103" fill="none" xmlns="http://www.w3.org/2000/svg">
<path d="M50.5806 68.5672C50.1112 68.1555 49.6418 67.7422 49.0926 67.2604C51.0936 67.3466 51.2498 67.0888 50.4011 65.1552C52.3827 65.7224 53.5076 66.8076 54.9779 67.5819C55.1075 67.6512 55.06 67.8751 55.0825 68.0282C55.2259 69.0039 55.2243 69.0039 56.5585 69.4929C56.6479 69.812 56.1229 69.9296 56.0408 70.1826C55.9071 70.5967 55.6712 71.0713 56.362 71.3452C56.9692 71.5861 57.3855 71.2243 57.834 71.0012C58.3662 70.7369 58.677 70.127 59.5949 70.4138C60.7222 70.7667 60.8768 71.4435 59.8083 71.9543C58.5514 72.5529 58.3879 73.5689 57.499 74.3157C56.643 75.0376 56.0118 75.3583 54.7637 74.8378C54.3563 74.6678 53.8441 74.6445 53.2604 74.9329C53.5317 75.4687 54.2234 75.9891 53.9714 76.645C53.171 76.711 52.4181 76.4524 51.5912 76.5354C51.0509 76.5893 50.852 76.3412 50.9623 75.9029C51.1499 75.1617 50.5516 74.7991 49.6136 75.1182C48.6296 75.4526 47.5869 75.712 46.6641 76.1599C43.8064 77.5505 41.0067 76.8955 39.9994 74.6025C39.7039 73.9298 39.6532 73.3465 38.1877 73.6011C37.401 73.7381 37.0829 73.3264 37.2496 72.7865C37.4259 72.2169 37.5459 71.6401 37.6877 71.0785C38.6338 70.8094 38.4083 71.9462 39.3697 71.6465C40.0155 71.4451 40.7837 71.429 41.3046 71.039C41.8933 70.5999 42.6348 70.6974 43.4328 70.6362C44.9716 70.5161 46.7358 70.8062 48.0402 69.9884C48.4517 69.7314 48.7576 69.7508 49.029 69.9755C49.7183 70.5468 50.7771 70.4533 51.654 70.6813C52.0695 70.7901 52.4382 70.6853 52.795 70.5516C53.1621 70.413 53.448 70.239 53.3498 69.92C53.2708 69.6654 52.956 69.5735 52.6379 69.5646C51.6105 69.5332 50.6692 69.4502 50.5806 68.5672C51.2353 68.4149 51.6153 68.079 51.8859 67.6947C51.9213 67.5948 52.0292 67.5456 52.1959 67.5609C52.0373 67.4868 51.9527 67.5231 51.9302 67.6794C51.5026 68.0016 51.1515 68.3594 50.5806 68.5672Z" fill="#FEFEFE"/>
<path d="M79.6775 59.2229C79.634 59.3188 79.5575 59.4139 79.5502 59.5114C79.4641 60.5926 79.4673 60.5902 77.7554 60.4999C77.6081 60.4919 77.4551 60.5354 77.3037 60.5547C77.0348 60.4452 76.8777 60.3275 77.2369 60.1696C76.7433 60.2534 77.1056 60.6353 76.765 60.7731C76.0838 60.4492 76.3544 59.9513 76.2505 59.5219C76.3544 59.4405 76.4542 59.3575 76.5468 59.2705C76.6619 59.1118 76.5355 58.9563 76.5275 58.7975C76.5589 58.6864 76.6249 58.5848 76.7239 58.4938C76.6772 58.2988 76.8165 58.1957 77.0911 58.1586C77.2465 58.2521 77.344 58.2529 77.385 58.1603C77.4269 58.0676 77.3794 57.987 77.2441 57.9178C77.2337 57.6881 77.3866 57.4633 77.6942 57.4303C78.5606 57.336 79.0357 57.8533 79.6155 58.1272C80.1115 58.3609 80.1727 58.8451 79.6742 59.2262L79.5977 59.1528L79.6775 59.2229Z" fill="#C8C8C8"/>
<path d="M46.8595 83.3127C46.6719 82.5739 47.3628 81.9898 46.6606 81.243C48.2856 81.421 49.0255 82.0446 49.7599 82.607C50.1198 82.8825 49.7188 83.3828 49.2647 83.175C48.3814 82.7713 47.8024 83.3031 46.8595 83.3127Z" fill="#FEFEFE"/>
<path d="M24.5823 31.4738C22.1843 32.4874 22.1843 32.4873 21.0635 30.9541C22.1529 31.2619 23.0717 31.4658 24.5823 31.4738Z" fill="#F7F7F7"/>
<path d="M42.6106 46.1194C41.4568 46.3369 40.4156 46.4095 39.2964 45.9712C41.1959 45.4717 41.3376 45.4781 42.6106 46.1194Z" fill="#F8F8F8"/>
<path d="M61.0615 56.0647C61.8128 55.9374 62.3426 55.8327 62.8829 55.761C63.304 55.7062 63.7501 55.7964 63.8282 56.0816C63.9313 56.4627 63.4377 56.4321 63.0367 56.4563C62.3853 56.4965 61.8047 56.3967 61.0615 56.0647Z" fill="#DFDFDF"/>
<path d="M40.8188 78.3409C41.124 77.5747 41.5162 77.2153 42.4285 77.424C42.5774 77.4587 42.7521 77.7052 42.7054 77.8148C42.4196 78.494 41.5121 78.125 40.8188 78.3409Z" fill="#FEFEFE"/>
<path d="M52.5801 52.8614C52.6542 52.7864 52.7428 52.5898 52.8943 52.5657C53.2754 52.5044 53.4341 52.7026 53.4438 52.9258C53.451 53.0942 53.2907 53.2207 53.0288 53.2191C52.7702 53.2183 52.6171 53.1039 52.5801 52.8614Z" fill="#E8E8E9"/>
<path d="M32.9445 46.8953C32.8413 46.9597 32.7253 47.0846 32.6367 47.0774C32.1444 47.0306 32.0244 46.7688 32.0365 46.4949C32.0413 46.3756 32.2604 46.3402 32.4369 46.4014C32.735 46.5045 32.9509 46.6504 32.9445 46.8953Z" fill="#F3F3F3"/>
<path d="M28.7653 63.1877C28.6638 63.1281 28.4785 63.0661 28.4866 63.0185C28.5333 62.7293 28.7952 62.5569 29.2359 62.5537C29.3382 62.5529 29.5267 62.6608 29.5299 62.7237C29.5493 63.0661 29.1053 63.0935 28.7653 63.1877Z" fill="#F3F3F3"/>
<path d="M89.8638 36.7341C89.8686 36.6406 89.9193 36.473 90.2328 36.5149C90.4785 36.548 90.6227 36.7027 90.5881 36.8702C90.572 36.9508 90.4302 37.0725 90.3222 37.0837C90.0378 37.1152 89.8896 36.9911 89.8638 36.7341Z" fill="#F4F5F4"/>
<path d="M62.5916 75.6491C61.5095 75.6661 61.6046 75.2471 61.86 74.7701C62.3764 74.9619 62.6488 75.2447 62.5916 75.6491Z" fill="#E3E3E3"/>
<path d="M3.1078 47.9942C2.70818 48.0289 2.62037 47.8895 2.62842 47.7203C2.63567 47.5592 2.74606 47.4037 3.00388 47.3755C3.28265 47.3448 3.48245 47.4657 3.42525 47.6502C3.38335 47.7847 3.20045 47.8991 3.1078 47.9942Z" fill="#E6E6E6"/>
<path d="M119.35 44.2059C119.151 44.2148 119.015 44.102 118.954 43.9497C118.895 43.7999 118.946 43.6363 119.187 43.6049C119.432 43.5727 119.599 43.7113 119.664 43.8603C119.728 44.0069 119.689 44.1471 119.35 44.2059Z" fill="#EFEFEF"/>
<path d="M44.0122 82.3805C44.1387 82.2242 44.353 82.1614 44.5939 82.1936C44.867 82.2283 44.9629 82.3604 44.7921 82.5175C44.6455 82.6537 44.4062 82.7254 44.1725 82.6448C44.0767 82.6118 44.0622 82.4716 44.0122 82.3805Z" fill="#FEFEFE"/>
<path d="M43.5874 54.5234C43.6116 54.3599 43.7316 54.2197 43.9822 54.2221C44.2521 54.2253 44.323 54.3913 44.2891 54.5404C44.269 54.6274 44.161 54.7563 44.0595 54.7716C43.792 54.8143 43.6494 54.6878 43.5874 54.5234Z" fill="#EAECEA"/>
<path d="M54.0184 13.7634C54.1014 13.8278 54.2537 13.8931 54.2513 13.9567C54.2472 14.1283 54.0571 14.2049 53.8291 14.1356C53.7413 14.1098 53.6647 13.9656 53.6953 13.8971C53.7219 13.8367 53.9048 13.8069 54.0184 13.7634Z" fill="#F1F1F1"/>
<path d="M36.0875 50.0229C35.9924 49.9641 35.8273 49.9093 35.8184 49.8449C35.7918 49.666 35.9812 49.5806 36.2229 49.6322C36.3091 49.6499 36.3953 49.7941 36.3768 49.8682C36.3623 49.9295 36.1906 49.9722 36.0875 50.0229Z" fill="#EEEFEF"/>
<path d="M76.8397 59.5138C76.6431 59.5162 76.4473 59.5194 76.2507 59.5219C75.9027 59.0755 75.8616 58.692 76.7245 58.4938C76.7325 58.6243 76.7406 58.754 76.7486 58.8846C77.0226 59.0787 77.0355 59.2898 76.8397 59.5138Z" fill="#B2B2B2"/>
<path d="M22.9367 45.1591C22.8473 45.0898 22.6846 45.0205 22.6846 44.9512C22.6838 44.7643 22.894 44.6958 23.1285 44.7675C23.222 44.7965 23.3041 44.9456 23.2743 45.0189C23.2486 45.0809 23.056 45.1131 22.9367 45.1591Z" fill="#E9E9E9"/>
<path d="M10.7162 25.9855C10.7653 26.1281 10.5502 26.1918 10.3359 26.2425C10.0217 26.3182 9.94272 26.1579 9.90485 26.0121C9.86215 25.8485 9.98462 25.718 10.2312 25.6818C10.5107 25.6407 10.6275 25.7728 10.7162 25.9855Z" fill="#CECDCD"/>
<path d="M9.38544 57.1282C9.29359 57.0702 9.13326 57.017 9.1252 56.9541C9.10426 56.7801 9.28311 56.6915 9.52401 56.7471C9.61183 56.7664 9.69884 56.9066 9.6795 56.9783C9.66178 57.0379 9.48856 57.079 9.38544 57.1282Z" fill="#F0F0F0"/>
<path d="M45.9406 61.3822C45.8448 61.4539 45.7618 61.5739 45.6514 61.586C45.3211 61.6255 45.2912 61.4474 45.3484 61.3048C45.3734 61.2436 45.5885 61.1792 45.7102 61.1856C45.794 61.1896 45.8641 61.3129 45.9406 61.3822Z" fill="#E0E0E0"/>
<path d="M76.7646 60.7731C76.7727 60.7192 76.7727 60.666 76.7896 60.6136C76.842 60.4412 76.6551 60.2035 77.0547 60.1374C77.0837 60.1326 77.2183 60.4082 77.3037 60.5548C77.2142 60.7264 77.1336 60.9085 76.7646 60.7731Z" fill="#ADADAD"/>
<path d="M133.698 29.8947C133.97 29.9301 134.089 30.0607 134.053 30.2218C134.039 30.2887 133.864 30.3853 133.757 30.3894C133.456 30.3982 133.386 30.2452 133.445 30.0856C133.471 30.0123 133.61 29.9575 133.698 29.8947Z" fill="#C5C5C6"/>
<path d="M89.0655 29.3903C88.8198 29.3122 88.7924 29.1639 88.8504 29.0286C88.8762 28.9673 89.0752 28.8843 89.1558 28.8997C89.4064 28.9496 89.4241 29.1116 89.3604 29.2477C89.3314 29.3106 89.1646 29.3452 89.0655 29.3903Z" fill="#BFBFBF"/>
<path d="M77.2444 57.9178C77.5618 57.987 77.7939 58.1345 77.5369 58.3262C77.3403 58.4729 77.2323 58.2336 77.0913 58.1587C77.1115 58.0692 77.1614 57.9895 77.2444 57.9178Z" fill="#1C1C1C"/>
<path d="M38.5024 75.0158C38.9448 75.2406 38.9424 75.4646 38.5057 75.6894L38.4638 75.6668C38.1995 75.4589 38.1971 75.2503 38.4597 75.0416L38.5024 75.0158Z" fill="#FEFEFE"/>
<path d="M116.953 87.9752C117.646 88.5456 118.109 88.8961 117.507 89.4979C116.882 89.1144 116.596 88.7382 116.953 87.9752Z" fill="#FEFEFE"/>
<path d="M82.0186 82.1509C81.7141 82.1509 81.4095 82.1501 81.105 82.1501C81.2452 81.3267 81.9848 81.5136 82.5036 81.8746C82.846 82.1123 82.2321 82.0825 82.0186 82.1509Z" fill="#FEFEFE"/>
<path d="M38.46 75.0417C38.4608 75.2495 38.4624 75.4582 38.464 75.6669C37.8743 75.4598 37.8235 75.2511 38.46 75.0417Z" fill="#DEDEDE"/>
<path d="M118.388 79.2296L118.576 79.2989L118.493 79.3536L118.388 79.2296Z" fill="#FEFEFE"/>
<path d="M50.5811 68.5672C50.6318 67.9557 51.1165 67.6326 52.0337 67.5979C52.0417 67.6511 52.0634 67.7035 52.057 67.755C52.0143 68.0975 52.7245 68.4624 52.1134 68.7646C51.5852 69.0264 51.0811 68.6904 50.5811 68.5672Z" fill="#FEFEFE"/>
<path d="M53.6064 72.5899C53.6709 72.3023 53.9577 72.1605 54.4 72.1597C54.9157 72.1589 55.3564 72.2588 55.2766 72.6818C55.2154 73.0049 54.8085 73.0588 54.3976 73.0548C53.9561 73.0508 53.662 72.9187 53.6064 72.5899Z" fill="#FEFEFE"/>
<path d="M56.8728 72.9646C56.6101 72.8953 56.5271 72.7519 56.623 72.594C56.7487 72.3853 56.9823 72.2202 57.357 72.2709C57.6317 72.3088 57.7018 72.4772 57.6075 72.6343C57.4819 72.8446 57.253 72.9904 56.8728 72.9646Z" fill="#FEFEFE"/>
<path d="M52.3065 66.9438C52.5264 67.0839 52.4781 67.237 52.3653 67.374C52.292 67.4618 52.147 67.5246 52.0342 67.598C52.0438 67.4384 52.0302 67.2765 52.0737 67.121C52.0922 67.0541 52.2259 67.0018 52.3065 66.9438Z" fill="#FEFEFE"/>
<path d="M50.8083 72.5561C50.7761 72.5166 50.7157 72.4755 50.7205 72.4385C50.7245 72.4022 50.797 72.37 50.8405 72.3361C50.9799 72.4215 50.9694 72.4941 50.8083 72.5561Z" fill="#FEFEFE"/>
<path d="M76.8391 59.5138C76.8085 59.3035 76.7787 59.0941 76.748 58.8846C77.047 58.8515 77.4103 58.8612 77.4893 59.0578C77.6133 59.3704 77.1726 59.4324 76.8391 59.5138Z" fill="#E3E3E3"/>
<path d="M79.6781 59.223C79.4839 59.1328 79.2575 59.0627 79.1029 58.9491C78.9079 58.8056 78.5945 58.6236 79.0432 58.4576C79.0964 58.4375 79.3921 58.6397 79.496 58.7678C79.6056 58.9023 79.6193 59.0715 79.6749 59.2262L79.6781 59.223Z" fill="#BFBFBF"/>
<path d="M90.5753 -7.62939e-06C91.6019 0.659843 106.142 10.3513 107.713 11.6968C109.283 13.0415 133.505 25.9267 133.505 25.9267L131.839 48.6557C131.839 48.6557 61.5016 78.4432 55.0479 84.9821C49.5709 83.2104 40.5107 79.3851 35.3171 74.8048C30.1219 70.2237 10.54 57.2491 8.57774 56.8865C6.61464 56.5248 5.73535 23.2881 5.73535 23.2881C5.73535 23.2881 18.5502 19.6875 22.9418 18.7449C27.3334 17.8014 68.5794 7.01341 69.6197 6.31247C70.6601 5.61153 90.5753 -7.62939e-06 90.5753 -7.62939e-06Z" fill="#92CFA3"/>
<path d="M46.0786 14.6279L66.3876 9.16296C66.3876 9.16296 83.3976 21.6075 86.054 23.6176C88.7111 25.6278 102.834 40.1067 102.834 40.1067L102.585 61.7448L83.2849 69.8088L82.5119 45.4282L46.0786 14.6279Z" fill="white"/>
<path d="M118.97 53.8193C117.142 54.4759 115.336 55.197 113.509 55.8609C112.621 56.184 111.735 56.5175 110.836 56.8132C109.969 57.0968 109.1 57.3764 108.267 57.751C107.411 58.1353 106.639 58.6646 105.827 59.1279C105 59.5992 104.113 59.9714 103.251 60.3703C102.306 60.8061 101.357 61.2323 100.401 61.6408C100.401 60.7868 100.401 59.9328 100.401 59.0788C100.427 59.0683 100.452 59.0618 100.478 59.0481C100.954 58.8016 101.409 58.5156 101.894 58.2884C102.339 58.0805 102.81 58.0072 103.294 57.9435C104.389 57.8001 105.365 57.2354 106.406 56.8857C107.484 56.5248 108.581 56.2323 109.667 55.8987C110.772 55.5587 111.85 55.1422 112.946 54.7724C114.07 54.3929 115.195 54.0102 116.278 53.5228C116.753 53.3085 117.182 53.0225 117.631 52.7631C118.082 52.5036 118.541 52.3626 119.044 52.2402C120.117 51.9783 120.987 51.4401 121.893 50.8294C122.837 50.1929 123.849 49.7401 124.884 49.2769C125.497 49.0029 126.101 48.7105 126.713 48.4357C127.277 48.1836 127.864 47.9829 128.419 47.7114C128.91 47.4705 129.348 47.1402 129.854 46.9275C130.163 46.7978 130.484 46.6955 130.81 46.6141C130.81 46.7317 130.811 46.8485 130.81 46.9654C130.809 47.6059 130.943 48.4293 130.646 49.0231C130.19 49.9375 128.958 50.3726 128.062 50.6965C126.837 51.1388 125.608 51.5787 124.38 52.0097C122.586 52.639 120.76 53.1764 118.97 53.8193ZM103.093 47.4883C104.111 46.9565 105.12 46.4667 106.205 46.0824C107.34 45.6795 108.514 45.3476 109.597 44.8118C110.082 44.5709 110.556 44.3171 111.097 44.2245C111.672 44.1262 112.26 44.1117 112.838 44.0432C113.435 43.9739 114.012 43.87 114.577 43.6621C115.105 43.4687 115.619 43.2399 116.153 43.0611C116.381 42.9853 116.608 42.904 116.825 42.8016C117.075 42.6832 117.3 42.5204 117.556 42.4149C118.054 42.2111 118.584 42.0846 119.027 41.7671C119.394 41.5045 119.684 41.2032 120.115 41.0444C120.64 40.8527 121.148 40.6175 121.631 40.3339C122.65 39.7344 123.652 39.1584 124.731 38.6709C125.94 38.1247 127.176 37.7073 128.422 37.2602C129.027 37.0434 129.6 36.7687 130.182 36.4988C130.679 36.2676 131.192 36.0879 131.746 36.0895C131.746 36.0895 131.747 36.0895 131.749 36.0895C131.567 36.8783 131.287 37.6477 131.173 38.4494C131.162 38.5267 131.154 38.6049 131.146 38.683C130.212 38.7878 129.298 38.9884 128.364 39.1551C127.825 39.2526 127.257 39.2953 126.739 39.4855C126.216 39.6756 125.859 40.0478 125.413 40.358C124.968 40.6682 124.447 40.8374 123.95 41.0412C123.411 41.262 122.878 41.5117 122.385 41.8219C122.15 41.9694 121.882 41.9782 121.61 42.0072C121.288 42.0395 121.024 42.1378 120.738 42.2876C120.265 42.5366 119.84 42.8653 119.423 43.1964C119.043 43.4986 118.673 43.8168 118.274 44.0939C117.844 44.3945 117.389 44.5894 116.915 44.8062C115.883 45.2791 114.937 45.9349 113.861 46.312C112.682 46.7253 111.458 47.0121 110.247 47.3142C109.031 47.618 107.853 47.9983 106.689 48.4664C105.505 48.9433 104.302 49.4082 103.203 50.0664C102.355 50.5724 101.424 51.2427 100.401 51.2564C100.401 50.4274 100.401 49.5975 100.401 48.7669C100.401 48.7161 100.401 48.6646 100.401 48.6138C101.347 48.3858 102.236 47.9362 103.093 47.4883ZM100.394 44.276C101.175 44.2277 101.942 43.9231 102.641 43.6041C103.502 43.2117 104.314 42.717 105.183 42.344C106.263 41.8783 107.335 41.3885 108.43 40.9599C109.553 40.52 110.691 40.1993 111.873 39.964C113.033 39.7336 114.2 39.4911 115.303 39.0512C116.483 38.5807 117.642 38.057 118.815 37.5704C119.947 37.0999 121.069 36.6221 122.18 36.1032C123.233 35.6126 124.291 35.1283 125.401 34.7779C126.033 34.5781 126.68 34.4597 127.29 34.1914C127.864 33.9408 128.391 33.6491 129.004 33.4944C130.139 33.2092 131.215 32.6952 132.363 32.4575C132.324 32.6243 132.284 32.7911 132.247 32.9579C132.101 33.6137 132.035 34.2751 131.947 34.9342C131.886 34.9132 131.82 34.8987 131.746 34.8987C130.605 34.8947 129.671 35.4692 128.658 35.9018C127.551 36.3739 126.376 36.668 125.268 37.1409C124.188 37.6018 123.106 38.082 122.085 38.6645C121.587 38.9489 121.116 39.2768 120.607 39.5402C120.128 39.7892 119.583 39.9165 119.125 40.1993C118.745 40.4337 118.452 40.7753 118.044 40.9655C117.541 41.2007 117.007 41.3297 116.522 41.6133C116.085 41.8711 115.587 41.9879 115.117 42.174C114.607 42.377 114.103 42.601 113.567 42.7283C112.397 43.0047 111.137 42.8459 110.011 43.3068C109.511 43.5106 109.045 43.787 108.548 43.9924C107.975 44.2293 107.382 44.4211 106.795 44.6209C105.522 45.0551 104.279 45.5248 103.086 46.1484C102.215 46.6044 101.342 47.0919 100.399 47.3763C100.399 46.3426 100.396 45.3089 100.394 44.276ZM100.389 41.1282C100.388 40.76 100.408 40.387 100.409 40.0164C100.571 39.9318 100.733 39.8472 100.897 39.765C102.629 38.8933 104.397 38.0916 106.191 37.3577C113.31 34.4467 120.775 32.5341 128.182 30.5255C129.122 30.2701 130.063 30.0139 131.002 29.7545C131.437 29.6328 131.823 29.5329 132.206 29.288C132.366 29.1849 132.521 29.064 132.68 28.952C132.703 29.425 132.722 29.8979 132.709 30.3716C132.701 30.6568 132.668 30.938 132.622 31.2184C132.085 31.299 131.559 31.4182 131.039 31.581C130.473 31.7574 129.934 32.008 129.367 32.1739C128.781 32.3455 128.201 32.4624 127.64 32.7145C127.131 32.9434 126.655 33.2149 126.109 33.3502C123.811 33.919 121.763 35.0655 119.593 35.9751C118.401 36.4746 117.208 36.9718 116.016 37.4761C114.917 37.9418 113.824 38.3277 112.656 38.5879C111.482 38.8482 110.305 39.044 109.162 39.4283C108.02 39.8118 106.918 40.3016 105.815 40.7842C105.269 41.0235 104.71 41.2427 104.172 41.5029C103.69 41.7365 103.219 41.9943 102.741 42.2369C102.018 42.6034 101.218 43.0087 100.392 43.082C100.391 42.431 100.392 41.7792 100.389 41.1282ZM118.138 26.3577C118.138 26.3569 118.138 26.3569 118.139 26.3553C118.167 26.3134 118.166 26.3183 118.158 26.3344C118.157 26.3344 118.149 26.3424 118.138 26.3577ZM100.042 38.4268C99.8102 38.1247 99.4986 37.9088 99.2023 37.6743C98.782 37.3424 98.3866 36.979 98.0081 36.5995C97.9051 36.4956 97.806 36.3876 97.7046 36.2813C98.6749 36.0114 99.5783 35.5312 100.47 35.0663C101.637 34.4588 102.876 34.0383 104.069 33.4864C105.352 32.895 106.621 32.2779 107.907 31.6938C109.096 31.1531 110.246 30.6303 111.541 30.4006C112.18 30.2878 112.822 30.1879 113.45 30.0187C113.752 29.9374 114.047 29.8375 114.336 29.7174C114.435 29.6755 114.534 29.6336 114.632 29.5893C114.635 29.5877 114.635 29.5877 114.637 29.5861C114.646 29.5829 114.654 29.5797 114.669 29.574C115.339 29.3025 116.013 29.035 116.673 28.7321C117.394 28.4001 118.137 28.0319 118.731 27.4937C118.98 27.269 119.2 26.9862 119.287 26.6575C119.331 26.4923 119.337 26.2836 119.29 26.1176C119.179 25.7341 118.631 25.5287 118.315 25.3394C115.778 23.8239 113.203 22.3777 110.631 20.9259C110.003 20.5705 109.354 20.237 108.75 19.8406C108.217 19.4909 107.732 19.0784 107.241 18.6732C106.205 17.8184 104.96 17.343 103.831 16.6316C103.247 16.2618 102.679 15.8654 102.088 15.5052C101.484 15.1362 100.859 14.847 100.206 14.5795C98.9374 14.0615 97.7972 13.2622 96.6377 12.5412C95.4452 11.7999 94.2623 11.0434 93.1205 10.2256C92.0625 9.4691 91.0979 8.46765 89.7805 8.19533C89.1517 8.06562 88.518 8.07287 87.8891 8.19372C87.2449 8.31618 86.6426 8.59898 86.0154 8.78187C84.6868 9.1702 83.3147 9.37727 81.9604 9.6512C80.5947 9.92835 79.2669 10.3449 77.8973 10.6108C77.2096 10.7445 76.522 10.8758 75.8448 11.0619C75.1668 11.2489 74.5001 11.4712 73.8302 11.6847C73.1586 11.899 72.483 12.1005 71.7938 12.2519C71.0466 12.4171 71.3622 13.566 72.1103 13.4008C73.8117 13.0246 75.4245 12.3357 77.1299 11.974C77.9544 11.7999 78.7854 11.6638 79.6051 11.4656C80.4272 11.2666 81.2332 11.0176 82.0626 10.8436C83.7342 10.4947 85.4413 10.27 87.0565 9.69713C87.7554 9.44897 88.4133 9.23143 89.1662 9.2991C89.861 9.36195 90.4585 9.67697 90.9964 10.1048C92.3322 11.1683 93.7478 12.1246 95.1899 13.0383C95.9404 13.5136 96.6973 13.9793 97.4542 14.4442C98.1869 14.8954 98.8947 15.3183 99.6918 15.647C100.452 15.9613 101.164 16.3214 101.858 16.7653C102.558 17.2125 103.238 17.6967 103.966 18.0987C104.653 18.4782 105.382 18.7836 106.031 19.2299C106.708 19.6964 107.297 20.2853 107.977 20.7526C108.787 21.311 109.683 21.7581 110.54 22.2407C111.419 22.7378 112.299 23.2341 113.177 23.7328C114.794 24.6521 116.402 25.5851 117.997 26.5414C117.96 26.5777 117.927 26.6172 117.89 26.651C117.854 26.684 117.816 26.7155 117.778 26.7461C117.767 26.7541 117.699 26.8065 117.68 26.8202C117.208 27.1554 116.685 27.418 116.162 27.6621C115.626 27.9127 115.261 28.0601 114.718 28.2785C114.226 28.4759 113.744 28.699 113.231 28.8433C112.32 29.1003 111.372 29.1792 110.455 29.4121C109.527 29.6481 108.651 30.0478 107.783 30.4466C106.873 30.8663 105.954 31.2651 105.051 31.7018C104.159 32.1328 103.269 32.5784 102.347 32.9466C101.84 33.1488 101.326 33.3277 100.83 33.5581C100.371 33.7708 99.9253 34.0093 99.4777 34.2429C98.6153 34.6917 97.744 35.1058 96.781 35.2718C96.4517 34.902 96.1256 34.5297 95.7898 34.1656C95.4315 33.7772 95.0627 33.397 94.6714 33.0408C94.268 32.6743 93.8267 32.3544 93.4217 31.9919C91.8395 30.5747 90.7146 28.745 89.2483 27.2198C88.4721 26.4125 87.6169 25.6632 86.7819 24.918C86.0967 24.3057 85.372 23.7683 84.6344 23.2365C84.8792 22.9417 84.8607 22.4325 84.413 22.3012C84.2576 21.5035 84.1521 20.693 83.8985 19.9212C83.5949 18.9963 83.0732 18.1656 82.334 17.5275C81.5803 16.8757 80.6648 16.4132 79.6687 16.2924C78.911 16.1997 78.101 16.4946 77.3497 16.3697C77.2829 16.062 76.9077 15.8896 76.6226 15.9677C76.2885 16.0604 76.1492 16.3834 76.2063 16.7001C76.2313 16.8378 76.2595 16.9563 76.303 17.0594C74.9591 16.1458 73.616 15.2305 72.3204 14.2492C71.3509 13.516 70.4346 12.7168 69.4523 12.0005C68.5367 11.3335 67.5608 10.7348 66.6695 10.0339C67.8112 9.78091 68.953 9.52631 70.0924 9.26688C73.4702 8.49666 76.8417 7.6934 80.197 6.82971C81.7607 6.42687 83.2889 6.06915 84.7987 5.47456C86.1458 4.94361 87.4599 4.33695 88.7869 3.75686C91.035 5.7912 93.6971 7.28088 96.3003 8.81892C99.3971 10.6494 102.583 12.3945 105.514 14.4837C106.843 15.4287 108.03 16.5816 109.427 17.4292C110.139 17.8611 110.904 18.1922 111.616 18.6256C112.401 19.1026 113.163 19.619 113.983 20.0348C115.56 20.8348 117.284 21.3231 118.922 21.9797C120.586 22.6468 122.16 23.5209 123.835 24.1655C126.343 25.1291 129.238 25.7076 131.427 27.3374C131.429 27.3487 131.431 27.3608 131.434 27.3737C131.492 27.6178 131.638 27.8789 131.833 28.1036C131.816 28.1149 131.799 28.127 131.78 28.1391C131.239 28.5105 130.605 28.6281 129.978 28.8006C128.807 29.122 127.636 29.4403 126.464 29.7569C124.153 30.3805 121.842 31.0009 119.537 31.6519C115.03 32.9248 110.549 34.3195 106.204 36.0758C104.181 36.8936 102.188 37.7871 100.24 38.7692C100.189 38.6508 100.126 38.5356 100.042 38.4268ZM97.9945 62.6125C97.1128 62.9428 96.219 63.249 95.3147 63.5156C94.4443 63.7718 93.5779 63.9837 92.7413 64.3431C91.8886 64.7088 91.0809 65.1657 90.2347 65.5451C89.3538 65.9399 88.4527 66.2847 87.5734 66.6819C85.8149 67.4739 84.1151 68.4141 82.4048 69.306C82.3718 69.3238 82.3388 69.3407 82.3058 69.3584C82.2993 69.1634 82.2832 68.9709 82.2615 68.7944C82.1641 67.9565 81.9563 67.146 81.7776 66.3234C81.5247 65.1673 81.478 63.9668 81.4635 62.7881C81.4474 61.3766 81.4595 59.965 81.4579 58.5543C81.4547 55.7102 81.4506 52.8662 81.4539 50.0221C81.4547 48.783 81.4788 47.5447 81.4949 46.3063C81.4949 46.2717 81.4933 46.237 81.4925 46.2024C82.3807 45.8688 83.2688 45.5369 84.1602 45.2122C85.0741 44.8795 85.9888 44.5532 86.9092 44.2382C87.9624 43.8772 89.0357 43.6508 90.1187 43.397C92.0287 42.9515 93.9853 42.6018 95.8228 41.9162C96.6876 41.5939 97.5589 41.2886 98.4212 40.9599C98.6902 40.8575 98.951 40.7399 99.2087 40.6183C99.2039 40.8479 99.1991 41.0759 99.2007 41.3047C99.2039 41.95 99.2111 42.5962 99.2111 43.2423C99.2111 44.496 99.2111 45.7496 99.2111 47.004C99.2111 51.5126 99.2111 56.0212 99.2111 60.5298C99.2111 60.9794 99.2111 61.4289 99.2111 61.8785C99.2111 61.9695 99.2288 62.0493 99.2586 62.1186C98.8391 62.2878 98.4188 62.4537 97.9945 62.6125ZM76.9697 17.5122C77.1243 17.546 77.2829 17.5654 77.4391 17.5759C77.9134 17.6073 78.386 17.5211 78.8563 17.48C79.7444 17.4042 80.5585 17.6709 81.2775 18.197C81.9716 18.7054 82.4829 19.4208 82.7511 20.237C82.958 20.867 83.0659 21.5245 83.1835 22.1771C81.5441 20.9355 79.9828 19.5925 78.2918 18.4186C77.853 18.114 77.4117 17.8127 76.9697 17.5122ZM81.0851 45.0882C80.7211 44.6773 80.1591 44.4678 79.68 44.2309C79.1196 43.9554 78.6332 43.6387 78.1888 43.1972C77.9907 43.0006 77.8039 42.7936 77.6243 42.5817C77.5994 42.5438 77.5704 42.5092 77.5365 42.4786C77.3602 42.2659 77.1895 42.0483 77.0204 41.8308C76.6395 41.3385 76.278 40.8334 75.811 40.4184C75.3593 40.0188 74.856 39.6853 74.3664 39.3364C72.3687 37.916 70.9652 35.8494 69.1286 34.2469C65.1718 30.793 61.2858 27.2609 57.3025 23.8376C57.3009 23.8303 57.3009 23.8231 57.2984 23.8166C57.2284 23.5564 57.0263 23.4243 56.7928 23.3969C56.6889 23.3083 56.5866 23.2172 56.4828 23.1286C54.3619 21.3214 52.2377 19.5183 50.1764 17.6443C49.5733 17.0973 48.9718 16.5655 48.3453 16.0451C48.0377 15.7897 47.7326 15.5262 47.4419 15.2499C47.2978 15.1129 47.1569 14.9711 47.0216 14.8236C46.9652 14.7624 46.9096 14.6996 46.8565 14.6359C46.7623 14.5239 46.8106 14.5908 46.7349 14.4796C46.7261 14.4659 46.7172 14.4506 46.7084 14.4369C48.6207 13.997 50.5371 13.5716 52.4511 13.1462C56.7114 12.202 60.9791 11.2907 65.241 10.3521C65.7298 10.8871 66.3836 11.2972 66.9601 11.6992C67.9521 12.3921 68.9611 13.0665 69.8991 13.8319C71.7825 15.3683 73.7545 16.7645 75.7643 18.1293C76.7579 18.8045 77.7604 19.47 78.725 20.1862C79.6728 20.8904 80.5835 21.6397 81.5094 22.372C82.4435 23.11 83.4041 23.7973 84.3744 24.4861C85.3003 25.1412 86.1297 25.9243 86.9583 26.6953C87.757 27.4374 88.5437 28.1657 89.2467 29.0012C89.9222 29.8028 90.5511 30.6439 91.2347 31.4392C91.5818 31.8428 91.9433 32.236 92.329 32.6025C92.7115 32.9659 93.1302 33.2793 93.5312 33.6193C94.3517 34.3195 95.0667 35.13 95.7793 35.9348C96.4976 36.7453 97.2206 37.5591 98.0484 38.2608C98.3649 38.5299 98.724 38.762 99.0187 39.0568C99.0356 39.0738 99.1016 39.1584 99.1105 39.164C99.133 39.2051 99.1596 39.2575 99.1556 39.2381C99.1628 39.2591 99.1709 39.2808 99.1757 39.2969C97.2778 40.2162 95.2535 40.9824 93.2099 41.4513C90.7484 42.0169 88.2555 42.5067 85.8704 43.3398C84.2673 43.8998 82.6746 44.4911 81.0851 45.0882ZM81.1117 69.6557C81.1068 69.7475 81.1052 69.7975 81.0972 69.8474C81.0907 69.8491 81.0843 69.8491 81.0787 69.8507C80.9071 69.8982 80.7574 70.0392 80.6841 70.2084C79.5552 70.7965 78.419 71.3718 77.2531 71.8794C75.5042 72.6399 73.7013 73.2668 71.913 73.9274C70.2035 74.5574 68.5649 75.2842 66.9593 76.1471C66.1735 76.5684 65.3948 77.0019 64.6073 77.4192C63.7957 77.847 62.9599 78.2297 62.1611 78.6825C60.6127 79.5615 59.1802 80.6242 57.6761 81.5733C56.1446 82.5393 54.5261 83.2628 52.8183 83.8574C52.0614 84.1217 51.298 84.369 50.5371 84.6212C50.5444 84.6083 50.5524 84.5954 50.5572 84.5809C50.8552 83.8582 50.7344 83.0195 50.6716 82.263C50.6627 82.1598 50.6603 82.0551 50.6547 81.9511C54.6847 79.937 58.743 77.98 62.8004 76.0189C64.861 75.0231 66.9223 74.0265 68.9772 73.0194C69.5038 72.7616 70.0296 72.503 70.5546 72.2435C71.0345 72.0075 71.5297 71.7899 71.9846 71.5088C72.781 71.0157 73.4743 70.3615 74.36 70.0247C75.4156 69.6227 76.522 69.3342 77.601 69.0007C78.7089 68.6575 79.8241 68.3304 80.9571 68.0782C81.0642 68.5995 81.1382 69.1199 81.1117 69.6557ZM80.2694 47.3561C80.267 48.1691 80.2662 48.982 80.2654 49.7941C79.4868 49.8763 78.7428 50.1301 78.0471 50.5072C77.2491 50.9414 76.5349 51.5094 75.7868 52.0202C73.9365 53.2859 71.7841 53.7653 69.6157 54.1939C68.4554 54.4219 67.3104 54.7088 66.1541 54.9537C65.5486 55.0818 64.9358 55.1809 64.3432 55.3622C63.8037 55.5265 63.2844 55.7457 62.761 55.9527C61.6554 56.3894 60.4975 56.6625 59.3912 57.1032C58.3138 57.5319 57.1898 57.9331 56.1679 58.485C55.1075 59.057 54.0824 59.7394 53.0743 60.4001C52.4752 60.7932 51.7538 61.383 51.017 61.5619C51.0218 61.2726 51.0235 60.9826 51.0049 60.6933C50.988 60.4178 50.9494 60.1439 50.9027 59.8724C50.8914 59.8087 50.8809 59.745 50.8713 59.6814C50.856 59.5751 50.8632 59.6282 50.8487 59.513C50.8085 59.2052 50.769 58.8604 50.6933 58.5245C50.7433 58.5164 50.7916 58.51 50.8415 58.5019C52.5574 58.2078 54.1517 57.4513 55.7428 56.7769C57.693 55.9503 59.6416 55.1205 61.591 54.293C63.4897 53.4865 65.3924 52.6889 67.3096 51.9259C68.176 51.5803 69.0456 51.2427 69.9185 50.9124C70.929 50.5313 71.8743 50.0672 72.8406 49.5838C74.6402 48.6839 76.555 48.0627 78.436 47.3545C79.0544 47.1217 79.6728 46.888 80.2904 46.6552C80.2791 46.8888 80.2702 47.1217 80.2694 47.3561ZM51.0887 71.8753C51.91 71.5402 52.5405 70.9375 53.2507 70.4018C54.0776 69.7766 55.0479 69.5244 56.0407 69.2899C57.069 69.0474 58.0634 68.7815 59.0151 68.3126C59.9355 67.859 60.7818 67.2733 61.6055 66.6658C62.4332 66.0543 63.2449 65.4186 64.1073 64.8547C65.0317 64.2512 66.0269 63.7759 67.0358 63.3303C69.2083 62.3724 71.4717 61.64 73.736 60.931C75.9753 60.2309 77.9142 58.7065 80.2678 58.3665C80.2686 58.9627 80.2694 59.5581 80.2694 60.1535C80.2702 60.9085 80.2622 61.6626 80.2686 62.4183C79.2774 62.2862 78.3595 62.6995 77.5019 63.1579C77.1058 63.369 76.7007 63.5801 76.3295 63.8339C75.9157 64.1191 75.5348 64.451 75.1105 64.7217C74.6523 65.0134 74.137 65.2172 73.6369 65.4267C73.0837 65.6587 72.5241 65.8771 71.9621 66.089C70.8743 66.5007 69.7784 66.889 68.6929 67.3079C67.7492 67.6713 66.7613 67.9138 65.8304 68.3118C65.3755 68.506 64.9479 68.7396 64.5751 69.0692C64.1991 69.3995 63.8987 69.7057 63.4349 69.9159C62.9244 70.1472 62.3809 70.3019 61.868 70.5283C61.3881 70.741 60.9243 70.9907 60.4436 71.2018C59.4934 71.6183 58.5135 71.9648 57.5352 72.3064C55.2548 73.1016 52.9318 73.8557 50.8544 75.1134C50.8149 75.1375 50.7803 75.1641 50.7497 75.1915C50.7964 74.6203 50.8536 74.0499 50.9148 73.4803C50.9719 72.9453 51.0307 72.4103 51.0887 71.8753ZM80.2646 55.487C80.2646 55.6208 80.2646 55.7545 80.2654 55.8875C80.2654 56.3346 80.2662 56.7818 80.2662 57.2281C80.1712 57.2064 80.0681 57.2015 79.9642 57.2168C77.857 57.5165 76.1274 58.7702 74.1812 59.5211C73.1039 59.9368 71.9758 60.2317 70.8815 60.5991C69.7558 60.9777 68.6382 61.3814 67.5399 61.8326C66.448 62.2821 65.3473 62.751 64.3166 63.3311C63.4341 63.8306 62.6152 64.4341 61.8044 65.0408C60.9831 65.6555 60.165 66.2791 59.2841 66.8076C58.404 67.3361 57.4893 67.7116 56.4924 67.9597C55.3547 68.2417 54.1541 68.4415 53.1323 69.0482C52.4551 69.4486 51.8931 70.0577 51.2264 70.4791C51.3133 69.4986 51.3753 68.5173 51.377 67.5319C51.377 67.4175 51.3794 67.3023 51.3826 67.1879C51.91 67.0695 52.402 66.7746 52.8545 66.4797C53.5639 66.0165 54.2274 65.5427 54.9996 65.181C55.4996 64.9473 56.0206 64.7491 56.5037 64.4816C56.9361 64.2424 57.3339 63.9483 57.7421 63.6711C58.1632 63.3859 58.594 63.1297 59.0755 62.9613C59.5885 62.7833 60.1183 62.6584 60.6312 62.4795C61.7166 62.1 62.7296 61.4829 63.7643 60.985C64.7772 60.4984 65.7813 60.0117 66.8748 59.7338C67.9602 59.4566 69.0279 59.2085 70.0851 58.8346C71.1545 58.4584 72.2246 58.0862 73.3422 57.8855C73.9252 57.78 74.513 57.701 75.0911 57.5665C75.7055 57.4247 76.2772 57.1959 76.8433 56.9211C77.8441 56.4369 78.7951 55.931 79.9095 55.7634C80.0681 55.74 80.1905 55.628 80.2646 55.487ZM79.7509 54.2221C79.4231 54.2221 79.2363 54.4413 79.1896 54.6918C78.3546 54.8771 77.5784 55.2292 76.8111 55.6119C76.3762 55.8286 75.9438 56.0639 75.4825 56.2202C74.9679 56.395 74.4333 56.4982 73.8986 56.5892C72.818 56.7737 71.7761 56.9993 70.7358 57.3514C69.6793 57.7067 68.6471 58.095 67.56 58.348C67.031 58.4705 66.502 58.5865 65.9834 58.7444C65.4351 58.912 64.9133 59.1448 64.3923 59.3817C63.3456 59.857 62.3149 60.3662 61.2899 60.8859C60.8011 61.134 60.3228 61.3387 59.797 61.4958C59.2631 61.6553 58.7277 61.8036 58.2156 62.0267C57.3025 62.4272 56.5714 63.1297 55.6816 63.5704C54.7161 64.0474 53.737 64.4293 52.8473 65.0472C52.6017 65.2172 52.3537 65.384 52.1 65.5443C52.0557 65.2357 51.7973 64.9497 51.4156 65.0134C51.4108 64.9344 51.4059 64.8555 51.3971 64.7757C51.3286 64.0965 51.112 63.4504 51.0355 62.776C51.7892 62.6535 52.5042 62.1983 53.1194 61.7963C53.9705 61.2404 54.8305 60.699 55.6888 60.1543C56.1752 59.8466 56.668 59.5493 57.1865 59.2995C57.6825 59.0594 58.2051 58.8701 58.7148 58.659C59.2607 58.4318 59.8067 58.2038 60.3615 58C60.9283 57.7913 61.5065 57.6374 62.083 57.4601C63.1877 57.1193 64.2152 56.5819 65.3497 56.3314C66.5237 56.072 67.6961 55.7908 68.8733 55.5515C71.1287 55.0931 73.4976 54.741 75.53 53.5905C77.0897 52.7066 78.4497 51.2532 80.2638 50.997C80.263 52.1781 80.263 53.3592 80.2646 54.5404C80.18 54.3599 80.0109 54.2221 79.7509 54.2221ZM50.6627 76.4427C50.6708 76.2848 50.6821 76.1261 50.6917 75.9682C50.8503 76.1986 51.1451 76.3291 51.4551 76.1422C53.2402 75.0602 55.2097 74.3705 57.172 73.6905C58.156 73.3497 59.1408 73.0106 60.1062 72.623C61.0717 72.2355 61.988 71.7239 62.9631 71.367C63.4792 71.1784 64.026 71.002 64.4914 70.7031C64.8859 70.4501 65.1702 70.0754 65.547 69.8055C66.3192 69.2529 67.3088 69.0434 68.1953 68.7517C69.234 68.4093 70.251 67.9895 71.2777 67.6109C72.3639 67.2097 73.4477 66.7988 74.5106 66.3387C75.0605 66.1002 75.5871 65.8553 76.0727 65.5008C76.5147 65.1769 76.9342 64.8337 77.4141 64.5662C77.8546 64.3197 78.2934 64.0659 78.7556 63.8629C79.1083 63.7066 79.6019 63.5172 79.9642 63.5672C80.0778 63.5825 80.1905 63.576 80.2936 63.5478C80.3016 63.7646 80.3081 63.9805 80.321 64.1972C80.3757 65.0923 80.4997 65.9737 80.6849 66.8487C80.6769 66.8729 80.6672 66.8963 80.6632 66.922C78.6429 67.3636 76.6532 68.0153 74.6893 68.6518C74.24 68.7977 73.7883 68.9556 73.3648 69.1666C72.9243 69.385 72.5282 69.6807 72.1296 69.9683C71.2527 70.6024 70.2929 71.0495 69.3234 71.5257C65.1613 73.5729 60.9766 75.575 56.8041 77.6013C54.7403 78.6036 52.6806 79.6155 50.6265 80.6387C50.6289 80.2455 50.6353 79.8524 50.6345 79.4608C50.6321 78.4545 50.612 77.4482 50.6627 76.4427ZM54.419 24.2533C53.7241 24.6626 53.0373 25.1653 52.5083 25.7801C51.9511 26.4286 51.6926 27.194 51.5404 28.0263C51.3826 28.8884 51.1652 29.8471 51.4293 30.706C52.0219 32.6364 54.0051 33.7321 55.8 34.3259C57.5996 34.9229 59.6062 35.047 61.4904 34.9632C62.0145 34.9398 62.546 34.873 63.0468 34.7078C63.3061 34.6224 63.5533 34.5064 63.8029 34.3952C63.8037 34.3944 63.8142 34.3904 63.8263 34.3855C63.84 34.3799 63.9269 34.3444 63.9366 34.3404C64.0195 34.3058 64.1032 34.2719 64.1854 34.2365C64.8151 33.973 65.6106 33.5976 65.8127 32.9079C65.8481 32.9393 65.8836 32.9708 65.919 33.0022C66.9352 33.9053 67.9972 34.7714 68.9748 35.7173C69.8605 36.5746 70.6568 37.5164 71.5128 38.4026C72.3719 39.2929 73.3084 40.0357 74.3149 40.7512C74.7707 41.0743 75.1942 41.4296 75.5509 41.863C75.7015 42.0451 75.8448 42.2336 75.9873 42.4214C75.2345 42.543 74.4993 42.7839 73.8253 43.136C72.8043 43.6702 71.6835 43.7483 70.5642 43.9183C69.3757 44.098 68.1969 44.4952 67.0632 44.8899C66.4746 45.0954 65.8924 45.3323 65.3401 45.6231C64.8545 45.8785 64.4036 46.1887 63.9374 46.4763C63.505 46.7414 63.0654 46.9775 62.5693 47.0959C62.0194 47.228 61.4485 47.2111 60.8961 47.3577C59.8687 47.6333 58.9346 48.1747 57.8774 48.356C57.3951 48.439 56.9425 48.4817 56.4844 48.671C55.924 48.9014 55.3732 49.123 54.7806 49.2551C54.1581 49.3945 53.5365 49.5379 52.9302 49.7385C52.3529 49.9303 51.8126 50.2155 51.236 50.4064C50.7304 50.5748 50.2207 50.6522 49.7456 50.3637C49.3188 50.1043 48.971 49.7329 48.6384 49.3655C48.2898 48.9812 47.9596 48.5792 47.5957 48.2094C47.1923 47.7985 46.7309 47.452 46.2558 47.1305C45.2541 46.4554 44.1728 45.9164 43.1163 45.3355C41.9858 44.7151 40.8915 44.0287 39.7353 43.4542C38.6684 42.9217 37.5362 42.5881 36.4299 42.1547C35.309 41.7156 34.4048 40.9744 33.4281 40.2895C32.932 39.9415 32.4264 39.6079 31.8998 39.3066C31.4054 39.0238 30.9118 38.7628 30.4689 38.4002C29.9995 38.0167 29.5832 37.5776 29.1331 37.1708C28.6693 36.751 28.1805 36.3594 27.6901 35.9711C25.8341 34.5048 24.045 32.9377 22.0553 31.6511C21.5432 31.3199 21.0182 31.0089 20.4795 30.7237C19.9545 30.445 19.4062 30.2145 18.8828 29.9317C17.8731 29.3847 16.9503 28.6797 15.9027 28.1987C15.7666 28.1359 15.5694 28.0497 15.4743 27.9763C15.3761 27.9006 15.3568 27.8595 15.3536 27.6903C15.3487 27.4172 15.1925 27.2424 14.9952 27.165C15.0371 27.1715 15.0822 27.1739 15.1297 27.1715C16.2667 27.1143 17.3617 26.8194 18.4262 26.4311C19.4835 26.0451 20.5037 25.5948 21.5996 25.3265C23.809 24.7843 26.1184 24.6964 28.2747 23.9359C29.3159 23.5685 30.3167 23.0545 31.3869 22.7757C31.9384 22.6315 32.5037 22.5485 33.0649 22.4566C33.6197 22.3656 34.1672 22.2423 34.718 22.1295C35.7696 21.9136 36.8027 21.6945 37.7939 21.2675C38.2867 21.0564 38.769 20.8687 39.2916 20.7381C39.8456 20.5996 40.4076 20.4964 40.9576 20.3409C42.1605 20.0009 43.2492 19.35 44.4578 19.0172C45.0746 18.848 45.7155 18.765 46.3186 18.5475C46.6085 18.4436 46.8807 18.3058 47.1528 18.1608C47.3533 18.0536 47.5812 17.911 47.8115 17.8812C48.0297 17.8522 48.2246 17.7475 48.3284 17.5734C48.9621 18.1189 49.566 18.6998 50.1893 19.2565C51.2215 20.1782 52.2659 21.0846 53.3159 21.9853C54.0051 22.5759 54.6952 23.1656 55.3853 23.7538C55.0503 23.8996 54.7258 24.072 54.419 24.2533ZM64.679 32.5615C64.6774 32.5671 64.6741 32.5735 64.6701 32.5832C64.6741 32.5735 64.6766 32.5671 64.6782 32.5615H64.679ZM64.6725 32.5212C64.6733 32.5446 64.675 32.5534 64.6774 32.5582C64.6701 32.5728 64.6556 32.601 64.6436 32.6211C64.6339 32.6259 64.5566 32.7049 64.5421 32.7178C64.5252 32.7323 64.4865 32.7605 64.4229 32.8008C64.1838 32.953 63.9036 33.0755 63.6805 33.1673C63.021 33.438 62.4043 33.7128 61.6812 33.7619C60.8333 33.8207 59.9677 33.7861 59.1206 33.7297C58.3074 33.6765 57.5014 33.5653 56.7131 33.3559C55.2307 32.9635 53.5188 32.2231 52.7547 30.8075C52.5831 30.4901 52.4777 30.1404 52.4897 29.7787C52.4994 29.4507 52.5646 29.1188 52.6129 28.7941C52.716 28.1101 52.8223 27.3503 53.2313 26.7711C53.6001 26.2506 54.254 25.7567 54.8353 25.3941C55.3321 25.084 55.8652 24.8052 56.432 24.6473C57.5022 25.5617 58.5699 26.477 59.6271 27.4059C61.3857 28.9488 63.1273 30.5118 64.873 32.0692C64.749 32.1643 64.6653 32.3133 64.6725 32.5212ZM50.1232 57.4046C50.1112 57.3933 50.1023 57.3804 50.0894 57.3699C49.8446 57.162 49.4887 57.129 49.248 57.3699C49.2238 57.3933 49.2037 57.4207 49.1836 57.4497C48.9162 57.4424 48.6497 57.4166 48.3848 57.3699C47.0715 57.1371 46.1133 56.4192 45.1084 55.5926C44.1848 54.8328 43.2564 54.0779 42.3337 53.3157C41.3835 52.5294 40.3504 51.9018 39.2932 51.2669C37.2931 50.064 35.2519 48.9304 33.2493 47.73C31.0881 46.4336 29.0743 44.9504 27.0242 43.4881C22.3742 40.1687 17.6645 36.9717 12.8574 33.9198C12.8993 33.7378 12.8679 33.5379 12.7229 33.3768C12.7101 33.3631 12.6972 33.351 12.6843 33.3365C12.7463 33.3744 12.6923 33.3285 12.6223 33.2721C12.3453 32.9812 12.0353 32.7129 11.7511 32.4293C11.5208 32.1997 11.2913 31.9677 11.0723 31.7268C10.7993 31.4271 10.6407 31.1241 10.3846 30.7817C10.007 30.279 9.48681 29.914 9.11239 29.4008C8.9288 29.1518 8.75246 28.8924 8.63087 28.6072C8.50365 28.3091 8.41991 27.9925 8.31201 27.6871C8.09058 27.0659 7.80312 26.4697 7.54626 25.8639C7.35382 25.4087 7.09857 25.005 6.8095 24.6167C8.31685 24.3121 9.83547 24.0471 11.3533 23.7828C11.9306 23.7264 12.508 23.6507 13.0869 23.641C13.3059 23.637 13.4597 23.5355 13.5539 23.3945C15.1724 23.1028 16.7852 22.7886 18.3787 22.4002C23.9483 21.0435 29.3706 19.1735 34.8525 17.513C38.3624 16.4511 41.9206 15.5536 45.4933 14.7181C45.6672 15.0927 45.9627 15.4335 46.2244 15.7139C46.5827 16.0982 46.9781 16.4471 47.3815 16.7847C47.02 16.8926 46.6906 17.0634 46.3412 17.2447C45.8709 17.4888 45.3484 17.5912 44.8346 17.7039C43.7235 17.9465 42.7073 18.384 41.6637 18.8247C40.6105 19.2694 39.4889 19.408 38.405 19.7496C37.8696 19.918 37.3744 20.1822 36.847 20.3708C36.3679 20.5424 35.8751 20.6689 35.3783 20.7784C34.3057 21.0137 33.23 21.224 32.147 21.406C31.589 21.5003 31.0318 21.6123 30.4971 21.8033C29.9753 21.9894 29.464 22.2045 28.9495 22.4099C27.8866 22.8345 26.8181 23.164 25.6932 23.3799C24.5828 23.5926 23.4604 23.7369 22.35 23.948C21.1036 24.1856 19.9449 24.5748 18.7652 25.034C17.5969 25.4892 16.3923 25.917 15.1297 25.9799C14.4678 26.0129 14.3784 26.9153 14.868 27.1272C14.5355 27.0675 14.1546 27.2545 14.1635 27.6903C14.1739 28.2454 14.4082 28.6878 14.8664 28.9979C15.2376 29.2493 15.6829 29.4024 16.071 29.6256C16.5944 29.9277 17.0976 30.2612 17.613 30.573C18.1573 30.9026 18.7201 31.1749 19.291 31.4529C21.4272 32.4906 23.2993 33.948 25.1336 35.4377C26.1127 36.2338 27.1281 36.9919 28.0766 37.8217C28.9994 38.6282 29.8127 39.5209 30.9005 40.1155C31.994 40.7117 32.9973 41.4336 34.0022 42.1652C34.9982 42.8911 36.1054 43.3149 37.2617 43.7177C38.4348 44.127 39.5211 44.6579 40.6025 45.2702C41.7096 45.8995 42.8184 46.5206 43.936 47.133C44.9409 47.6832 45.9821 48.2561 46.7873 49.0859C47.5426 49.8626 48.1746 50.7811 49.1063 51.3684C50.2448 52.0847 51.4486 51.6222 52.5686 51.1412C53.7483 50.6352 55.0382 50.5216 56.2259 50.056C56.6913 49.8739 57.1809 49.6443 57.6447 49.5814C58.2196 49.5025 58.7688 49.3961 59.3163 49.1987C59.8139 49.0215 60.2954 48.8031 60.7955 48.6339C61.3237 48.4559 61.8326 48.3995 62.3809 48.3318C63.5356 48.1876 64.4431 47.5463 65.4093 46.9549C66.4633 46.3104 67.6228 45.9422 68.7984 45.5893C69.3846 45.412 69.9644 45.2243 70.5683 45.1172C71.1279 45.0181 71.6939 44.9657 72.2552 44.8746C72.8647 44.7755 73.4485 44.616 74.0138 44.3663C74.5283 44.1391 74.9929 43.8821 75.5412 43.733C75.9801 43.6154 76.4229 43.5469 76.8747 43.5284C77.2145 43.9191 77.5776 44.2865 77.9875 44.6023C78.4947 44.9947 79.0729 45.2485 79.6422 45.5361C79.6768 45.553 79.713 45.5716 79.7493 45.5909C79.4763 45.6948 79.2033 45.7979 78.9296 45.9011C76.642 46.7648 74.3133 47.5181 72.1264 48.6122C69.8573 49.7474 67.4602 50.5756 65.113 51.5384C62.7875 52.4915 60.4774 53.4825 58.1648 54.4671C56.0085 55.3863 53.8417 56.4804 51.5807 57.1129C51.104 57.2458 50.616 57.3482 50.1232 57.4046ZM50.2086 66.6368C49.9155 66.5168 49.6063 66.4217 49.3035 66.3194C48.5974 66.0817 47.9194 65.521 47.2994 64.994C46.5578 64.3624 45.7816 63.7992 44.9506 63.29C44.1518 62.7994 43.3305 62.3361 42.5833 61.7681C41.8296 61.1953 41.1468 60.5443 40.3706 59.9964C39.5863 59.4413 38.7722 58.9329 37.9719 58.4036C37.1409 57.8557 36.3308 57.2805 35.4821 56.7608C34.6165 56.2323 33.734 55.732 32.8596 55.2171C29.2603 53.0982 25.967 50.5047 22.4354 48.2802C20.6631 47.1636 18.9319 45.9986 17.2031 44.8174C15.5041 43.6573 13.7504 42.5881 12.0321 41.4602C11.185 40.9043 10.3476 40.3298 9.54721 39.707C8.73798 39.0778 7.94968 38.4228 7.13078 37.8064C6.32718 37.2014 5.50748 36.6181 4.67409 36.0565C4.30692 35.8092 3.93894 35.5675 3.58787 35.2959C3.2368 35.0228 2.88732 34.74 2.50726 34.5072C2.21497 34.3275 1.89934 34.1769 1.5684 34.085C1.56518 34.0141 1.56356 33.9424 1.56034 33.8715C1.5386 33.4541 1.51364 33.0376 1.48707 32.6211C2.03622 32.7097 2.4815 32.9764 2.95658 33.3196C3.6402 33.8159 4.35362 34.2582 5.09521 34.6619C5.87787 35.0881 6.71528 35.4563 7.60262 35.5876C7.7701 35.6126 7.93839 35.6319 8.10668 35.6448C8.16224 35.6496 8.21861 35.6529 8.27498 35.6577C8.29672 35.6593 8.31845 35.6617 8.34099 35.6641C8.34743 35.6657 8.35146 35.6674 8.36193 35.6698C8.40058 35.6802 8.43844 35.6915 8.47628 35.7028C8.48675 35.7109 8.55358 35.7423 8.5729 35.7536C8.73475 35.8478 8.87002 35.9711 9.01415 36.0895C9.73562 36.6801 10.5883 37.0805 11.3654 37.5905C12.1529 38.1086 12.921 38.6548 13.6884 39.2011C14.0435 39.454 14.3865 39.699 14.6901 40.014C14.9646 40.2984 15.2086 40.6094 15.4639 40.9099C15.7546 41.2499 16.0533 41.5536 16.4269 41.8034C16.7699 42.0322 17.1459 42.2095 17.4882 42.4407C18.1517 42.8895 18.5712 43.6146 19.262 44.0408C20.0197 44.5089 20.8926 44.7739 21.7195 45.0865C22.5561 45.4024 23.2736 45.8793 24.0562 46.2991C24.8655 46.7325 25.7045 47.1136 26.4735 47.618C27.2344 48.1175 27.9462 48.6831 28.6942 49.1987C29.4688 49.7345 30.3055 50.1591 31.1075 50.649C31.9103 51.1388 32.6937 51.6681 33.4248 52.2603C34.1004 52.809 34.722 53.4189 35.3791 53.9885C35.9596 54.492 36.5595 55.0125 37.2818 55.2929C37.9509 55.5515 38.5371 55.8673 39.2393 56.1735C40.7643 56.839 41.8618 58.1498 43.3144 58.9394C43.6743 59.1343 44.031 59.3317 44.362 59.5718C44.5423 59.791 44.7348 59.9851 44.9683 60.1584C45.1374 60.284 45.2856 60.3646 45.4965 60.3944C45.6527 60.417 45.759 60.4379 45.887 60.5282C46.47 60.9407 47.0087 61.4152 47.5844 61.839C47.9613 62.1154 48.3768 62.3095 48.7794 62.5424C48.9766 62.6568 49.1409 62.7567 49.2794 62.8936C49.3752 62.9879 49.3792 62.9839 49.4171 63.0685C49.4259 63.0894 49.4445 63.1627 49.4453 63.207C49.4485 63.5769 49.7287 63.767 50.0161 63.7799C50.062 64.0087 50.112 64.2383 50.1595 64.4736C50.3036 65.1785 50.2448 65.9149 50.2086 66.6368ZM50.083 69.9417C50.0556 70.2777 50.0226 70.6129 49.9896 70.9488C49.9493 71.0431 49.9364 71.1543 49.9598 71.2783C49.9517 71.3549 49.9453 71.4322 49.9364 71.5096C48.7351 70.6257 47.4346 69.8902 46.1342 69.1554C44.4618 68.2111 42.8707 67.1331 41.303 66.0245C39.7159 64.9014 38.1329 63.7775 36.5015 62.718C34.8863 61.669 33.2485 60.6539 31.6188 59.6282C28.3279 57.5544 25.1723 55.2832 21.887 53.2013C18.6179 51.1307 15.2835 49.1625 12.0643 47.0137C10.3999 45.9035 8.77824 44.7312 7.1501 43.5694C6.33443 42.9877 5.52036 42.4052 4.7071 41.8195C4.01462 41.3208 3.35354 40.7697 2.6514 40.2855C2.36152 40.0865 2.05071 39.9157 1.71816 39.7997C1.70527 39.3557 1.68919 38.9102 1.6763 38.4655C1.64893 37.4366 1.63926 36.4062 1.61349 35.3765C2.15137 35.6311 2.6216 36.0452 3.08943 36.4029C3.8423 36.9782 4.65717 37.4745 5.42856 38.0264C7.06796 39.1994 8.58659 40.5288 10.2389 41.6826C11.8944 42.8395 13.6336 43.8675 15.3181 44.9802C17.0469 46.1234 18.7274 47.34 20.4747 48.4575C22.2373 49.5854 23.9934 50.7077 25.7142 51.8993C27.3962 53.0636 29.0638 54.2544 30.791 55.3525C32.5045 56.4426 34.313 57.378 36.0047 58.5027C36.7979 59.0304 37.5797 59.5694 38.3777 60.0891C39.1652 60.6023 39.9559 61.1179 40.6846 61.7141C41.4157 62.3135 42.1082 62.9226 42.9078 63.4334C43.7001 63.9402 44.523 64.3962 45.2984 64.9288C46.0481 65.4436 46.7003 66.0777 47.4266 66.6223C47.8002 66.9027 48.1948 67.1557 48.6272 67.3345C48.9396 67.4626 49.2649 67.5537 49.583 67.6649C49.7061 67.7076 49.8253 67.7543 49.9413 67.8115C49.9759 67.9485 50.0564 68.058 50.1659 68.1346C50.1514 68.7372 50.1297 69.3383 50.083 69.9417ZM49.5129 76.0963C48.9162 75.9368 48.3631 75.5057 47.8896 75.1504C47.2696 74.6864 46.6617 74.2247 46.0207 73.7921C44.5939 72.8301 43.3812 71.5958 42.0534 70.5105C40.5936 69.3157 38.9639 68.3279 37.3857 67.3007C35.7664 66.2469 34.1375 65.2084 32.4924 64.1964C29.1903 62.1629 25.7923 60.3163 22.4088 58.4253C19.0181 56.5296 15.6668 54.5653 12.3566 52.5326C10.7607 51.5529 9.18808 50.541 7.62195 49.5154C6.09769 48.5163 4.55894 47.5318 2.93806 46.6971C2.61114 46.5295 2.281 46.37 1.94845 46.2145C1.87679 44.5322 1.81478 42.85 1.76164 41.1661C1.77774 41.1661 1.79466 41.1685 1.81157 41.1677C1.82285 41.1677 1.8325 41.1645 1.84216 41.1637C2.28986 41.432 2.69246 41.809 3.09265 42.1128C3.87773 42.7098 4.69261 43.2705 5.4954 43.845C7.12272 45.01 8.74521 46.1847 10.3943 47.3183C13.5547 49.4896 16.8488 51.453 20.0994 53.4833C21.7324 54.5033 23.3549 55.5402 24.9428 56.6295C26.5315 57.7196 28.1145 58.808 29.7386 59.845C32.9836 61.9172 36.2882 63.8983 39.4204 66.1397C40.9809 67.2564 42.5438 68.3723 44.1768 69.381C45.7493 70.3526 47.4129 71.1728 48.9299 72.2355C49.2246 72.4425 49.5097 72.6617 49.7883 72.8897C49.6715 73.9604 49.5749 75.0272 49.5129 76.0963ZM49.554 83.6471C49.1522 83.5649 48.7343 83.5375 48.3381 83.4143C47.6955 83.2137 47.0981 82.9018 46.5256 82.5546C45.3419 81.8359 44.2992 80.9183 43.1477 80.1529C41.9689 79.3706 40.662 78.8453 39.3488 78.3361C38.0846 77.847 36.876 77.3233 35.7245 76.6006C33.209 75.0231 30.7314 73.382 28.3544 71.6022C27.1861 70.7281 26.0677 69.7878 24.8848 68.9322C23.735 68.0999 22.5409 67.3313 21.3242 66.603C18.8852 65.1431 16.356 63.8468 13.8551 62.4997C11.2277 61.0833 8.64135 59.5775 5.8819 58.4237C5.09602 58.095 4.22396 58.0112 3.4107 57.7695C3.22551 57.7147 2.95899 57.6245 2.84948 57.5746C2.76574 57.5367 2.68281 57.4948 2.6031 57.4489C2.56123 57.4239 2.52016 57.3981 2.47909 57.3715C2.4646 57.3619 2.45493 57.3562 2.44687 57.3514C2.44204 57.3457 2.43721 57.3409 2.42674 57.332C2.39534 57.3022 2.36556 57.2724 2.33576 57.2418C2.33254 57.2386 2.33173 57.2386 2.33012 57.2362C2.32771 57.2321 2.32689 57.2305 2.32367 57.2257C2.31321 57.2096 2.30517 57.1911 2.2947 57.1741C2.29228 57.1564 2.27618 57.1032 2.27457 57.0879C2.26249 56.9373 2.26489 56.611 2.28341 56.3822C2.33012 55.8286 2.37118 55.2929 2.36716 54.7345C2.36152 53.9732 2.33254 53.2118 2.29309 52.4512C2.28745 52.3481 2.2802 52.245 2.27457 52.1419C8.34422 56.1622 14.5322 59.9988 20.705 63.8572C23.9137 65.8618 27.1176 67.8735 30.2974 69.9224C33.4901 71.9785 36.6497 74.0821 39.8697 76.0939C41.6879 77.2299 43.5044 78.3683 45.3306 79.4906C46.127 79.9797 46.9757 80.4228 47.7229 80.9851C48.2197 81.359 48.8075 81.8464 49.4565 81.9117C49.4911 82.4692 49.6079 83.0759 49.554 83.6471ZM2.01126 47.7687C2.00804 47.6994 2.00642 47.6293 2.0032 47.56C5.00743 49.0601 7.73145 51.0679 10.5795 52.8347C13.9138 54.9029 17.2893 56.9042 20.705 58.833C24.1158 60.7602 27.5718 62.5971 30.9215 64.6307C32.5729 65.6337 34.2083 66.6634 35.8316 67.7108C36.6425 68.2345 37.4517 68.7622 38.2577 69.294C39.0573 69.8201 39.8754 70.3292 40.6419 70.9029C42.0438 71.9527 43.2733 73.2128 44.6647 74.2755C45.2864 74.7508 45.9587 75.1496 46.5771 75.6298C47.21 76.1213 47.8429 76.6498 48.574 76.9914C48.8679 77.1276 49.1538 77.2242 49.4589 77.2871C49.4461 77.7334 49.4388 78.1822 49.4412 78.6318C49.4445 79.124 49.4364 79.6179 49.4316 80.1126C49.2343 80.1271 49.0426 80.2383 48.9331 80.4026C48.7037 80.2488 48.4862 80.078 48.2648 79.9128C47.5981 79.4149 46.8428 79.0201 46.1334 78.5858C44.5037 77.5876 42.8836 76.5708 41.2603 75.5597C38.0693 73.5705 34.9306 71.5031 31.7733 69.4591C25.4863 65.3888 19.0994 61.4748 12.7624 57.4819C9.21224 55.2445 5.67737 52.983 2.18437 50.657C2.12076 49.695 2.05555 48.7322 2.01126 47.7687ZM1.40736 31.4085C1.36065 30.6867 1.31395 29.9631 1.28174 29.2396C1.26805 28.9021 1.25759 28.5645 1.24954 28.2269C1.37757 28.3357 1.50559 28.4356 1.62959 28.5242C2.3728 29.0616 3.24403 29.4572 4.04038 29.9124C4.89149 30.3982 5.73938 30.8913 6.58324 31.3908C8.25163 32.3778 9.90471 33.3905 11.5441 34.425C14.8793 36.5302 18.1557 38.7257 21.3966 40.9736C23.0119 42.0951 24.6191 43.2286 26.2206 44.3711C27.8608 45.5401 29.4632 46.7857 31.1711 47.854C32.866 48.9135 34.6004 49.9053 36.3292 50.9068C38.033 51.8913 39.8794 52.821 41.3972 54.0787C42.0744 54.6387 42.7548 55.1946 43.4352 55.7513C44.2275 56.4015 44.9949 57.1596 45.879 57.6833C46.9974 58.3448 48.2254 58.6348 49.4815 58.6252C49.4968 58.6735 49.5113 58.7251 49.525 58.7807C49.5966 59.0626 49.6393 59.3672 49.6723 59.6161C49.719 59.9747 49.7915 60.3324 49.8148 60.6933C49.8382 61.0656 49.831 61.4394 49.8237 61.8124C49.492 61.5643 49.1055 61.3661 48.7568 61.1767C48.2672 60.9085 47.8364 60.5483 47.4 60.2027C47.1254 59.9851 46.8509 59.7684 46.569 59.5597C46.3001 59.3607 46.0352 59.2794 45.7284 59.2334C45.4055 59.0046 45.1768 58.6848 44.8491 58.4576C44.4811 58.2022 44.0785 58.0048 43.6896 57.7873C42.9569 57.3764 42.3369 56.8269 41.683 56.308C41.3465 56.0406 41.0035 55.7803 40.6363 55.5571C40.2546 55.3259 39.8496 55.1599 39.4462 54.9722C39.0089 54.7684 38.5862 54.5331 38.1385 54.3518C37.9171 54.2624 37.6876 54.1891 37.4694 54.094C37.467 54.0924 37.467 54.0924 37.4638 54.09C37.38 54.0384 37.2987 53.9845 37.2174 53.9289C37.0378 53.8072 36.8631 53.6783 36.694 53.5421C36.3308 53.2505 35.9838 52.9403 35.6392 52.6277C34.9459 51.9993 34.2494 51.3813 33.4973 50.8222C31.9384 49.6644 30.1831 48.8297 28.6153 47.6857C27.8673 47.1394 27.1257 46.5819 26.3116 46.1339C25.4726 45.6707 24.6006 45.2735 23.7857 44.7643C23.0054 44.2768 22.1366 43.9779 21.2775 43.6581C20.8676 43.5058 20.4634 43.3447 20.0785 43.136C19.7299 42.9483 19.4601 42.7017 19.188 42.4157C18.886 42.0991 18.5913 41.7841 18.2394 41.5198C17.8972 41.2628 17.5091 41.0783 17.1468 40.8519C16.4567 40.4201 16.0348 39.674 15.4671 39.106C14.7818 38.4196 13.9066 37.8942 13.1127 37.3415C12.3219 36.7905 11.52 36.27 10.685 35.7874C10.2888 35.5586 9.93692 35.3008 9.58022 35.0188C9.3153 34.8085 9.03671 34.6103 8.70255 34.5273C8.41912 34.4572 8.1252 34.4709 7.83854 34.4282C7.42144 34.3662 7.00515 34.2373 6.61382 34.0802C5.80217 33.7539 5.02033 33.2809 4.28759 32.8056C3.64986 32.3915 3.08299 31.8847 2.36474 31.6067C2.05957 31.4899 1.73427 31.4319 1.40736 31.4085ZM1.27771 26.0185C2.67716 25.569 4.09675 25.2032 5.53002 24.8866C5.76755 25.1758 5.99383 25.4755 6.18466 25.7897C6.52446 26.3489 6.7628 26.9975 7.01 27.6025C7.26445 28.2253 7.41098 28.8964 7.74192 29.487C8.06078 30.0574 8.5109 30.6157 8.99402 31.054C9.22029 31.2595 9.40467 31.4376 9.57135 31.6954C9.63496 31.7945 9.701 31.8919 9.76784 31.9886C7.43756 30.5537 5.08475 29.151 2.69972 27.7918C2.13366 27.4688 1.02971 26.7662 1.27771 26.0185ZM6.93591 23.4065C6.61221 23.4686 6.28852 23.5314 5.96563 23.5975C5.83599 23.4557 5.70232 23.3171 5.56302 23.1834C6.01313 23.2921 6.47452 23.3542 6.93591 23.4065ZM131.139 41.5827C130.652 41.5673 130.164 41.5174 129.684 41.639C129.204 41.7607 128.848 42.0685 128.442 42.3279C127.982 42.622 127.492 42.8782 127.021 43.1553C126.525 43.4478 126.029 43.7435 125.515 44.0045C124.528 44.5072 123.487 44.898 122.536 45.4701C121.617 46.0236 120.752 46.6359 119.777 47.0927C118.766 47.5664 117.76 48.049 116.782 48.5864C115.809 49.1206 114.824 49.6185 113.793 50.035C111.656 50.8987 109.448 51.598 107.287 52.4045C104.968 53.269 102.666 54.1875 100.401 55.1889C100.401 54.2761 100.401 53.3625 100.401 52.4496C101.374 52.4545 102.296 51.9823 103.118 51.5038C103.554 51.2492 103.98 50.976 104.425 50.7368C104.92 50.4685 105.45 50.2654 105.968 50.0455C107.097 49.5653 108.238 49.1061 109.416 48.7628C110.634 48.4083 111.879 48.153 113.096 47.7985C114.247 47.4649 115.296 47.0081 116.346 46.4361C117.304 45.9132 118.332 45.5434 119.206 44.8803C119.619 44.5669 120.01 44.2285 120.422 43.9151C120.606 43.7749 120.796 43.6404 120.991 43.5179C121.151 43.4172 121.445 43.2335 121.553 43.2029C121.854 43.1183 122.198 43.144 122.507 43.0764C122.833 43.0055 123.107 42.7662 123.4 42.6083C123.878 42.3505 124.373 42.1498 124.875 41.9468C125.491 41.6979 126.012 41.4078 126.527 40.9856C126.715 40.8293 126.914 40.6795 127.149 40.6021C127.43 40.5079 127.731 40.4611 128.023 40.412C129.06 40.2388 130.077 39.9987 131.115 39.8786C131.128 40.3201 131.153 40.7617 131.152 41.2048C131.151 41.3313 131.146 41.457 131.139 41.5827ZM130.862 44.0182C130.834 44.4758 130.821 44.9343 130.816 45.3935C129.934 45.5699 129.107 45.9277 128.338 46.399C127.882 46.6778 127.389 46.8792 126.896 47.079C126.35 47.2989 125.822 47.5487 125.288 47.7944C124.216 48.2899 123.08 48.7048 122.061 49.3067C121.187 49.8231 120.386 50.5563 119.419 50.8987C118.919 51.076 118.389 51.1428 117.891 51.3273C117.389 51.5134 116.941 51.7882 116.484 52.0645C115.522 52.6462 114.438 53.0072 113.38 53.3697C112.263 53.7532 111.153 54.1641 110.033 54.5331C108.953 54.8892 107.854 55.1809 106.768 55.5185C106.158 55.7086 105.551 55.9132 104.959 56.1509C104.398 56.3773 103.874 56.6657 103.271 56.7544C102.666 56.8446 102.099 56.9131 101.531 57.1548C101.14 57.3216 100.772 57.5294 100.401 57.7357C100.401 57.3159 100.401 56.8946 100.401 56.4748C100.427 56.4659 100.453 56.4579 100.478 56.4466C102.589 55.4975 104.737 54.6338 106.902 53.8161C109.059 53.0007 111.247 52.2692 113.405 51.4578C114.435 51.0711 115.452 50.6352 116.432 50.1309C117.418 49.6233 118.379 49.0763 119.378 48.5945C120.35 48.1264 121.301 47.6752 122.209 47.087C123.133 46.4892 124.07 45.9825 125.072 45.5272C126.21 45.01 127.27 44.3832 128.349 43.7572C128.605 43.6081 128.871 43.472 129.117 43.3068C129.322 43.1698 129.514 43.0143 129.729 42.8943C130.107 42.684 130.572 42.7299 131.007 42.7613C130.948 43.1795 130.889 43.5977 130.862 44.0182ZM130.691 50.7045C131.14 50.3678 131.531 49.9617 131.759 49.442C132.065 48.7475 131.997 47.9491 132 47.2063C132.005 46.1968 131.987 45.1856 132.043 44.1769C132.096 43.2319 132.32 42.3021 132.341 41.3579C132.351 40.835 132.305 40.304 132.289 39.7755C132.804 39.6176 132.823 38.8288 132.341 38.6524C132.347 38.6153 132.349 38.5783 132.356 38.5412C132.522 37.5978 132.88 36.7002 133.021 35.7495C133.16 34.819 133.25 33.9053 133.461 32.9837C133.664 32.0942 133.882 31.216 133.901 30.2991C133.92 29.4282 133.831 28.5605 133.825 27.6903C133.824 27.2472 133.424 27.0619 133.089 27.1312C132.88 26.8992 132.643 26.6776 132.383 26.5672C130.55 25.1218 128.186 24.379 126.002 23.6571C124.378 23.1197 122.839 22.4591 121.291 21.7323C119.637 20.9565 117.928 20.3538 116.224 19.7028C114.562 19.0688 113.161 18.1157 111.623 17.2471C110.904 16.8403 110.16 16.514 109.476 16.0426C108.734 15.5294 108.054 14.9348 107.346 14.3765C104.594 12.2044 101.49 10.5382 98.4913 8.744C95.1786 6.76365 91.6253 4.97182 88.8803 2.20432C88.4012 1.72252 87.6894 2.32837 87.9076 2.85126C86.2658 3.57395 84.6353 4.32969 82.929 4.89043C81.0271 5.51726 79.031 5.90479 77.088 6.38659C73.3486 7.31151 69.5932 8.17036 65.832 9.00262C65.737 8.89788 65.6316 8.80041 65.5084 8.71178C65.2966 8.56032 64.9616 8.6304 64.7869 8.80524C64.654 8.93898 64.6113 9.10253 64.6274 9.26931C58.4386 10.6309 52.2385 11.9393 46.0674 13.3783C45.8862 13.3396 45.6914 13.3742 45.5513 13.5007C43.9247 13.881 42.3006 14.2702 40.6806 14.6738C32.9771 16.5945 25.5435 19.4507 17.8231 21.3094C15.7376 21.8121 13.6328 22.2004 11.524 22.5751C11.1037 22.6178 10.6842 22.6556 10.2614 22.6548C9.33221 22.6524 8.42957 22.3608 7.50681 22.277C7.06233 22.2375 6.63074 22.1867 6.19351 22.0933C5.97691 22.0457 5.76272 21.9958 5.54773 21.9402C5.48895 21.9249 5.43179 21.9088 5.37301 21.8919C5.34482 21.8814 5.31664 21.8701 5.28845 21.8596C5.33918 21.8814 5.34401 21.8838 5.30294 21.8661C4.83029 21.6679 4.17405 21.2296 3.63697 21.3996C3.41474 21.4697 3.16513 21.713 3.19975 21.9732C3.31731 22.8514 3.98562 23.3445 4.59677 23.8883C4.08547 24.0035 3.57577 24.1236 3.06849 24.2549C2.58859 24.3798 2.1119 24.5119 1.63764 24.6545C1.20604 24.7851 0.63033 24.8544 0.33965 25.2266C-0.0444341 25.7205 -0.0685904 26.2321 0.0980877 26.7139C0.0699054 26.7815 0.0513786 26.8589 0.0505733 26.9475C0.0135338 30.0832 0.391989 33.2084 0.440301 36.3425C0.490224 39.4863 0.631946 42.6268 0.747896 45.7681C0.804261 47.315 0.875912 48.8587 0.977368 50.4032C1.08044 51.9622 1.18109 53.5236 1.17786 55.0866C1.17545 56.0397 0.76801 57.2748 1.47659 58.0644C2.08855 58.7468 3.15305 58.9555 4.00496 59.1496C4.41722 59.2431 4.83594 59.3213 5.23935 59.4486C5.8344 59.6371 6.40769 59.9384 6.97214 60.2059C8.33858 60.8537 9.67041 61.5707 10.9974 62.2958C13.533 63.6832 16.1008 65.0126 18.6251 66.4217C21.1108 67.8083 23.5369 69.3077 25.7617 71.089C28.1201 72.9767 30.5937 74.7113 33.1269 76.3557C34.3444 77.1461 35.557 77.9896 36.8776 78.5987C38.1345 79.178 39.455 79.6002 40.7144 80.1722C41.9939 80.7531 43.1042 81.5588 44.2219 82.3983C45.3379 83.2362 46.4958 84.0371 47.8244 84.4979C48.1674 84.6163 48.512 84.7034 48.8727 84.7469C49.1562 84.7815 49.4308 84.7879 49.6836 84.937C49.7585 84.9813 49.8326 85.0031 49.9058 85.0127C49.7037 85.4268 50.0145 86.0488 50.5701 85.8635C52.3271 85.277 54.0985 84.7267 55.7879 83.9613C57.4563 83.2056 58.9548 82.1639 60.471 81.1511C61.2005 80.6629 61.9356 80.1827 62.6982 79.7468C63.5163 79.2787 64.3746 78.8872 65.208 78.4473C66.8055 77.6021 68.3692 76.6861 70.0199 75.9448C71.7511 75.1682 73.5765 74.5977 75.348 73.9234C77.1323 73.2442 78.8643 72.4748 80.5625 71.603C80.7864 71.487 81.0102 71.3702 81.2349 71.2534C81.4056 71.2824 81.59 71.238 81.7494 71.0995C81.8235 71.0342 81.8895 70.9617 81.9459 70.8844C83.2567 70.2028 84.5652 69.5163 85.8801 68.8436C86.7554 68.3964 87.629 67.9436 88.5325 67.5521C89.4166 67.167 90.3168 66.8197 91.1913 66.4104C91.9973 66.0334 92.7703 65.5854 93.6029 65.2688C94.5047 64.9248 95.4589 64.7282 96.3784 64.4341C98.2127 63.8476 99.9986 63.1184 101.76 62.3434C103.481 61.586 105.27 60.8593 106.882 59.8885C107.71 59.3889 108.523 58.8942 109.43 58.5486C110.282 58.2239 111.161 57.9726 112.02 57.6664C113.884 57.0017 115.744 56.3217 117.59 55.6111C119.398 54.915 121.228 54.3091 123.068 53.7065C124.549 53.2215 125.996 52.6422 127.476 52.1523C128.583 51.7866 129.748 51.4119 130.691 50.7045Z" fill="#57544F"/>
<path d="M45.2121 32.298C44.547 32.3286 44.1178 32.7669 43.5638 33.0642C43.2885 33.2117 42.9728 33.2898 42.6813 33.3986C42.3109 33.5371 41.9631 33.7104 41.6096 33.8876C41.0041 34.1898 40.3277 34.4371 39.7697 34.823C39.537 34.9825 39.326 35.1695 39.1006 35.3386C38.925 35.47 38.681 35.6384 38.5273 35.6416C37.7623 35.6577 37.7599 36.8485 38.5273 36.8332C39.165 36.8195 39.6553 36.411 40.1304 36.0331C40.6329 35.6335 41.24 35.391 41.8133 35.1106C42.133 34.9551 42.447 34.7763 42.7731 34.6353C43.0879 34.4991 43.4189 34.4032 43.7386 34.2792C44.0381 34.1607 44.2982 34.0173 44.5631 33.836C44.7491 33.7104 45.0027 33.4985 45.2121 33.488C45.9746 33.4526 45.9786 32.2618 45.2121 32.298Z" fill="#57544F"/>
<path d="M88.8231 18.9745C89.7362 18.7271 90.6622 18.5297 91.5665 18.251C91.9997 18.1172 92.416 17.9601 92.8258 17.7676C93.1632 17.6081 93.4837 17.4606 93.8645 17.509C94.1834 17.55 94.4588 17.206 94.4588 16.9135C94.4588 16.5591 94.1842 16.3593 93.8645 16.319C93.3854 16.2577 92.9313 16.4205 92.5013 16.6114C92.1172 16.7814 91.7484 16.9458 91.3458 17.0731C90.411 17.368 89.4512 17.571 88.5059 17.8264C87.7675 18.0262 88.0815 19.1751 88.8231 18.9745Z" fill="#57544F"/>
<path d="M77.2708 29.4967C77.27 29.5128 77.27 29.5233 77.27 29.5313C77.2675 29.5378 77.2643 29.5482 77.2603 29.5635C77.2088 29.7746 77.1854 29.8205 77.0389 30.0292C77.03 30.0413 77.0252 30.0486 77.0236 30.0526C77.0155 30.0606 77.0083 30.0695 76.9962 30.084C76.9543 30.134 76.91 30.1831 76.8641 30.229C76.786 30.3112 76.7015 30.3894 76.6153 30.4627C76.6129 30.4643 76.6097 30.4667 76.6065 30.4691C76.1974 29.9825 75.7771 29.5047 75.3705 29.0157C74.864 28.4066 74.368 27.7894 73.8752 27.1691C73.9308 27.1795 73.9855 27.1892 74.0403 27.2005C74.8012 27.36 75.5565 27.5671 76.1773 27.903C76.3303 27.9852 76.4793 28.0779 76.6218 28.1794C76.6306 28.1858 76.6354 28.189 76.6427 28.1947C76.6459 28.1971 76.6491 28.1995 76.6556 28.206C76.691 28.235 76.7256 28.264 76.7595 28.2954C76.8263 28.355 76.8883 28.4203 76.9503 28.4855C76.9664 28.5033 76.9825 28.5226 76.9978 28.5419C77.0091 28.5572 77.0276 28.5822 77.034 28.5927C77.0759 28.6588 77.1162 28.7248 77.154 28.7933C77.1645 28.8118 77.1733 28.832 77.183 28.8521C77.1894 28.8699 77.2007 28.9013 77.2047 28.915C77.2281 29.0004 77.2522 29.085 77.2675 29.172C77.2627 29.1688 77.2764 29.3436 77.2764 29.379C77.2756 29.4185 77.2732 29.4572 77.2708 29.4967ZM69.4747 25.6189C69.0375 25.5996 68.7815 25.5827 68.366 25.4642C68.2782 25.4401 68.1928 25.4119 68.1075 25.3805C68.097 25.3756 68.0906 25.374 68.0858 25.3724C68.0777 25.3684 68.0713 25.3651 68.06 25.3603C68.0246 25.3426 67.9899 25.3257 67.9553 25.3071C67.8788 25.2653 67.8039 25.2209 67.7331 25.1702C67.725 25.1637 67.721 25.1613 67.717 25.1597C67.7097 25.1533 67.7041 25.1476 67.6936 25.1379C67.6501 25.0993 67.6083 25.059 67.5664 25.0171C67.4746 24.9252 67.51 24.9687 67.4352 24.8527C67.378 24.7625 67.324 24.6674 67.283 24.5691C67.2298 24.4426 67.1557 24.1583 67.1501 23.9802C67.134 23.4863 67.295 23.023 67.5688 22.596C67.7629 22.2947 68.0125 22.0216 68.2983 21.7992C69.2557 23.077 70.2115 24.3556 71.1802 25.6254C70.6117 25.6133 70.0416 25.6423 69.4747 25.6189ZM77.836 32.2158C77.6718 31.9467 77.5043 31.6809 77.3279 31.4214C77.6701 31.1459 77.9705 30.8252 78.1798 30.4506C78.5881 29.7206 78.5486 28.7917 78.1186 28.0795C77.7168 27.414 77.0381 26.966 76.3383 26.6639C75.2215 26.1805 73.9984 25.9332 72.7833 25.7728C71.8984 24.6272 71.0288 23.4702 70.1608 22.3108C69.9015 21.9652 69.6414 21.6179 69.3813 21.2707C69.614 21.2183 69.854 21.1998 70.0948 21.2256C70.4152 21.2594 70.6898 20.9283 70.6898 20.6294C70.6898 20.2805 70.416 20.0686 70.0948 20.0348C69.5939 19.9824 69.0898 20.0654 68.614 20.2491C68.1671 19.6545 67.7186 19.0615 67.2661 18.4718C67.0712 18.2164 66.7548 18.081 66.4528 18.2575C66.2016 18.4049 66.0421 18.815 66.2386 19.0728C66.6887 19.6593 67.134 20.2491 67.5785 20.8389C66.6058 21.5938 65.9262 22.7692 65.9576 23.9415C65.9842 24.8882 66.4536 25.8067 67.2789 26.2925C68.0141 26.7243 68.9071 26.8009 69.7421 26.817C70.1616 26.8258 70.5827 26.8146 71.0022 26.817C71.1898 26.8178 71.3775 26.8218 71.5643 26.8323C71.644 26.8363 71.7229 26.8411 71.801 26.8484C71.8493 26.8532 71.896 26.8589 71.9435 26.8645C71.9459 26.8645 71.9459 26.8645 71.9475 26.8645C71.9556 26.8661 71.9612 26.8669 71.9741 26.8685C72.0353 26.8766 72.0973 26.8855 72.1593 26.8943C72.7149 27.6106 73.2753 28.3236 73.847 29.0278C74.2867 29.5692 74.7319 30.1058 75.1837 30.6367C75.3157 30.7922 75.4478 30.9453 75.5798 31.1C74.8978 31.4287 74.145 31.6382 73.4372 31.5544C73.1183 31.5165 72.8421 31.8549 72.8421 32.1498C72.8421 32.5035 73.1167 32.7073 73.4372 32.746C74.335 32.8515 75.2803 32.5381 76.0855 32.1723C76.1652 32.1361 76.2449 32.0966 76.3246 32.0563C76.3399 32.0773 76.3552 32.0982 76.3697 32.1199C76.7691 32.7226 77.1178 33.3591 77.5276 33.9561C77.6999 34.2091 77.8843 34.4451 78.1001 34.6627C78.1863 34.7505 78.2902 34.8383 78.3594 34.9398C78.4013 35.0019 78.4142 35.0333 78.4134 35.1227C78.4069 35.8889 79.597 35.8897 79.6034 35.1227C79.6083 34.5152 79.2274 34.1229 78.8353 33.7136C78.4456 33.3075 78.142 32.717 77.836 32.2158Z" fill="#57544F"/>
<path d="M120.66 71.6522C120.66 71.9253 120.696 72.1977 120.721 72.47C120.691 72.781 120.667 73.0928 120.663 73.4054C120.645 73.4134 120.633 73.4207 120.632 73.4215C120.523 73.4618 120.411 73.4972 120.3 73.5287C119.995 73.6141 119.684 73.6809 119.372 73.7413C119.119 73.7905 118.865 73.8292 118.611 73.8711C118.516 73.8799 118.421 73.892 118.325 73.8993C118.05 73.921 117.773 73.9307 117.497 73.9275C116.5 73.9186 115.517 73.7566 114.534 73.5979C113.563 73.44 112.586 73.2869 111.599 73.2676C110.911 73.2547 110.222 73.2886 109.535 73.3014C108.166 73.3288 106.618 73.3562 105.384 72.7302C104.719 72.3934 104.189 71.902 104.028 71.1406C103.877 70.4308 103.954 69.6823 103.999 68.95C104.322 69.319 104.718 69.6203 105.14 69.8684C106.27 70.5307 107.525 70.8441 108.815 71.0036C110.569 71.2212 112.375 71.1535 114.14 71.1382C115.037 71.1293 115.938 71.0971 116.83 70.9916C117.432 70.9199 118.018 70.795 118.606 70.6749C118.158 71.1148 118.715 71.9753 119.328 71.6087C119.75 71.3557 120.04 70.9609 120.079 70.4816C120.138 70.4832 120.198 70.4872 120.257 70.4936C120.267 70.4977 120.393 70.5178 120.385 70.5162C120.409 70.5218 120.614 70.5903 120.539 70.5573C120.681 70.6209 120.668 70.6161 120.741 70.7039C120.741 70.7031 120.741 70.7031 120.741 70.7031V70.7039C120.742 70.7072 120.744 70.7088 120.747 70.712C120.744 70.7088 120.743 70.7088 120.741 70.7056C120.749 70.7402 120.764 70.774 120.772 70.8087C120.798 70.9239 120.807 71.0882 120.806 71.2631C120.718 71.3573 120.66 71.4854 120.66 71.6522ZM120.124 77.6255C120.118 77.6577 120.11 77.6908 120.104 77.723C119.594 77.8253 119.093 77.9623 118.587 78.0856C117.994 78.2306 117.418 78.3007 116.808 78.3007C115.331 78.2991 113.843 78.4449 112.371 78.2717C110.928 78.1017 109.483 77.7335 108.073 77.3878C106.758 77.064 105.449 76.7086 104.154 76.3139C104.054 76.2833 103.952 76.2518 103.853 76.2156C103.83 76.2067 103.806 76.1971 103.782 76.1882C103.763 76.1793 103.723 76.1608 103.713 76.1543C103.69 76.1415 103.665 76.1261 103.641 76.1141C103.632 76.11 103.628 76.1076 103.622 76.1044C103.48 75.986 103.677 76.1495 103.566 76.0408C103.564 76.0383 103.539 75.986 103.533 75.9602C103.526 75.9231 103.517 75.8844 103.506 75.849C103.501 75.8313 103.498 75.8192 103.496 75.8111C103.496 75.8039 103.495 75.7934 103.493 75.7749C103.466 75.5154 103.466 75.2552 103.466 74.9966C103.467 74.6622 103.242 74.4737 102.987 74.431C103.04 73.7067 103.116 72.984 103.194 72.2621C103.426 72.6867 103.749 73.0557 104.166 73.3707C105.461 74.3512 107.208 74.4914 108.775 74.4995C109.544 74.5035 110.313 74.4656 111.083 74.4576C112.031 74.4479 112.963 74.5462 113.898 74.6945C114.983 74.8661 116.07 75.0667 117.169 75.1102C117.964 75.1424 118.746 75.0643 119.527 74.9201C119.903 74.8508 120.279 74.7742 120.647 74.6679C120.659 74.6646 120.672 74.6606 120.684 74.6566C120.697 75.1158 120.713 75.5751 120.727 76.0335C120.739 76.4234 120.75 76.8166 120.757 77.2098C120.486 77.1598 120.199 77.2758 120.124 77.6255ZM103.53 75.9731C103.558 76.0238 103.566 76.0416 103.566 76.0408C103.552 76.0271 103.538 75.9876 103.53 75.9731ZM120.504 81.0513C120.427 81.4452 120.327 81.8279 120.237 82.2138C120.204 82.2098 120.175 82.2042 120.141 82.2042C117.528 82.205 114.888 82.2719 112.317 81.7369C111.664 81.6015 111.028 81.4138 110.367 81.322C109.693 81.2301 109.016 81.2003 108.338 81.1536C107.294 81.0819 106.227 80.8925 105.221 80.5953C105.133 80.5695 104.969 80.5163 104.925 80.4994C104.96 80.5139 104.92 80.4913 104.887 80.4752C104.881 80.4688 104.877 80.4639 104.874 80.4607C104.872 80.4478 104.867 80.4325 104.86 80.4188C104.844 80.3826 104.827 80.3479 104.809 80.3117C104.776 80.2391 104.748 80.1642 104.711 80.0925C104.459 79.601 103.969 79.3779 103.429 79.4173C103.215 79.4335 103.024 79.543 102.919 79.7146C102.918 78.9984 102.917 78.2813 102.915 77.5651C102.914 77.3943 102.913 77.2227 102.913 77.0511C102.984 77.1067 103.062 77.1582 103.151 77.2025C103.553 77.4048 104.001 77.5103 104.431 77.6352C105.182 77.8551 105.935 78.0662 106.691 78.2652C108.257 78.6753 109.835 79.0355 111.427 79.3207C112.991 79.6027 114.548 79.5301 116.128 79.4979C116.947 79.481 117.744 79.485 118.551 79.315C119.286 79.1595 120.002 78.9323 120.744 78.8099C120.715 79.5632 120.647 80.3133 120.504 81.0513ZM104.887 80.4808C104.886 80.4994 104.883 80.4921 104.878 80.4752C104.881 80.4768 104.885 80.4792 104.887 80.4808ZM104.877 80.4696C104.877 80.4671 104.876 80.4647 104.875 80.4623C104.877 80.4655 104.881 80.4688 104.884 80.4728C104.881 80.472 104.879 80.4712 104.877 80.4696ZM119.861 85.1159C119.784 85.646 119.665 86.2833 119.327 86.6491C118.994 87.0084 118.453 87.1502 117.948 87.2082C117.339 87.2775 116.721 87.2493 116.11 87.23C115.354 87.2058 114.598 87.2244 113.841 87.2397C112.189 87.2735 110.507 87.3267 108.882 86.9778C108.063 86.8022 107.27 86.5323 106.531 86.1351C105.782 85.7315 105.1 85.2206 104.416 84.7163C104.115 84.4947 103.818 84.22 103.459 84.0975C103.335 84.0556 103.207 84.0299 103.082 84.0009C103.036 83.9904 102.992 83.9799 102.946 83.9694C102.922 83.9638 102.898 83.9565 102.875 83.9501C102.869 83.934 102.865 83.9203 102.864 83.9163C102.85 83.8454 102.842 83.718 102.839 83.5843C102.835 83.287 102.859 82.9897 102.883 82.6932C102.946 81.9278 102.919 81.1544 102.92 80.3866C102.92 80.3608 102.92 80.335 102.92 80.31C103.025 80.4897 103.215 80.6234 103.429 80.6089C103.493 80.6041 103.587 80.5977 103.631 80.6025C103.634 80.6049 103.637 80.6081 103.64 80.6106C103.652 80.6363 103.685 80.6952 103.695 80.7153C103.73 80.7862 103.758 80.8619 103.792 80.9344C103.986 81.3478 104.304 81.546 104.725 81.6878C105.711 82.0205 106.815 82.2066 107.845 82.3041C108.485 82.3645 109.127 82.3822 109.767 82.4427C110.436 82.5063 111.07 82.6795 111.723 82.8262C113.013 83.1138 114.332 83.2669 115.649 83.337C117.109 83.4151 118.571 83.3974 120.032 83.3958C119.972 83.9694 119.944 84.5455 119.861 85.1159ZM116.765 89.4819C115.512 89.7639 114.171 89.6237 112.907 89.5375C111.356 89.4303 109.821 89.498 108.269 89.4972C106.869 89.4972 105.495 89.3111 104.129 89.013C103.044 88.7777 101.747 88.4442 101.023 87.5313C100.85 87.3138 100.736 87.0874 100.675 86.8578C100.627 86.6773 100.633 86.7055 100.637 86.5242C100.637 86.5291 100.645 86.4509 100.648 86.4195C100.658 86.3849 100.681 86.2954 100.686 86.2785C100.692 86.2608 100.767 86.1174 100.805 86.0706C100.839 86.0287 100.967 85.9176 101.014 85.8877C101.286 85.7137 101.59 85.6485 101.916 85.6041C102.177 85.5679 102.339 85.2851 102.347 85.0305C102.449 85.0708 102.557 85.099 102.663 85.1256C102.764 85.1497 102.865 85.1707 102.966 85.1957C103.007 85.2061 103.047 85.2174 103.088 85.2287C103.098 85.2311 103.103 85.2327 103.111 85.2343C103.115 85.2368 103.117 85.2392 103.124 85.2432C103.692 85.5961 104.207 86.0465 104.756 86.4284C105.854 87.1954 107.054 87.7738 108.361 88.0808C110.89 88.6738 113.477 88.3402 116.042 88.4184C116.279 88.4256 116.52 88.4353 116.761 88.4393C116.765 88.785 116.789 89.1363 116.765 89.4819ZM107.808 67.0574C109.128 66.9978 110.447 67.0792 111.764 67.1509C113.016 67.2186 114.279 67.1847 115.497 67.5215C116.084 67.6835 116.638 67.9203 117.133 68.278C117.162 68.299 117.191 68.3215 117.22 68.3425C117.226 68.3465 117.228 68.3481 117.232 68.3514C117.233 68.3514 117.233 68.3514 117.234 68.3522C117.305 68.4078 117.375 68.465 117.444 68.523C117.619 68.6688 117.788 68.8211 117.951 68.979C118.138 69.1619 118.298 69.3262 118.44 69.5019C118.421 69.5059 118.4 69.5107 118.381 69.5156C117.022 69.8362 115.645 69.9297 114.253 69.9458C112.867 69.9619 111.469 69.9788 110.084 69.9168C108.992 69.8684 107.88 69.7323 106.847 69.3585C106.139 69.1031 105.315 68.7107 104.816 68.0927C104.808 68.0822 104.804 68.0766 104.801 68.0726C104.794 68.0629 104.787 68.0524 104.775 68.0347C104.753 68.0009 104.731 67.9662 104.709 67.93C104.689 67.8953 104.67 67.8599 104.652 67.8236C104.645 67.8116 104.642 67.8051 104.638 67.797C104.637 67.793 104.637 67.7858 104.632 67.7721C104.627 67.7576 104.618 67.7197 104.609 67.6818C105.612 67.2516 106.728 67.1066 107.808 67.0574ZM121.141 69.5293C120.708 69.3166 120.225 69.265 119.738 69.2916C119.629 69.1087 119.502 68.9355 119.37 68.7703C118.714 67.9461 117.82 67.1775 116.852 66.7489C115.421 66.1148 113.922 66.0665 112.387 65.9915C110.893 65.9198 109.399 65.803 107.903 65.8626C107.144 65.8932 106.381 65.969 105.638 66.1236C105.323 66.1889 105.009 66.2711 104.704 66.3734C104.356 66.4902 103.846 66.6199 103.581 66.8866C103.371 67.0961 103.338 67.4135 103.393 67.735C103.108 67.7511 102.835 67.9405 102.833 68.307C102.832 68.4827 102.826 68.6575 102.82 68.8323C102.508 68.8589 102.297 69.1175 102.277 69.4221C102.182 70.8248 101.996 72.2186 101.863 73.6181C101.728 75.0522 101.72 76.479 101.726 77.918C101.731 79.3666 101.762 80.8192 101.721 82.267C101.71 82.682 101.649 83.0937 101.649 83.5086C101.649 83.8035 101.666 84.1539 101.779 84.4504C101.719 84.4464 101.66 84.4472 101.599 84.4552C100.909 84.5487 100.247 84.8404 99.8223 85.4092C99.4575 85.8974 99.3778 86.5258 99.5114 87.1116C99.8311 88.507 101.179 89.3344 102.432 89.78C103.09 90.0136 103.773 90.1643 104.459 90.2908C105.216 90.4302 105.98 90.5679 106.749 90.6324C108.531 90.7822 110.32 90.5744 112.104 90.6759C113.865 90.7766 115.736 91.057 117.458 90.5365C117.646 90.4801 117.836 90.3222 117.874 90.12C117.98 89.5463 117.953 88.9832 117.951 88.4047C118.284 88.3717 118.614 88.3144 118.934 88.2153C119.969 87.8955 120.605 87.1422 120.875 86.1069C121.141 85.095 121.109 84.0371 121.268 83.0099C121.351 82.4701 121.534 81.9536 121.641 81.4187C121.771 80.7709 121.849 80.1126 121.895 79.4544C121.988 78.1371 121.944 76.8158 121.899 75.4977C121.881 74.9168 121.863 74.3359 121.855 73.755C121.99 73.3611 121.959 72.8978 121.913 72.4531C121.925 72.3242 121.939 72.1944 121.95 72.0655C122.033 71.1575 122.107 70.003 121.141 69.5293Z" fill="#57544F"/>
<path d="M120.741 70.7055C120.691 70.6524 120.766 70.8143 120.741 70.7055V70.7055Z" fill="#57544F"/>
<path d="M96.705 85.0297C96.7058 85.2311 96.7114 85.4325 96.7186 85.634C96.6977 85.7097 96.6744 85.7846 96.6454 85.8571C96.6373 85.8708 96.593 85.9651 96.5842 85.982C96.552 86.04 96.5173 86.0956 96.4819 86.152C96.4674 86.1746 96.4505 86.1955 96.436 86.2173C96.4328 86.2213 96.4312 86.2229 96.428 86.2261C96.3901 86.2688 96.3531 86.3115 96.3136 86.3518C96.2734 86.3913 96.2315 86.4299 96.1896 86.4678C96.1695 86.4872 96.1486 86.5041 96.1268 86.5218C96.1236 86.5234 96.1228 86.525 96.1188 86.5266C96.0165 86.5983 95.9118 86.6644 95.8015 86.7248C95.7492 86.753 95.696 86.778 95.6429 86.8046C95.6236 86.8134 95.605 86.8223 95.5849 86.8304C95.5688 86.8368 95.5326 86.8521 95.5205 86.857C95.2532 86.9528 94.9834 87.031 94.7056 87.0882C94.5736 87.1156 94.4415 87.1373 94.3095 87.1583C94.3022 87.1591 94.2813 87.1623 94.2668 87.1631C94.2362 87.1672 94.2064 87.1712 94.1774 87.1744C94.0993 87.1833 94.0204 87.1921 93.9415 87.1986C93.6419 87.2268 93.3416 87.2421 93.0405 87.2501C92.4446 87.2646 91.8479 87.2509 91.2505 87.2356C89.2375 87.1881 87.2236 87.35 85.2146 87.147C85.0826 87.1333 84.9513 87.1188 84.8193 87.1019C84.775 87.0971 84.7621 87.0962 84.7589 87.0962C84.7549 87.0954 84.7412 87.093 84.6985 87.0866C84.6244 87.0753 84.5503 87.064 84.4771 87.0527C84.1985 87.0076 83.9207 86.9536 83.6453 86.8876C83.3933 86.8271 83.142 86.7562 82.8956 86.67C82.8409 86.6515 82.7861 86.6314 82.7306 86.6112C82.7145 86.6048 82.6275 86.5693 82.5953 86.5581C82.5671 86.5452 82.5083 86.5194 82.4906 86.5105C82.4335 86.4839 82.3763 86.4565 82.3207 86.4275C82.2185 86.3752 82.1178 86.3188 82.0204 86.2567C81.9753 86.2293 81.931 86.2011 81.8883 86.1713C81.8634 86.1552 81.84 86.1367 81.8158 86.1206C81.8126 86.1181 81.811 86.1174 81.8086 86.1157C81.7273 86.0489 81.6484 85.9812 81.5743 85.9071C81.5397 85.8724 81.5059 85.8362 81.4728 85.7991C81.4608 85.7862 81.4245 85.7419 81.4036 85.7161C81.3843 85.6871 81.3456 85.6323 81.3392 85.6219C81.3134 85.5816 81.2876 85.5405 81.2643 85.4978C81.2409 85.4551 81.22 85.4116 81.1983 85.3681C81.191 85.3552 81.187 85.3479 81.1846 85.3423C81.1822 85.3334 81.1781 85.3197 81.1701 85.2956C81.1395 85.1989 81.1105 85.103 81.0896 85.0031C81.0847 84.9813 81.0742 84.8943 81.071 84.8798C81.067 84.8371 81.063 84.7944 81.0614 84.7517C81.0557 84.6284 81.059 84.5052 81.0694 84.3811C81.0719 84.3586 81.0799 84.2933 81.0823 84.2707C81.0928 84.1998 81.1057 84.1289 81.121 84.0588C81.1886 83.743 81.2796 83.4248 81.4439 83.1452C81.778 82.578 82.3843 82.3758 82.9963 82.3162C83.9239 82.2267 84.8732 82.2864 85.8032 82.288C87.0022 82.2904 88.202 82.2864 89.4025 82.2831C89.6304 82.2823 89.8591 82.2823 90.087 82.2823C91.1096 82.3137 92.0903 82.5845 93.0968 82.7319C93.6033 82.8068 94.1041 82.8399 94.6154 82.8552C94.7797 82.86 94.944 82.8656 95.1082 82.8745C95.1952 82.8801 95.2821 82.8858 95.3699 82.8946C95.4013 82.8979 95.4327 82.9003 95.4641 82.9035C95.4834 82.9059 95.4859 82.9059 95.4827 82.9051C95.4899 82.9059 95.5004 82.9075 95.5173 82.9108C95.6485 82.9333 95.779 82.9599 95.9062 83.0002C95.9271 83.0058 96.0318 83.0509 96.0447 83.0534C96.0954 83.0799 96.1461 83.1082 96.1953 83.138C96.2041 83.1428 96.2106 83.1468 96.2154 83.15C96.2387 83.1686 96.2605 83.1871 96.2814 83.2072C96.304 83.2306 96.403 83.337 96.3805 83.3096C96.4086 83.3442 96.5415 83.5795 96.5584 83.6214C96.6961 83.9557 96.7645 84.344 96.7887 84.6711C96.7895 84.6865 96.7895 84.7026 96.7903 84.7171C96.738 84.8025 96.705 84.9048 96.705 85.0297ZM96.7541 88.1082C96.7299 88.4756 96.7106 88.656 96.618 89.017C96.5302 89.3578 96.4835 89.4891 96.3088 89.7695C96.184 89.9677 96.0133 90.1465 95.8128 90.273C95.1573 90.6872 94.1685 90.6968 93.3513 90.7283C91.0387 90.8161 88.7294 90.5462 86.4168 90.5687C85.2058 90.5808 83.9939 90.6219 82.7829 90.5832C82.3883 90.5695 82.0759 90.5768 81.7313 90.4479C81.7281 90.4439 81.6468 90.406 81.6234 90.3931C81.5687 90.3617 81.5155 90.3262 81.4632 90.2899C81.4173 90.2569 81.4278 90.2634 81.3472 90.1941C81.2643 90.124 81.1846 90.0507 81.1049 89.9782C80.8005 89.6986 80.4381 89.3812 80.2602 89.0919C80.2409 89.0597 80.2224 89.0275 80.2046 88.9952C80.2006 88.9872 80.1781 88.938 80.1668 88.9131C80.1571 88.8784 80.1233 88.7697 80.1153 88.7366C80.1104 88.7124 80.0927 88.5988 80.0887 88.5835C80.0798 88.4957 80.075 88.4071 80.071 88.3193C80.0388 87.4411 80.05 86.558 80.0605 85.6766C80.2151 86.1206 80.4752 86.5274 80.8569 86.865C81.7208 87.6304 82.8811 87.9785 83.9964 88.1726C86.2131 88.5602 88.4314 88.3821 90.6643 88.4143C91.9687 88.4337 93.2715 88.5022 94.5687 88.3144C95.3297 88.2041 96.1389 87.9696 96.7734 87.516C96.7718 87.7134 96.7669 87.9108 96.7541 88.1082ZM97.9426 84.3408C97.8347 83.5174 97.5826 82.6779 96.8821 82.1695C96.2967 81.7457 95.5285 81.6974 94.832 81.6708C94.3578 81.6539 93.8851 81.6507 93.4141 81.5846C92.8649 81.5065 92.3238 81.3824 91.7795 81.2841C91.7119 81.2712 91.6442 81.2607 91.5766 81.2502C91.4816 81.1544 91.3479 81.0891 91.1724 81.0891C88.7004 81.0899 86.2236 81.0625 83.7516 81.0899C82.9286 81.0988 82.0405 81.1665 81.3231 81.6128C80.5726 82.0801 80.1676 82.8705 79.9792 83.714C79.9526 83.8349 79.9325 83.9557 79.9156 84.0766C79.5959 83.7454 78.8784 83.8751 78.8784 84.473C78.8793 85.7177 78.8511 86.9673 78.8776 88.2121C78.8962 89.0436 79.1337 89.6905 79.7118 90.294C80.2457 90.8515 80.8738 91.4936 81.6548 91.6636C82.1742 91.7772 82.7217 91.7756 83.2507 91.7845C83.915 91.7958 84.5793 91.7869 85.2444 91.7764C86.4772 91.7579 87.706 91.7539 88.9387 91.8095C90.1908 91.8659 91.4437 91.9448 92.6974 91.9335C94.4544 91.9182 96.6719 91.8981 97.5126 90.0394C98.1205 88.6939 97.9707 87.1833 97.9128 85.733C98.0046 85.2786 98.0037 84.8073 97.9426 84.3408Z" fill="#57544F"/>
<path d="M139.801 100.387C138.689 101.049 137.498 101.538 136.206 101.704C134.774 101.888 133.319 101.797 131.881 101.734C130.645 101.681 129.408 101.555 128.208 101.242C127.128 100.96 125.899 100.495 125.211 99.585C125.091 99.4255 124.964 99.187 124.92 99.0597C124.835 98.8124 124.803 98.6424 124.792 98.4257C124.771 97.9938 124.83 97.5757 124.915 97.1583C125.106 97.8778 125.517 98.5256 126.176 98.9937C126.78 99.4207 127.516 99.7083 128.206 99.9621C128.952 100.237 129.724 100.44 130.507 100.578C132.838 100.987 135.15 100.784 137.424 100.188C138.361 99.9444 139.292 99.639 140.16 99.2048C140.769 98.8994 141.388 98.4933 141.793 97.9334C141.601 99.0476 140.741 99.8267 139.801 100.387ZM126.908 94.0452C127.643 93.681 128.483 93.5159 129.318 93.3555C129.827 93.258 130.336 93.1646 130.841 93.0486C131.292 92.9454 131.354 92.487 131.17 92.1768C132.054 91.998 132.967 91.9794 133.877 91.977C134.68 91.9754 135.484 91.9182 136.287 91.9375C136.874 91.952 137.377 92.0447 137.85 92.4121C138.313 92.7706 138.683 93.2516 139.054 93.6995C139.475 94.2087 139.924 94.6833 140.388 95.153C140.63 95.3995 140.882 95.6541 141.107 95.9216C140.986 96.0505 140.923 96.2342 140.985 96.4582C140.999 96.5041 141.008 96.5508 141.02 96.5968C141.02 96.5984 141.02 96.5984 141.02 96.6C141.023 96.6604 141.022 96.7184 141.02 96.7772C141.016 96.7982 141.004 96.8957 140.994 96.9279C140.985 96.9569 140.975 96.9851 140.966 97.0133C140.957 97.031 140.949 97.0471 140.94 97.0641C140.903 97.1277 140.866 97.1906 140.825 97.2526C140.82 97.2598 140.819 97.2623 140.816 97.2679C140.812 97.2711 140.81 97.2719 140.806 97.2776C140.786 97.3017 140.766 97.3251 140.744 97.3485C140.679 97.421 140.609 97.4887 140.537 97.5539C140.512 97.5765 140.487 97.5982 140.461 97.62C140.441 97.6369 140.421 97.653 140.401 97.6691C140.395 97.6732 140.388 97.6788 140.377 97.6869C140.054 97.9197 139.706 98.1114 139.346 98.279C139.001 98.4402 138.614 98.5852 138.181 98.727C136.531 99.2684 134.774 99.6326 133.034 99.6213C131.628 99.6132 130.23 99.3885 128.895 98.9453C128.239 98.7262 127.585 98.4579 126.989 98.1034C126.57 97.8536 126.242 97.4742 126.09 97.0069C125.778 96.0384 126.069 94.6623 126.908 94.0452ZM142.511 95.8249C142.16 95.2634 141.691 94.7808 141.229 94.3119C140.724 93.7987 140.243 93.2758 139.784 92.7223C139.361 92.2139 138.928 91.7192 138.386 91.3357C137.755 90.8902 137.044 90.7653 136.287 90.7476C135.417 90.7258 134.544 90.783 133.675 90.787C132.933 90.7903 132.194 90.8128 131.459 90.9151C130.708 91.0191 129.997 91.2261 129.305 91.5347C128.706 91.803 128.154 92.1535 127.559 92.3944C127.078 92.5901 126.605 92.7948 126.189 93.1001C125.507 93.4667 124.912 93.9759 124.481 94.734C124.128 95.3544 123.938 96.0433 123.791 96.7353C123.658 97.3525 123.551 98.0003 123.619 98.6311C123.763 99.9742 124.677 100.963 125.828 101.596C127.108 102.3 128.572 102.597 130.008 102.775C131.447 102.953 132.924 103.006 134.374 102.999C135.989 102.993 137.58 102.791 139.057 102.109C140.273 101.548 141.595 100.854 142.341 99.693C143.098 98.5159 143.265 97.0367 142.511 95.8249Z" fill="#57544F"/>
</svg>
