<svg width="138" height="103" viewBox="0 0 138 103" fill="none" xmlns="http://www.w3.org/2000/svg">
<path d="M119.683 85.7495C120.279 71.8215 120.919 57.873 122.005 43.9734C122.31 40.0621 122.696 36.1563 123.256 32.2725C123.361 31.5452 122.247 31.231 122.142 31.9654C121.152 38.8321 120.688 45.7545 120.259 52.6745C119.823 59.7115 119.429 66.7511 119.08 73.7929C118.882 77.7779 118.698 81.7634 118.527 85.7495C118.495 86.493 119.651 86.4915 119.683 85.7495Z" fill="#57544F"/>
<path d="M131.318 64.0319C127.491 66.6756 123.664 69.319 119.837 71.9628C120.07 71.993 120.303 72.023 120.537 72.0532C116.82 67.6621 112.912 63.4388 108.823 59.3935C108.293 58.8701 107.476 59.6867 108.006 60.2107C112.095 64.2557 116.003 68.4793 119.72 72.8702C119.873 73.052 120.223 73.0964 120.42 72.9607C124.247 70.3169 128.074 67.6734 131.902 65.0296C132.509 64.6097 131.932 63.6078 131.318 64.0319Z" fill="#57544F"/>
<path d="M128.667 51.6286C125.655 53.5536 122.749 55.6344 119.95 57.8579C120.223 57.8579 120.495 57.8579 120.767 57.8579C118.174 55.1405 115.58 52.4232 112.986 49.7058C112.471 49.1668 111.655 49.9848 112.169 50.5229C114.763 53.2403 117.356 55.9577 119.95 58.675C120.183 58.9192 120.527 58.8655 120.767 58.675C123.489 56.5131 126.321 54.498 129.25 52.6264C129.875 52.2272 129.296 51.2267 128.667 51.6286Z" fill="#57544F"/>
<path d="M126.549 39.9437C125.482 40.8949 124.415 41.8463 123.348 42.7976C122.775 43.3087 122.215 43.8426 121.625 44.3343C121.302 44.6034 121.329 44.7209 121.052 44.4317C120.858 44.2285 120.74 43.8775 120.598 43.6334C119.354 41.4872 117.828 39.5135 116.092 37.7432C115.57 37.2113 114.753 38.0287 115.275 38.5602C116.376 39.6829 117.392 40.8804 118.294 42.1693C118.731 42.7936 119.143 43.4355 119.529 44.093C119.825 44.597 120.064 45.2177 120.551 45.5732C121.633 46.3654 122.7 44.9207 123.427 44.2732C124.74 43.1025 126.053 41.9316 127.366 40.7607C127.922 40.2648 127.102 39.4498 126.549 39.9437Z" fill="#57544F"/>
<path d="M123.047 77.9897C124.145 77.7922 125.426 77.153 126.268 76.426C126.832 75.9392 126.012 75.1249 125.451 75.6089C124.758 76.2076 123.64 76.7134 122.74 76.8754C122.009 77.0068 122.319 78.1207 123.047 77.9897Z" fill="#57544F"/>
<path d="M130.116 74.8519C131.006 74.525 131.843 74.1007 132.619 73.5558C133.223 73.1317 132.646 72.1294 132.036 72.5579C131.342 73.0449 130.605 73.4452 129.809 73.7376C129.117 73.992 129.416 75.1092 130.116 74.8519Z" fill="#57544F"/>
<path d="M135.857 69.0896C136.572 68.3072 137.18 67.4425 137.661 66.4977C137.998 65.8364 137.002 65.2511 136.664 65.9144C136.226 66.7734 135.69 67.5607 135.04 68.2727C134.539 68.8207 135.354 69.6402 135.857 69.0896Z" fill="#57544F"/>
<path d="M137.018 61.1107C137.018 60.1087 137.018 59.1068 137.018 58.1049C137.018 57.3614 135.862 57.3601 135.862 58.1049C135.862 59.1068 135.862 60.1087 135.862 61.1107C135.862 61.8542 137.018 61.8554 137.018 61.1107Z" fill="#57544F"/>
<path d="M135.7 51.9276C135.431 50.7294 135.162 49.5313 134.893 48.3332C134.73 47.608 133.615 47.915 133.778 48.6405C134.048 49.8385 134.317 51.0366 134.586 52.2346C134.749 52.96 135.863 52.6529 135.7 51.9276Z" fill="#57544F"/>
<path d="M132.755 40.4972C132.539 39.3572 132.177 38.2715 131.689 37.2194C131.377 36.5453 130.38 37.1315 130.691 37.8025C131.136 38.7626 131.444 39.7656 131.641 40.8044C131.779 41.5343 132.893 41.2252 132.755 40.4972Z" fill="#57544F"/>
<path d="M128.829 31.0603C128.407 30.1136 127.913 29.2076 127.347 28.3402C126.942 27.72 125.941 28.2984 126.349 28.9234C126.916 29.791 127.409 30.6968 127.831 31.6435C128.133 32.3215 129.129 31.7343 128.829 31.0603Z" fill="#57544F"/>
<path d="M124.688 24.3228C124.123 23.6335 123.557 22.9441 122.992 22.2546C122.52 21.6793 121.706 22.501 122.175 23.0717C122.74 23.7611 123.306 24.4506 123.871 25.14C124.343 25.7153 125.157 24.8937 124.688 24.3228Z" fill="#57544F"/>
<path d="M114.999 27.3318C114.313 28.3213 113.496 29.1966 112.572 29.9676C112 30.4445 112.822 31.2581 113.389 30.7846C114.39 29.9495 115.254 28.9859 115.997 27.9149C116.421 27.3023 115.42 26.724 114.999 27.3318Z" fill="#57544F"/>
<path d="M107.66 70.8117C108.273 71.6038 108.887 72.3958 109.5 73.1879C109.693 73.4365 110.114 73.3864 110.317 73.1879C110.563 72.947 110.507 72.616 110.317 72.3707C109.704 71.5787 109.09 70.7866 108.477 69.9947C108.284 69.746 107.863 69.796 107.66 69.9947C107.414 70.2356 107.47 70.5664 107.66 70.8117Z" fill="#57544F"/>
<path d="M116.598 76.0533C115.642 75.6657 114.744 75.1622 113.899 74.5732C113.287 74.1471 112.709 75.1485 113.316 75.5709C114.247 76.2198 115.239 76.7411 116.29 77.1675C116.979 77.447 117.279 76.3296 116.598 76.0533Z" fill="#57544F"/>
<path d="M119.401 22.498C118.847 23.1458 118.252 23.754 117.617 24.3225C117.061 24.8192 117.881 25.6342 118.434 25.1395C119.069 24.5711 119.664 23.9629 120.219 23.3152C120.7 22.7529 119.886 21.932 119.401 22.498Z" fill="#57544F"/>
<path d="M19.2029 85.7495C18.5997 71.6615 17.9645 57.5491 16.8428 43.4914C16.5351 39.6378 16.1402 35.792 15.5885 31.9655C15.4829 31.2322 14.3693 31.544 14.4743 32.2725C15.4649 39.1439 15.9075 46.0774 16.3357 53.0021C16.7674 59.9844 17.1565 66.9695 17.5031 73.9566C17.6981 77.887 17.8792 81.8178 18.0474 85.7495C18.0792 86.4902 19.235 86.4942 19.2029 85.7495Z" fill="#57544F"/>
<path d="M5.82869 65.0297C9.65587 67.6734 13.4832 70.317 17.3104 72.9607C17.505 73.0951 17.8555 73.0536 18.0107 72.8702C21.7267 68.4793 25.6348 64.2558 29.7246 60.2107C30.2542 59.6869 29.4371 58.8699 28.9075 59.3936C24.8178 63.4388 20.9098 67.6622 17.1935 72.0533C17.4269 72.0231 17.6604 71.993 17.8936 71.9628C14.0664 69.3191 10.2391 66.6757 6.41191 64.0319C5.79848 63.6084 5.22004 64.6094 5.82869 65.0297Z" fill="#57544F"/>
<path d="M8.48051 52.6264C11.4092 54.498 14.2416 56.5131 16.9631 58.675C17.2029 58.8655 17.5448 58.9215 17.7802 58.675C20.3741 55.9577 22.968 53.2403 25.5617 50.5229C26.0752 49.9849 25.2594 49.1667 24.7447 49.7058C22.1508 52.4232 19.5569 55.1405 16.9631 57.8579C17.2353 57.8579 17.5077 57.8579 17.7802 57.8579C14.9811 55.6344 12.0759 53.5536 9.06374 51.6286C8.43528 51.227 7.8552 52.2267 8.48051 52.6264Z" fill="#57544F"/>
<path d="M10.3638 40.7607C11.6768 41.9316 12.99 43.1025 14.3031 44.2733C15.0291 44.9207 16.0963 46.3655 17.1791 45.5732C17.6652 45.2177 17.9051 44.597 18.2007 44.093C18.5864 43.4355 18.9986 42.7937 19.4355 42.1693C20.3373 40.8804 21.3541 39.6829 22.455 38.5602C22.9761 38.029 22.1596 37.2112 21.6378 37.7432C19.9017 39.5137 18.3759 41.4872 17.1312 43.6334C16.9976 43.8639 16.8745 44.2551 16.6776 44.4317C16.3949 44.685 16.4544 44.6196 16.1051 44.3343C15.5532 43.8837 15.0363 43.3815 14.5046 42.9074C13.3968 41.9194 12.2888 40.9316 11.1809 39.9437C10.6274 39.4502 9.80732 40.2645 10.3638 40.7607Z" fill="#57544F"/>
<path d="M14.9903 76.8754C14.0911 76.7136 12.9725 76.2078 12.2792 75.6089C11.7189 75.125 10.898 75.939 11.462 76.426C12.3041 77.1532 13.5859 77.7922 14.6832 77.9897C15.4102 78.1204 15.7222 77.0071 14.9903 76.8754Z" fill="#57544F"/>
<path d="M7.92056 73.7376C7.12505 73.4452 6.38731 73.0449 5.69415 72.5579C5.08435 72.1299 4.50624 73.1312 5.11092 73.5558C5.88679 74.1008 6.72407 74.525 7.61335 74.8519C8.31245 75.1089 8.61389 73.9925 7.92056 73.7376Z" fill="#57544F"/>
<path d="M2.69027 68.2727C2.03986 67.5607 1.50401 66.7732 1.06639 65.9143C0.72864 65.2517 -0.2686 65.8358 0.0686555 66.4977C0.550024 67.4425 1.15817 68.3072 1.87313 69.0896C2.37596 69.6398 3.19128 68.8209 2.69027 68.2727Z" fill="#57544F"/>
<path d="M1.86795 61.1107C1.86795 60.1087 1.86795 59.1068 1.86795 58.1049C1.86795 57.3614 0.712402 57.3601 0.712402 58.1049C0.712402 59.1068 0.712402 60.1087 0.712402 61.1107C0.712402 61.8542 1.86795 61.8554 1.86795 61.1107Z" fill="#57544F"/>
<path d="M3.14415 52.2346C3.41323 51.0366 3.68247 49.8385 3.95171 48.6405C4.11448 47.9161 3.00069 47.6068 2.83743 48.3331C2.56819 49.5313 2.29895 50.7294 2.02987 51.9276C1.8671 52.6519 2.98089 52.9611 3.14415 52.2346Z" fill="#57544F"/>
<path d="M6.08942 40.8044C6.2862 39.7656 6.59407 38.7626 7.03895 37.8025C7.34963 37.1321 6.35404 36.5446 6.04138 37.2194C5.55374 38.2714 5.19106 39.3572 4.97514 40.4972C4.83747 41.224 5.95092 41.5354 6.08942 40.8044Z" fill="#57544F"/>
<path d="M9.89912 31.6436C10.3209 30.6968 10.8143 29.7911 11.3812 28.9234C11.7891 28.2991 10.7891 27.7193 10.3835 28.3402C9.81658 29.2077 9.32299 30.1136 8.90138 31.0604C8.60144 31.7337 9.59686 32.3222 9.89912 31.6436Z" fill="#57544F"/>
<path d="M13.8599 25.1399C14.4254 24.4506 14.991 23.761 15.5565 23.0717C16.0245 22.5012 15.2115 21.6791 14.7394 22.2545C14.1738 22.9441 13.6083 23.6334 13.0427 24.3228C12.5747 24.8933 13.3877 25.7156 13.8599 25.1399Z" fill="#57544F"/>
<path d="M21.7338 27.9149C22.4761 28.9859 23.3403 29.9495 24.3414 30.7846C24.9086 31.2579 25.7303 30.4447 25.1585 29.9676C24.2346 29.1966 23.4174 28.3213 22.7315 27.3318C22.3107 26.7247 21.3087 27.3018 21.7338 27.9149Z" fill="#57544F"/>
<path d="M26.2926 34.0063C27.0504 34.9027 27.8083 35.7989 28.5662 36.6951C29.0469 37.2638 29.8607 36.4429 29.3832 35.8781C28.6254 34.9819 27.8676 34.0856 27.1097 33.1893C26.6288 32.6207 25.815 33.4414 26.2926 34.0063Z" fill="#57544F"/>
<path d="M33.4201 64.2835C32.9214 65.3501 32.475 66.4386 32.0848 67.5496C31.8378 68.2525 32.9539 68.5548 33.199 67.8566C33.5564 66.8394 33.9612 65.8437 34.418 64.8669C34.7311 64.1972 33.7354 63.6097 33.4201 64.2835Z" fill="#57544F"/>
<path d="M29.2535 69.9948C28.6401 70.7867 28.0267 71.5787 27.4132 72.3708C27.2207 72.6194 27.1755 72.9449 27.4132 73.1879C27.6103 73.3893 28.0395 73.4342 28.2304 73.1879C28.8438 72.3958 29.4572 71.6038 30.0705 70.8118C30.2631 70.5633 30.3084 70.2378 30.0705 69.9948C29.8736 69.7932 29.4444 69.7485 29.2535 69.9948Z" fill="#57544F"/>
<path d="M21.4397 77.1675C22.4909 76.7411 23.483 76.2198 24.4144 75.5709C25.0202 75.149 24.4433 74.1468 23.8312 74.5732C22.9856 75.1622 22.0881 75.6657 21.1325 76.0533C20.4523 76.3291 20.7498 77.4475 21.4397 77.1675Z" fill="#57544F"/>
<path d="M17.5122 23.3152C18.0665 23.9629 18.6615 24.5711 19.297 25.1394C19.8497 25.634 20.6698 24.8194 20.114 24.3225C19.4786 23.7539 18.8837 23.1458 18.3292 22.498C17.845 21.9321 17.0308 22.7527 17.5122 23.3152Z" fill="#57544F"/>
<path d="M79.3226 101.844L79.2304 101.85C75.8551 102.08 72.5751 101.853 69.2934 101.515C68.3305 101.416 67.3624 101.306 66.3909 101.196C64.079 100.935 61.7481 100.671 59.4233 100.539L59.3663 101.537L59.4233 100.539C56.4678 100.37 53.477 100.37 50.5209 100.37C48.7422 100.37 46.9761 100.369 45.2379 100.333C44.3848 100.315 43.7848 100.284 43.3307 100.212C42.8872 100.141 42.6627 100.041 42.5191 99.9357C42.3796 99.8332 42.2289 99.6612 42.0521 99.2846C41.8686 98.8938 41.6895 98.3555 41.4586 97.571C38.7259 88.2849 36.3814 78.9064 34.8267 69.4164C34.4822 67.3134 34.2 65.1589 33.9152 62.9848C33.4231 59.2287 32.9234 55.4139 32.0814 51.7039C31.8422 50.65 31.4274 49.6977 30.6094 49.1141C29.7695 48.5148 28.7413 48.4684 27.6698 48.6786C25.6084 49.0827 23.5352 49.0339 21.3352 48.982C20.9971 48.974 20.656 48.966 20.3115 48.9595C19.9151 48.952 19.6229 48.919 19.4166 48.8424C19.2528 48.7817 19.1916 48.7158 19.1489 48.6048L18.2162 48.964L19.1489 48.6048C19.1334 48.5648 19.1369 48.5524 19.1372 48.5514L19.1372 48.5513C19.1385 48.5428 19.1459 48.5067 19.1896 48.436C19.295 48.2655 19.4785 48.0888 19.7727 47.8165C23.225 44.6212 26.2422 41.1508 29.1375 37.5816L40.2467 26.0326C44.7533 21.3478 49.7576 17.3699 54.8664 13.309C56.8605 11.7239 58.8705 10.1261 60.873 8.46878C61.4752 7.97042 62.0689 7.46286 62.6589 6.95853C64.8153 5.11531 66.9211 3.31528 69.2008 2.16518C70.6217 1.44832 72.0572 1.01718 73.5487 1.0005C75.0327 0.983902 76.6356 1.3767 78.3993 2.40271C81.2904 4.08454 83.9118 6.10215 86.4995 8.22948C87.301 8.88834 88.1031 9.56123 88.9096 10.2377C90.6863 11.728 92.4839 13.2359 94.3404 14.6499C94.4268 14.7157 94.5215 14.8057 94.6752 14.9533L94.6808 14.9586C94.815 15.0874 94.9996 15.2645 95.2048 15.4174C95.4151 15.574 95.7035 15.7493 96.064 15.8279C96.4486 15.9117 96.8494 15.8711 97.2383 15.6919M79.3226 101.844L109.072 7.22446C111.513 6.91379 112.473 8.0302 112.193 10.352C111.503 16.067 111.446 21.8094 111.389 27.5696C111.379 28.6298 111.368 29.6906 111.354 30.7519V30.951C112.452 32.4309 113.563 33.8581 114.665 35.2733C117.393 38.7783 120.065 42.2102 122.343 46.1896C123.535 48.2724 122.926 49.2982 120.486 49.5228C118.107 49.7421 115.717 49.9294 113.331 49.9501C111.832 49.9629 111.019 50.4645 110.803 51.9069C110.043 56.9905 108.657 61.9304 107.271 66.8705C106.308 70.3066 105.344 73.7428 104.59 77.2276C103.695 81.3653 102.437 85.4072 101.178 89.4495C100.185 92.6384 99.1917 95.8275 98.3771 99.0641C98.0141 100.507 97.078 101.184 95.4696 101.382M79.3226 101.844L79.4144 101.854C81.9339 102.148 84.5104 101.962 87.1761 101.607C88.3952 101.445 89.6206 101.249 90.8658 101.05C90.9818 101.032 91.098 101.013 91.2143 100.994C92.5744 100.777 93.9567 100.56 95.3476 100.389L95.4696 101.382M79.3226 101.844L79.2985 102.848C83.1465 103.297 87.06 102.671 91.0219 102.038C92.498 101.802 93.9809 101.565 95.4696 101.382M97.2383 15.6919L96.8196 14.7837L97.2382 15.6919C97.2382 15.6919 97.2382 15.6919 97.2383 15.6919ZM97.2383 15.6919C97.6373 15.5079 97.9141 15.2047 98.066 14.8407C98.2014 14.5161 98.2162 14.1936 98.2135 13.9734C98.2116 13.8181 98.197 13.6337 98.1865 13.5004C98.183 13.4566 98.1799 13.4183 98.1779 13.3884C98.1668 13.222 98.1711 13.1503 98.1765 13.1199L97.1919 12.9451L98.1763 13.1207C98.2945 12.458 98.4038 11.7807 98.4835 11.0947C98.5906 10.1734 98.6621 9.57072 98.7635 9.13809C98.8634 8.71146 98.9544 8.63451 98.9695 8.62187C98.9949 8.60059 99.1115 8.51764 99.5928 8.47178C100.068 8.42648 100.714 8.42937 101.679 8.4337L101.693 8.43377C102.094 8.43558 102.499 8.43975 102.908 8.44395C104.952 8.465 107.075 8.48684 109.199 8.21645C110.297 8.07669 110.747 8.30193 110.932 8.49415C111.129 8.69891 111.327 9.17611 111.2 10.2322C110.503 16.0069 110.446 21.8127 110.389 27.5718C110.379 28.6291 110.368 29.6847 110.354 30.7383L110.354 30.7519L110.354 30.7523V30.7527V30.7531V30.7535V30.7539V30.7543V30.7547V30.7551V30.7554V30.7558V30.7562V30.7566V30.757V30.7574V30.7578V30.7582V30.7585V30.7589V30.7593V30.7597V30.7601V30.7605V30.7609V30.7613V30.7617V30.762V30.7624V30.7628V30.7632V30.7636V30.764V30.7644V30.7648V30.7652V30.7655V30.7659V30.7663V30.7667V30.7671V30.7675V30.7679V30.7683V30.7687V30.769V30.7694V30.7698V30.7702V30.7706V30.771V30.7714V30.7718V30.7722V30.7725V30.7729V30.7733V30.7737V30.7741V30.7745V30.7749V30.7753V30.7757V30.776V30.7764V30.7768V30.7772V30.7776V30.778V30.7784V30.7788V30.7792V30.7795V30.7799V30.7803V30.7807V30.7811V30.7815V30.7819V30.7823V30.7827V30.783V30.7834V30.7838V30.7842V30.7846V30.785V30.7854V30.7858V30.7862V30.7865V30.7869V30.7873V30.7877V30.7881V30.7885V30.7889V30.7893V30.7897V30.79V30.7904V30.7908V30.7912V30.7916V30.792V30.7924V30.7928V30.7932V30.7935V30.7939V30.7943V30.7947V30.7951V30.7955V30.7959V30.7963V30.7967V30.797V30.7974V30.7978V30.7982V30.7986V30.799V30.7994V30.7998V30.8002V30.8005V30.8009V30.8013V30.8017V30.8021V30.8025V30.8029V30.8033V30.8036V30.804V30.8044V30.8048V30.8052V30.8056V30.806V30.8064V30.8068V30.8072V30.8075V30.8079V30.8083V30.8087V30.8091V30.8095V30.8099V30.8103V30.8107V30.811V30.8114V30.8118V30.8122V30.8126V30.813V30.8134V30.8138V30.8142V30.8145V30.8149V30.8153V30.8157V30.8161V30.8165V30.8169V30.8173V30.8176V30.818V30.8184V30.8188V30.8192V30.8196V30.82V30.8204V30.8208V30.8212V30.8215V30.8219V30.8223V30.8227V30.8231V30.8235V30.8239V30.8243V30.8247V30.825V30.8254V30.8258V30.8262V30.8266V30.827V30.8274V30.8278V30.8281V30.8285V30.8289V30.8293V30.8297V30.8301V30.8305V30.8309V30.8313V30.8316V30.832V30.8324V30.8328V30.8332V30.8336V30.834V30.8344V30.8348V30.8352V30.8355V30.8359V30.8363V30.8367V30.8371V30.8375V30.8379V30.8383V30.8387V30.839V30.8394V30.8398V30.8402V30.8406V30.841V30.8414V30.8418V30.8421V30.8425V30.8429V30.8433V30.8437V30.8441V30.8445V30.8449V30.8453V30.8456V30.846V30.8464V30.8468V30.8472V30.8476V30.848V30.8484V30.8488V30.8492V30.8495V30.8499V30.8503V30.8507V30.8511V30.8515V30.8519V30.8523V30.8526V30.853V30.8534V30.8538V30.8542V30.8546V30.855V30.8554V30.8558V30.8561V30.8565V30.8569V30.8573V30.8577V30.8581V30.8585V30.8589V30.8593V30.8596V30.86V30.8604V30.8608V30.8612V30.8616V30.862V30.8624V30.8628V30.8632V30.8635V30.8639V30.8643V30.8647V30.8651V30.8655V30.8659V30.8663V30.8666V30.867V30.8674V30.8678V30.8682V30.8686V30.869V30.8694V30.8698V30.8701V30.8705V30.8709V30.8713V30.8717V30.8721V30.8725V30.8729V30.8733V30.8736V30.874V30.8744V30.8748V30.8752V30.8756V30.876V30.8764V30.8768V30.8771V30.8775V30.8779V30.8783V30.8787V30.8791V30.8795V30.8799V30.8803V30.8806V30.881V30.8814V30.8818V30.8822V30.8826V30.883V30.8834V30.8838V30.8841V30.8845V30.8849V30.8853V30.8857V30.8861V30.8865V30.8869V30.8873V30.8876V30.888V30.8884V30.8888V30.8892V30.8896V30.89V30.8904V30.8908V30.8911V30.8915V30.8919V30.8923V30.8927V30.8931V30.8935V30.8939V30.8943V30.8946V30.895V30.8954V30.8958V30.8962V30.8966V30.897V30.8974V30.8978V30.8981V30.8985V30.8989V30.8993V30.8997V30.9001V30.9005V30.9009V30.9013V30.9016V30.902V30.9024V30.9028V30.9032V30.9036V30.904V30.9044V30.9048V30.9051V30.9055V30.9059V30.9063V30.9067V30.9071V30.9075V30.9079V30.9083V30.9086V30.909V30.9094V30.9098V30.9102V30.9106V30.911V30.9114V30.9118V30.9121V30.9125V30.9129V30.9133V30.9137V30.9141V30.9145V30.9149V30.9153V30.9156V30.916V30.9164V30.9168V30.9172V30.9176V30.918V30.9184V30.9188V30.9191V30.9195V30.9199V30.9203V30.9207V30.9211V30.9215V30.9219V30.9223V30.9226V30.923V30.9234V30.9238V30.9242V30.9246V30.925V30.9254V30.9258V30.9261V30.9265V30.9269V30.9273V30.9277V30.9281V30.9285V30.9289V30.9293V30.9296V30.93V30.9304V30.9308V30.9312V30.9316V30.932V30.9324V30.9328V30.9331V30.9335V30.9339V30.9343V30.9347V30.9351V30.9355V30.9359V30.9362V30.9366V30.937V30.9374V30.9378V30.9382V30.9386V30.939V30.9394V30.9398V30.9401V30.9405V30.9409V30.9413V30.9417V30.9421V30.9425V30.9429V30.9433V30.9436V30.944V30.9444V30.9448V30.9452V30.9456V30.946V30.9464V30.9467V30.9471V30.9475V30.9479V30.9483V30.9487V30.9491V30.9495V30.9499V30.9502V30.9506V30.951V31.2815L110.551 31.5469C111.679 33.0676 112.808 34.5171 113.918 35.9439C116.629 39.4256 119.234 42.772 121.475 46.6863C122.054 47.6975 121.927 48.0238 121.906 48.0606C121.893 48.0841 121.832 48.1747 121.585 48.2782C121.333 48.3841 120.949 48.4759 120.394 48.5271L120.394 48.5271C118.021 48.7458 115.665 48.9298 113.322 48.9501C112.489 48.9573 111.659 49.0965 110.993 49.5871C110.293 50.102 109.947 50.8716 109.814 51.759C109.179 56.0042 108.099 60.1608 106.938 64.3466C106.731 65.0929 106.522 65.8408 106.311 66.5902C105.347 70.0275 104.373 73.499 103.613 77.0163C102.823 80.67 101.743 84.2572 100.621 87.8729C100.489 88.2986 100.356 88.7247 100.223 89.1514C99.2311 92.3375 98.2292 95.5546 97.4074 98.82C97.2691 99.3696 97.0474 99.6893 96.7757 99.9011C96.4875 100.126 96.0468 100.303 95.3477 100.389L95.4696 101.382" stroke="#57544F" stroke-width="2"/>
<path fill-rule="evenodd" clip-rule="evenodd" d="M61.8529 47.0717C63.6772 45.8741 66.7941 46.0783 68.7917 47.8195C69.9715 48.8474 71.4172 49.6165 72.2753 51.0064C72.5044 51.3791 72.7738 51.7304 73.0445 52.1138C73.5311 51.8432 73.8943 51.5488 74.032 50.9162C74.2077 50.102 74.883 49.537 75.5038 49.0171C77.4539 47.4124 79.6177 46.2136 82.1945 46.0106C84.3345 45.8409 86.598 47.7281 86.9505 50.102C87.3137 52.5554 85.6129 56.5707 83.9642 58.4128C81.2711 61.4312 79.0717 67.7706 75.8515 70.2014C74.8023 70.9919 74.045 70.9812 73.0195 70.4507C70.3561 69.0596 67.511 64.3356 64.8843 62.8899C62.5081 61.5784 60.4547 57.7209 59.6227 54.985C58.5877 51.5833 58.5426 49.2426 61.8529 47.0729V47.0717Z" fill="#E03F1E"/>
<path d="M49.433 35C45.011 36.62 38.477 41.229 37 43.772C39.553 43.143 47.149 37.782 49.433 35Z" fill="#57544F"/>
<path d="M100.515 75.751C99.932 76.237 99.36 76.771 98.707 77.151C96.57 78.409 94.398 79.599 92.238 80.809C93.889 77.637 96.742 76.056 99.422 74.266C100.125 74.178 101.327 74.3518 100.515 75.751Z" fill="#57544F"/>
<path d="M44.619 44.181C47.517 42.762 50.432 41.391 52.524 38.81C49.18 39.505 46.432 41.143 44.619 44.181Z" fill="#57544F"/>
<path d="M84.969 74.461C85.301 74.966 85.069 75.451 84.599 75.737C82.91 76.756 81.454 78.232 78.905 77.966C80.479 76.728 82.039 75.471 83.637 74.261C84.071 73.937 84.641 73.966 84.969 74.461Z" fill="#57544F"/>
<path d="M50.334 45.819C52.588 44.372 54.976 43.714 56.477 40.714C52.753 42.048 51.601 43.038 50.334 45.819Z" fill="#57544F"/>
</svg>
