<svg width="138" height="103" viewBox="0 0 138 103" fill="none" xmlns="http://www.w3.org/2000/svg">
<g clip-path="url(#clip0_263_56)">
<path fill-rule="evenodd" clip-rule="evenodd" d="M5.00548 81.072C4.89648 81.306 4.65548 81.61 4.64148 81.924C4.62548 82.225 4.77148 82.728 4.97648 82.809C5.51548 83.024 6.12048 83.117 6.70648 83.151C11.1635 83.408 15.6215 83.664 20.0805 83.863C21.6075 83.931 23.1445 83.623 24.6655 84.041C28.5835 85.118 32.6515 84.843 36.6285 85.061C41.8055 85.34 46.9925 85.38 52.1375 86.104C54.7185 86.468 57.2915 86.341 59.8975 86.191C62.1825 86.061 63.0425 84.819 63.2655 82.902C64.0575 76.089 65.5045 69.372 66.0645 62.522C66.8415 53.1 67.8265 43.698 68.6545 34.282C68.9705 30.75 69.2305 27.207 68.6665 23.662C68.4895 22.563 68.1465 21.934 66.8575 22.073C65.6735 22.203 65.1825 22.753 65.2305 23.894C65.2355 24.129 65.1495 24.367 65.1615 24.599C65.3075 29.934 64.5595 35.237 64.5655 40.555C64.5605 54.442 62.0575 68.082 60.7105 81.834C60.5035 83.968 59.6025 84.356 57.3575 84.311C50.5055 84.173 43.7505 82.927 36.8705 82.906C26.7175 82.879 16.5575 82.404 6.46748 81.082C6.00948 81.022 5.56448 80.754 5.00548 81.072ZM53.5395 17.595C53.4735 18.09 53.4025 18.663 53.3115 19.232C52.9445 21.51 52.3295 22.289 50.2265 22.292C43.6165 22.296 36.9925 22.429 30.4065 21.968C27.2425 21.744 23.6385 21 23.1965 16.566C23.0855 15.51 22.1895 15.398 21.3185 15.363C19.1955 15.278 17.0765 15.136 14.9455 15.101C12.3805 15.055 12.4115 15.169 11.8435 17.845C10.6225 23.629 10.1375 29.523 9.15148 35.333C6.90048 48.612 6.28048 62.113 3.50048 75.322C2.82348 78.54 2.28848 78.312 6.14448 79.196C10.0825 80.098 14.1305 79.956 18.1205 80.336C29.9905 81.462 41.9315 80.819 53.8005 82.11C58.7285 82.647 58.7295 82.234 59.4755 77.29C62.0665 60.07 63.1205 42.732 63.3995 25.342C63.4345 23.122 64.7275 20.356 62.9575 18.732C61.2705 17.179 58.4455 17.747 56.1175 17.412C55.3305 17.299 54.4705 17.147 53.5405 17.595H53.5395ZM44.3085 11.063L44.4025 11.091C41.5255 9.968 41.5245 9.965 42.5485 7.444C42.7265 7.008 43.0625 6.616 43.1525 6.168C43.3725 5 42.8455 4.031 41.9335 3.409C41.0115 2.783 39.9165 2.729 38.9375 3.382C38.1235 3.924 38.2365 4.691 38.3755 5.584C38.8655 8.792 37.5535 10.452 34.3105 10.514C32.4305 10.55 30.5705 11.084 28.6665 10.66C27.8665 10.485 26.9865 10.642 26.3135 11.204C24.0035 13.118 24.7585 18.244 27.5635 19.329C29.4345 20.049 31.3585 20.48 33.4435 20.381C36.5035 20.231 39.6175 20.11 42.6235 20.561C45.6395 21.012 48.3895 20.327 51.3735 19.979C50.5235 18.143 51.1245 16.519 51.1055 14.902C51.0935 13.4 50.7855 12.14 48.7975 12.008C47.2915 11.908 45.8095 11.392 44.3075 11.063H44.3085ZM44.6085 8.614C46.3585 9.056 47.7565 9.646 49.3115 9.811C51.7815 10.071 52.8865 11.082 53.0365 13.522C53.1295 15.038 53.8965 15.289 55.0185 15.417C57.3655 15.687 59.7205 15.93 62.0685 16.2C62.7605 16.281 63.8405 16.096 64.0455 16.693C65.0075 19.584 68.3155 19.543 69.8805 21.595C70.4775 22.376 70.4645 23.387 70.5265 24.325C70.6965 27.165 70.6975 30.002 70.4295 32.838C69.4325 43.427 68.5315 54.027 67.4215 64.607C66.7145 71.421 65.7295 78.209 64.8295 85.002C64.5755 86.926 63.2035 87.852 61.4315 88.079C58.9665 88.397 56.4805 88.457 54.0135 88.205C48.0185 87.602 42.0625 86.722 36.0065 86.869C33.8965 86.919 31.7655 86.596 29.6585 86.319C22.3885 85.368 15.0645 85.503 7.76648 85.113C6.70648 85.055 5.63648 84.98 4.59648 84.785C3.01048 84.487 1.90648 83.786 2.62648 81.865C2.80948 81.375 3.28748 80.652 2.46948 80.399C0.479478 79.782 0.888478 78.427 1.21948 76.995C3.66548 66.375 4.50648 55.515 6.07548 44.763C7.40548 35.646 8.09948 26.427 10.1105 17.408C10.7405 14.59 11.8715 13.528 14.6775 13.421C15.8565 13.374 17.0625 13.31 18.2205 13.473C21.0595 13.877 23.5915 14.025 24.5915 10.406C25.0475 8.749 26.8325 8.828 28.2115 8.826C30.3485 8.826 32.4545 8.593 34.5535 8.262C35.8375 8.059 36.5125 7.527 36.2355 5.842C35.6995 2.55 37.3205 1.006 40.9285 0.881997C43.2385 0.799997 45.6445 3.657 45.3735 6.265C45.3035 6.945 44.9545 7.592 44.6085 8.615V8.614Z" fill="#57544F"/>
<path fill-rule="evenodd" clip-rule="evenodd" d="M22.9612 27.562C21.7252 26.574 20.0002 26.492 18.3982 26.068C16.9562 25.683 16.4012 26.448 16.3352 27.732C16.2922 28.559 16.2442 29.393 16.3112 30.215C16.5122 32.651 18.3112 33.895 20.7172 33.328C22.4942 32.909 24.0952 29.078 22.9612 27.562ZM13.1332 35.206C15.0172 33.608 14.6312 31.791 14.4172 29.936C13.7462 24.116 15.0072 23.122 20.7832 24.788C21.5862 25.018 22.4012 25.235 23.1852 25.51C24.8952 26.097 25.5732 27.292 25.3862 29.076C24.8602 33.952 22.7442 35.712 17.6872 34.911C16.1892 34.673 14.9472 35.776 13.1332 35.206ZM19.5392 43.679C18.8992 42.784 15.1462 41.52 14.0532 41.811C13.5162 41.954 13.2292 42.29 13.2692 42.795C13.4052 44.5 13.4042 46.243 13.7922 47.89C14.2022 49.63 17.8082 50.689 19.0632 49.605C19.9902 48.806 20.3112 44.765 19.5392 43.679ZM12.7732 40.302C13.3502 39.915 14.0132 39.896 14.7572 39.959C20.8942 40.476 22.4672 42.53 21.4922 48.859C21.1422 51.168 19.9722 52.019 17.5752 51.76C16.0632 51.597 14.7272 50.62 13.0862 50.995C12.6182 51.102 12.2522 50.774 12.1362 50.222C11.5462 47.389 11.5332 44.519 11.6802 41.638C11.7112 40.992 12.1592 40.608 12.7732 40.302ZM17.3002 60.318C16.4122 58.886 13.6732 58.191 12.3582 59.065C11.2702 59.786 11.1272 63.333 12.1152 65.065C12.6852 66.067 15.5532 66.547 16.8352 65.856C18.0912 65.181 18.3552 62.021 17.3002 60.318ZM10.7582 65.752C9.5302 63.602 9.7862 61.167 9.4802 58.859C9.3442 57.829 10.3492 57.271 11.3062 57.089C13.1372 56.74 14.9962 56.905 16.7692 57.437C18.1822 57.861 19.0092 59.075 19.4052 60.557C19.8152 62.089 19.6002 63.631 19.5842 65.165C19.5792 65.599 19.3562 66.086 19.0942 66.438C17.3532 68.779 12.3092 68.344 10.7582 65.752ZM30.5112 28.743C31.1472 28.323 31.6772 28.384 31.7772 28.898C32.1602 30.724 33.0082 30.085 33.8882 29.268C34.8582 28.368 35.7242 28.299 36.5442 29.376C36.9162 29.864 37.4082 30.137 38.0642 29.924C39.4602 29.474 40.8332 29.226 42.1192 30.13C42.1992 30.189 42.3762 30.213 42.4612 30.165C45.1242 28.641 47.3522 29.943 49.7402 30.845C51.1222 31.366 52.7622 31.452 54.1832 30.483C55.3512 29.69 56.1852 30.488 57.0472 30.996C57.4712 31.244 57.6242 31.76 57.3642 32.186C57.2182 32.426 56.7192 32.702 56.4842 32.636C53.8642 31.917 51.2092 33.416 48.5642 32.673C47.6992 32.429 46.6572 32.75 46.1942 31.678C46.0512 31.358 45.6742 30.979 45.4322 31.186C43.0142 33.248 40.1422 30.369 37.7022 32.074C37.5392 32.19 37.1452 32.252 37.0262 32.154C35.3362 30.718 33.8042 31.314 32.0912 32.369C31.1542 32.947 30.5682 32.081 30.4632 31.213C30.3672 30.365 29.8102 29.462 30.5112 28.743ZM53.4922 48.998C52.2962 50.113 51.6512 49.778 51.0752 49.404C48.7682 47.916 46.3452 47.724 43.5602 47.903C41.4222 48.037 39.2082 46.915 37.0772 48.295C35.6292 46.517 34.4772 48.045 33.2422 48.665C32.6082 48.985 31.7492 49.397 31.3132 48.829C29.8502 46.886 28.0622 47.892 26.3512 48.328C25.7752 47.088 25.6542 46.039 26.4612 44.66C28.0262 46.49 30.5672 45.364 32.2532 46.827C32.3832 46.942 32.7832 46.973 32.8812 46.872C34.9912 44.711 37.9792 46.59 40.2552 45.224C40.5232 45.064 41.0152 44.958 41.2442 45.092C44.1642 46.775 47.4562 45.883 50.5392 46.38C52.0712 46.627 51.9192 48.563 53.4922 48.998ZM24.4192 66.026C24.0892 64.209 23.8252 62.486 24.1782 60.71C24.2762 60.21 24.5232 59.798 25.0952 59.838C25.6922 59.878 25.8352 60.339 25.8322 60.848C25.8262 61.542 25.5022 62.248 25.9822 63.15C27.8652 62.48 29.8182 61.767 31.6222 63.325C34.3602 62.14 37.2502 65.18 39.9752 63.051C40.4622 62.671 41.1422 62.708 41.6742 63.023C42.9182 63.762 44.1222 63.799 45.3922 63.116C46.3342 62.61 47.2062 62.982 48.1052 63.382C48.7052 63.65 49.8582 63.413 49.6792 64.368C49.5032 65.355 48.1642 66.131 47.5032 65.562C46.1682 64.411 45.0862 65.125 43.8752 65.414C42.9532 65.634 42.0222 65.901 41.1692 65.166C40.9922 65.021 40.6612 64.796 40.5722 64.858C38.1302 66.531 35.4742 65.153 32.9422 65.39C32.1232 65.465 31.2182 65.957 30.5922 65.22C29.3172 63.725 28.1482 64.209 26.8862 65.138C26.2262 65.624 25.5132 66.013 24.4192 66.026Z" fill="#E03F1E"/>
<path fill-rule="evenodd" clip-rule="evenodd" d="M43.5726 11.72C43.6406 12.746 43.8416 13.852 42.3776 13.754C38.6356 13.494 34.9286 14.238 31.0596 12.824C35.2596 12.468 39.4586 12.111 43.6656 11.752C43.6656 11.754 43.5726 11.72 43.5726 11.72ZM34.0736 15.78C36.5626 14.868 38.8356 15.345 40.8276 14.53C41.2456 14.357 41.8446 14.683 41.8476 15.321C41.8486 15.856 41.4996 16.379 40.9716 16.333C38.8546 16.157 36.7136 16.97 34.0736 15.781M130.336 69.148C131.446 69.667 132.353 70.102 133.276 70.523C134.033 70.873 134.797 70.803 135.326 70.163C136.713 68.487 137.074 66.453 136.713 64.419C136.444 62.943 134.831 62.864 133.646 62.438C133.478 62.378 133.26 62.449 132.983 62.465C132.865 64.969 132.26 67.289 130.336 69.148ZM79.9946 40.544C79.9446 40.674 79.8846 40.805 79.8266 40.936C82.2546 42.588 84.2966 44.656 86.3466 46.724C87.3036 47.685 88.3116 48.588 89.3206 49.504C89.6056 49.769 89.9586 50.168 90.3616 49.918C90.8316 49.627 90.5386 49.263 90.2866 48.906C89.8166 48.251 90.0926 47.92 90.8406 47.881C91.9326 47.823 92.1506 47.312 91.5466 46.449C90.9416 45.581 91.1436 45.217 92.1936 45.306C93.2016 45.393 93.3356 44.76 93.2186 44.013C93.1006 43.3 92.5206 43.139 91.8906 42.954C89.3456 42.204 86.6826 42.024 84.1206 41.362C82.7666 41.012 81.3726 40.812 79.9946 40.544ZM91.8146 50.309C91.7486 50.401 91.6476 50.499 91.5886 50.614C91.4886 50.82 91.5466 51.027 91.7316 51.134C92.1426 51.374 92.5716 51.586 92.9996 51.796C101.805 56.129 110.727 60.216 119.65 64.297C121.632 65.202 123.649 66.033 125.556 67.079C126.093 67.373 126.665 67.62 127.228 67.863C127.933 68.166 128.488 67.765 128.774 67.24C129.11 66.622 128.412 66.474 128.026 66.27C126.346 65.378 124.564 64.7 122.783 64.023C118.767 62.495 114.962 60.507 111.08 58.69C104.905 55.8 98.4696 53.498 92.3786 50.422C92.2106 50.336 92.0586 50.146 91.8156 50.309H91.8146ZM94.7806 44.433C93.7056 46.363 93.6806 46.414 94.8816 47.017C99.2086 49.181 103.452 51.503 107.98 53.265C112.357 54.971 116.676 56.841 121.036 58.605C124.002 59.807 126.992 60.955 129.975 62.121C130.219 62.219 130.513 62.327 130.655 61.981C130.765 61.729 130.823 61.407 130.63 61.211C130.395 60.985 130.076 60.832 129.773 60.692C127.555 59.66 125.321 58.647 123.094 57.612C116.054 54.339 109.022 51.053 101.974 47.786C99.5696 46.674 97.3606 45.153 94.7806 44.433ZM92.3106 49.176C93.1006 49.837 93.9826 50.202 94.8566 50.581C99.7966 52.727 104.821 54.701 109.66 57.054C115.793 60.037 122.078 62.655 128.337 65.359C128.824 65.569 129.378 65.971 129.832 65.445C130.227 64.982 130.412 64.346 130.219 63.719C130.042 63.136 129.488 62.971 128.975 62.763C125.623 61.409 122.296 60.026 118.944 58.683C111.862 55.843 104.687 53.203 97.9396 49.587C96.4026 48.764 94.8226 48.031 93.2516 47.253C92.8916 47.991 92.6056 48.581 92.3116 49.176H92.3106ZM131.092 66.428L131.042 66.366L131.076 66.47C131.084 66.4573 131.089 66.443 131.092 66.428ZM75.3146 38.255C75.4156 38.471 75.5926 38.552 75.8276 38.504C76.0796 38.984 76.5416 39.151 77.0286 39.284C77.2386 39.35 77.4486 39.416 77.6676 39.482L77.7766 39.546L77.6506 39.522L77.0036 39.324C76.7346 38.867 76.3566 38.579 75.8106 38.547C75.6386 38.463 75.4653 38.382 75.2906 38.304L75.1976 38.299L75.3146 38.255ZM131.37 64.443C131.462 64.515 131.454 64.533 131.328 64.498C131.35 64.4725 131.369 64.4447 131.386 64.415C131.47 64.226 131.546 64.037 131.622 63.848L131.672 63.743L131.655 63.858C131.563 64.054 131.462 64.25 131.37 64.443ZM135.377 71.585C134.596 72.051 133.974 72.126 133.403 71.803C130.857 70.345 128.076 69.409 125.447 68.129C120.247 65.597 114.953 63.232 109.719 60.769C103.435 57.812 97.1586 54.823 90.8746 51.852C89.9416 51.408 89.1606 50.779 88.4126 50.061C85.6736 47.425 83.0946 44.611 80.0786 42.267C78.9356 41.383 77.7596 40.625 76.3906 40.115C75.4406 39.76 74.5586 39.225 73.6506 38.742C73.3066 38.552 72.9036 38.328 73.0206 37.817C73.1386 37.282 73.5426 37.037 74.0636 37.009C74.8196 36.971 75.5666 37.045 76.2396 37.444C80.1296 39.748 84.5566 40.253 88.8496 41.235C91.2856 41.793 93.6556 42.335 95.9396 43.62C99.9148 45.8661 104.019 47.8752 108.232 49.637C111.752 51.102 115.071 53.03 118.574 54.546C122.825 56.388 126.917 58.573 131.277 60.173C133.067 60.829 134.789 61.645 136.52 62.444C137.427 62.865 137.931 63.532 137.99 64.662C138.082 66.494 137.587 68.161 136.948 69.813C136.62 70.668 135.923 71.235 135.377 71.585ZM115.71 93.97C114.955 93.228 114.186 92.503 113.453 91.735C112.903 91.1708 112.299 90.6614 111.651 90.214C111.475 90.096 111.299 89.87 111.094 90.097C110.925 90.293 111.014 90.547 111.145 90.727C111.819 91.637 112.273 92.69 112.845 93.671C113.409 94.651 114.23 95.124 115.307 94.971C115.557 94.937 115.842 95.023 115.967 94.704C116.091 94.394 115.849 94.193 115.71 93.97ZM126.63 99.871C127.224 100.637 128.462 101.034 129.338 101.787C129.724 102.111 130.174 102.047 130.568 101.719C131.162 101.225 131.178 100.682 130.407 100.099C129.483 99.397 128.454 98.789 127.465 98.137C127.087 97.885 126.822 98.009 126.525 98.279C125.818 98.927 125.802 99.079 126.629 99.871H126.63ZM78.7186 62.57C79.1046 63.093 79.3206 63.141 79.8686 62.708C80.2886 62.378 80.6736 62.102 81.2416 62.338C81.5866 62.483 81.8166 62.262 82.0066 61.971C82.1966 61.675 82.4186 61.402 82.6286 61.117C83.1896 60.347 83.1426 60.08 82.2906 59.684C81.269 59.2056 80.297 58.6278 79.3886 57.959C78.8746 57.585 78.2926 57.37 77.7316 57.104C77.5146 57.002 77.2716 56.924 77.0816 57.13C76.9326 57.29 77.0216 57.492 77.0756 57.688C77.2856 58.488 77.5156 59.285 77.6636 60.098C77.8256 61.018 78.3066 61.782 78.7186 62.57ZM107.549 87.514C106.753 86.652 105.674 86.004 104.765 85.178C104.587 85.023 104.317 84.905 104.105 85.112C103.905 85.307 104.033 85.562 104.14 85.762C104.246 85.966 104.417 86.146 104.573 86.325C105.042 86.865 105.525 87.389 105.986 87.935C107.733 90.015 108.954 92.403 110.311 94.709C110.794 95.526 111.504 96.184 111.923 97.046C112.058 97.318 112.47 97.542 112.803 97.636C113.705 97.886 114.657 98.14 115.58 97.912C116.574 97.668 117.526 97.364 118.577 97.518C118.925 97.568 119.102 97.317 118.939 96.979C118.854 96.804 118.754 96.6 118.591 96.503C117.491 95.822 116.34 95.127 114.962 95.471C114.145 95.675 113.57 95.458 112.924 95.053C111.695 94.288 111.142 93.043 110.446 91.927C109.53 90.454 108.464 89.074 107.548 87.514H107.549ZM126.509 95.548C126.269 95.253 126.132 95.033 125.95 94.871C123.92 93.085 121.896 91.301 119.989 89.381C118.995 88.381 117.922 87.475 116.798 86.605C114.332 84.695 112.04 82.559 109.647 80.551C108.117 79.265 106.564 78.003 105.041 76.706C103.591 75.468 101.988 74.406 100.48 73.226C98.2816 71.506 96.0116 69.886 93.8356 68.141C91.9936 66.659 89.9856 65.361 88.4686 63.477C87.8526 62.715 86.9966 62.127 86.1916 61.539C85.1116 60.751 84.7776 60.826 83.8496 61.783C83.3056 62.353 83.0006 63.122 82.3556 63.618C81.8186 64.033 81.9416 64.461 82.3766 64.87C82.9496 65.414 83.5086 65.968 84.1466 66.453C85.4306 67.441 86.7646 68.393 87.8886 69.567C89.2306 70.961 90.7686 72.105 92.3566 73.179C94.8436 74.869 97.1796 76.764 99.4206 78.743C101.045 80.1695 102.704 81.5566 104.396 82.903C105.723 83.972 107.217 84.865 108.406 86.065C110.706 88.381 113.403 90.217 115.775 92.437C117.414 93.968 119.14 95.411 120.605 97.109C121.345 97.969 122.23 98.665 122.998 99.482C123.651 100.176 124.217 100.134 125.015 99.593C125.725 99.111 126.211 98.43 126.632 97.711C127.082 96.935 127.205 96.138 126.509 95.548ZM110.937 97.309C110.159 96.111 109.243 94.785 108.422 93.407C107.088 91.182 105.726 88.992 104.09 86.957C103.24 85.893 102.49 84.783 101.351 83.977C100.746 83.55 100.803 83.231 101.394 82.719C101.993 82.203 101.971 82.219 101.459 81.582C100.775 80.732 99.8016 80.222 99.0016 79.502C96.7956 77.507 94.5186 75.589 92.0676 73.878C89.5956 72.148 87.3106 70.184 85.0336 68.204C83.8516 67.172 82.5246 66.307 81.3936 65.22C80.9826 64.828 80.5136 64.611 79.9236 64.855C79.3536 65.086 79.0506 64.792 78.7046 64.335C77.3496 62.55 76.5286 60.59 76.2396 58.361C76.0816 57.184 75.1086 56.378 74.3376 55.531C73.6166 54.739 72.8956 53.943 72.2326 53.102C71.9876 52.792 71.8286 52.449 72.3196 52.18C72.8666 51.88 73.3996 51.952 73.5656 52.44C73.9766 53.677 74.8416 54.304 76.1036 54.466C76.4486 54.51 76.7446 54.658 76.9606 54.919C77.5446 55.601 78.3006 56.027 79.1226 56.33C80.0676 56.68 80.8826 57.253 81.6826 57.823C82.5686 58.461 83.5486 58.678 84.5926 58.696C85.0546 58.703 85.4946 58.763 85.6026 59.225C85.7756 59.978 86.3156 60.345 86.8566 60.813C88.1686 61.945 89.5526 62.987 90.7346 64.262C91.9446 65.559 93.4726 66.517 94.8066 67.684C96.3636 69.044 98.1796 70.054 99.7146 71.456C101.149 72.758 102.829 73.786 104.335 75.025C105.604 76.071 107.009 76.973 108.177 78.115C109.842 79.735 111.629 81.201 113.395 82.702C114.808 83.907 116.271 85.056 117.712 86.232C119.377 87.5846 120.961 89.0348 122.455 90.575C123.515 91.663 124.711 92.627 125.907 93.561C126.433 93.971 126.894 94.438 127.377 94.882C127.536 95.027 127.651 95.202 127.666 95.414C127.766 97.101 129.186 97.826 130.224 98.816C130.513 99.093 130.909 99.274 131.161 99.606C131.478 100.018 132.171 100.352 131.961 100.903C131.673 101.648 131.341 102.45 130.534 102.864C130.34 102.964 130.109 103.06 129.944 102.957C128.949 102.357 127.579 102.492 126.844 101.373C126.621 101.037 126.274 100.78 125.964 100.508C125.525 100.123 125.035 99.991 124.466 100.258C123.521 100.705 122.635 100.406 121.936 99.798C121.366 99.304 120.783 99.031 120.062 98.948C119.774 98.916 119.492 98.823 119.219 98.731C118.318 98.424 117.467 98.499 116.545 98.77C114.8 99.28 113.092 99.138 111.593 97.947C111.499 97.869 111.384 97.814 111.29 97.731C111.204 97.649 111.132 97.543 110.937 97.309Z" fill="#57544F"/>
</g>
<defs>
<clipPath id="clip0_263_56">
<rect width="138" height="103" fill="white"/>
</clipPath>
</defs>
</svg>
