<svg width="298" height="108" viewBox="0 0 298 108" fill="none" xmlns="http://www.w3.org/2000/svg">
<path d="M8.65 99.32C7.74333 99.32 7.10333 99.1867 6.73 98.92C6.35667 98.6533 6.17 98.0667 6.17 97.16C6.17 96.5733 6.30333 96.1733 6.57 95.96C6.83667 95.7467 7.39667 95.64 8.25 95.64C9.42333 95.64 10.01 95.1867 10.01 94.28C10.01 89 9.61 81.2133 8.81 70.92C8.01 60.5733 7.61 52.8933 7.61 47.88C7.61 47.4 7.63667 46.9467 7.69 46.52V45C7.69 42.4933 6.78333 41.24 4.97 41.24H4.09L3.13 41.32C1.58333 41.32 0.81 40.7333 0.81 39.56C0.81 38.1733 2.97 37.48 7.29 37.48C9.58333 37.48 10.9433 37.9333 11.37 38.84C11.05 40.28 10.89 41.4 10.89 42.2C10.89 43.64 11.1033 46.0667 11.53 49.48C11.9033 52.52 12.09 54.9733 12.09 56.84C12.09 60.6267 12.3833 66.92 12.97 75.72C13.5567 83.5067 13.85 89.8533 13.85 94.76V95.24C14.0633 95.24 14.3567 95.2133 14.73 95.16C15.1033 95.1067 15.4767 95.08 15.85 95.08C16.0633 95.0267 16.3833 95 16.81 95C19.05 95 20.17 95.6667 20.17 97C20.17 98.5467 17.13 99.32 11.05 99.32H9.77H8.65ZM34.9344 98.76C28.481 98.76 25.2544 83.7733 25.2544 53.8V51.24C25.2544 47.24 25.7077 44.12 26.6144 41.88C27.041 40.6 27.7077 39.64 28.6144 39C29.5744 38.3067 30.721 37.96 32.0544 37.96C39.681 37.96 43.4944 51.5333 43.4944 78.68C43.4944 92.0667 40.641 98.76 34.9344 98.76ZM35.6544 95.08C36.5077 95.08 37.201 94.28 37.7344 92.68C38.641 90.3333 39.281 86.4133 39.6544 80.92C39.761 79.7467 39.8144 78.3867 39.8144 76.84C39.8144 73.2667 39.6544 68.52 39.3344 62.6C38.961 57 38.1344 51.9333 36.8544 47.4C36.2677 45.1067 35.4677 43.2933 34.4544 41.96C33.4944 40.6267 32.401 39.88 31.1744 39.72C30.3744 40.36 29.8144 41.0267 29.4944 41.72C29.2277 42.4133 29.0944 43.3467 29.0944 44.52C29.0944 47.4533 29.1477 50.0667 29.2544 52.36L29.4144 60.36C29.4144 61.0533 29.5477 62.3333 29.8144 64.2C30.081 66.1733 30.2144 67.48 30.2144 68.12C30.2144 69.4 30.2944 72.3333 30.4544 76.92C30.6677 81.2933 31.1744 85.32 31.9744 89C32.3477 90.8667 32.8544 92.36 33.4944 93.48C34.1344 94.5467 34.8544 95.08 35.6544 95.08ZM60.6375 98.76C54.1842 98.76 50.9575 83.7733 50.9575 53.8V51.24C50.9575 47.24 51.4108 44.12 52.3175 41.88C52.7442 40.6 53.4108 39.64 54.3175 39C55.2775 38.3067 56.4242 37.96 57.7575 37.96C65.3842 37.96 69.1975 51.5333 69.1975 78.68C69.1975 92.0667 66.3442 98.76 60.6375 98.76ZM61.3575 95.08C62.2108 95.08 62.9042 94.28 63.4375 92.68C64.3442 90.3333 64.9842 86.4133 65.3575 80.92C65.4642 79.7467 65.5175 78.3867 65.5175 76.84C65.5175 73.2667 65.3575 68.52 65.0375 62.6C64.6642 57 63.8375 51.9333 62.5575 47.4C61.9708 45.1067 61.1708 43.2933 60.1575 41.96C59.1975 40.6267 58.1042 39.88 56.8775 39.72C56.0775 40.36 55.5175 41.0267 55.1975 41.72C54.9308 42.4133 54.7975 43.3467 54.7975 44.52C54.7975 47.4533 54.8508 50.0667 54.9575 52.36L55.1175 60.36C55.1175 61.0533 55.2508 62.3333 55.5175 64.2C55.7842 66.1733 55.9175 67.48 55.9175 68.12C55.9175 69.4 55.9975 72.3333 56.1575 76.92C56.3708 81.2933 56.8775 85.32 57.6775 89C58.0508 90.8667 58.5575 92.36 59.1975 93.48C59.8375 94.5467 60.5575 95.08 61.3575 95.08ZM106.55 100.2C105.857 100.2 105.323 99.9333 104.95 99.4C104.63 98.92 104.47 98.3067 104.47 97.56C104.47 86.4133 104.257 77 103.83 69.32C102.55 69.1067 101.643 69 101.11 69C98.9233 69 97.35 69.1867 96.39 69.56C96.39 72.5467 96.63 77.0533 97.11 83.08C97.5367 89.48 97.75 94.0133 97.75 96.68C97.75 97.2133 97.59 97.72 97.27 98.2C96.95 98.6267 96.55 98.84 96.07 98.84C95.3767 98.84 94.7367 97.6133 94.15 95.16C93.2967 91.5333 92.6033 83.9333 92.07 72.36C91.6967 64.52 91.51 56.0933 91.51 47.08C91.4567 45.4267 91.43 43.08 91.43 40.04C91.43 39.08 91.8833 38.6 92.79 38.6C93.3233 38.6 93.8567 38.7333 94.39 39C94.9767 39.2667 95.4033 39.56 95.67 39.88C95.4567 41.5867 95.35 43.5867 95.35 45.88C95.35 48.12 95.4567 50.84 95.67 54.04C95.83 57.72 95.91 60.4933 95.91 62.36V63.8C95.8567 64.2267 95.83 64.7333 95.83 65.32C95.83 65.8533 95.8833 66.5467 95.99 67.4C96.31 67.4 96.8433 67.3733 97.59 67.32C98.3367 67.2667 99.0833 67.1867 99.83 67.08C101.59 66.92 102.897 66.84 103.75 66.84C103.75 62.2 103.697 57.9067 103.59 53.96L103.43 40.6V38.44C104.123 38.44 104.737 38.5733 105.27 38.84C105.803 39.0533 106.203 39.3467 106.47 39.72C106.95 40.3067 107.243 41.32 107.35 42.76V44.6C107.35 49.1867 107.617 57.96 108.15 70.92C108.63 82.6533 108.87 91.4533 108.87 97.32C108.87 98.0667 108.63 98.7333 108.15 99.32C107.723 99.9067 107.19 100.2 106.55 100.2ZM134.796 99C133.943 99 133.303 98.84 132.876 98.52C132.503 98.2 132.316 97.6667 132.316 96.92V86.44C131.623 85.96 130.316 85.5333 128.396 85.16C126.476 84.7867 124.663 84.5467 122.956 84.44C122.37 85.56 121.943 86.92 121.676 88.52L121.356 90.12C121.303 90.4933 121.143 91.32 120.876 92.6C120.61 93.88 120.316 95 119.996 95.96C119.676 96.8667 119.356 97.5867 119.036 98.12C117.01 98.12 115.836 97.5867 115.516 96.52C116.103 95.6667 116.77 93.16 117.516 89L120.156 74.36C121.33 67.4267 122.396 61.5067 123.356 56.6C124.37 51.6933 125.436 47.5867 126.556 44.28C127.783 40.6 128.956 38.76 130.076 38.76C131.196 38.76 132.05 38.9733 132.636 39.4C132.636 41.5333 133.143 46.68 134.156 54.84C135.223 62.84 135.756 68.3067 135.756 71.24C135.756 74.0667 136.05 78.12 136.636 83.4C137.17 88.7867 137.436 93.08 137.436 96.28C137.436 98.0933 136.556 99 134.796 99ZM130.636 81.8C131.063 81.8 131.596 81.72 132.236 81.56C132.076 79.2133 131.81 76.3067 131.436 72.84C130.21 60.7867 129.596 53.4 129.596 50.68V50.04C129.063 50.5733 128.316 53 127.356 57.32C126.45 61.5867 125.596 66.1733 124.796 71.08C123.996 75.9867 123.57 79.24 123.516 80.84C125.756 81.48 128.13 81.8 130.636 81.8ZM166.685 100.2C165.618 100.2 163.432 94.7067 160.125 83.72C156.392 70.8667 153.165 59.0533 150.445 48.28V74.52C150.445 76.76 150.658 80.5733 151.085 85.96C151.458 91.8267 151.645 95.6133 151.645 97.32C151.645 97.8 151.352 98.2267 150.765 98.6C150.178 98.92 149.512 99.08 148.765 99.08C147.645 99.08 147.085 98.6533 147.085 97.8L147.245 95.48C147.352 93.7733 147.405 92.6533 147.405 92.12C147.405 89.2933 147.245 84.8133 146.925 78.68C146.605 72.44 146.445 68.6533 146.445 67.32V57.08C146.445 55.4267 146.525 52.9733 146.685 49.72C146.898 46.8933 147.005 44.44 147.005 42.36V41.88C147.005 39.2133 147.592 37.88 148.765 37.88C149.458 37.88 150.338 39.0533 151.405 41.4C153.165 45.24 155.405 52.12 158.125 62.04C159.672 67.8 161.485 75.2133 163.565 84.28C163.512 84.0667 163.938 85.9067 164.845 89.8L164.925 90.2C164.925 85.0267 164.978 80.3867 165.085 76.28L165.245 62.36V38.68C165.458 37.3467 166.312 36.68 167.805 36.68C169.245 36.68 169.965 37.72 169.965 39.8V40.28C169.645 40.92 169.485 41.6933 169.485 42.6C169.485 45.8533 169.405 50.76 169.245 57.32C169.085 63.9333 169.005 68.8933 169.005 72.2V96.6C169.005 97.4533 168.765 98.2533 168.285 99C167.858 99.8 167.325 100.2 166.685 100.2ZM184.454 99.48C183.44 99.48 182.56 99.3467 181.814 99.08C180.907 98.8133 180.454 98.0667 180.454 96.84V50.36C180.454 49.4533 180.294 48.0933 179.974 46.28C179.6 44.6267 179.414 43.2667 179.414 42.2V41.96C180.32 40.4667 180.987 39.5067 181.414 39.08C182.16 39.08 183.147 38.9733 184.374 38.76C185.494 38.5467 186.48 38.44 187.334 38.44C188.187 38.44 189.014 38.7067 189.814 39.24C190.614 39.72 191.014 40.3067 191.014 41C191.014 42.6 189.787 43.4 187.334 43.4H186.214C185.894 43.3467 185.52 43.32 185.094 43.32C184.614 43.32 184.32 43.3467 184.214 43.4C184.214 45.2133 184.32 47.4 184.534 49.96L184.694 52.2L184.854 56.6C184.854 57.6133 184.774 59.16 184.614 61.24L184.454 65.72L185.574 65.48C186.64 65.16 187.52 65 188.214 65C188.8 65 189.334 65.24 189.814 65.72C190.294 66.1467 190.534 66.6533 190.534 67.24C190.534 67.88 190.32 68.4667 189.894 69C189.52 69.48 189.04 69.72 188.454 69.72L187.494 69.64H186.454C185.654 69.64 185.094 69.8267 184.774 70.2V94.92L189.254 94.68C192.294 94.68 193.814 95.3733 193.814 96.76V97.08C193.494 97.72 192.907 98.2533 192.054 98.68C191.2 99.0533 190.374 99.2933 189.574 99.4L186.934 99.48H184.454ZM208.319 100.28C207.626 100.28 207.013 99.9867 206.479 99.4C205.946 98.8133 205.679 98.1467 205.679 97.4C205.679 96.6 205.973 95.88 206.559 95.24C207.146 94.6 207.839 94.28 208.639 94.28C209.386 94.28 210.053 94.6 210.639 95.24C211.226 95.88 211.519 96.5733 211.519 97.32C211.519 98.1733 211.199 98.8667 210.559 99.4C209.973 99.9867 209.226 100.28 208.319 100.28ZM231.78 101.24C230.34 101.24 229.033 100.76 227.86 99.8C226.687 98.84 225.673 97.5333 224.82 95.88C223.273 93 222.127 89.0533 221.38 84.04C220.847 80.5733 220.447 76.5733 220.18 72.04L220.1 67.8V63.48C220.047 62.0933 220.02 60.4133 220.02 58.44C220.02 55.24 220.153 52.4133 220.42 49.96C220.633 47.4 221.167 44.8667 222.02 42.36C222.873 40.1733 224.1 38.6267 225.7 37.72C226.66 37.2933 227.62 37.08 228.58 37.08C231.407 37.08 233.647 38.2 235.3 40.44C237.113 42.9467 238.313 45.7467 238.9 48.84C239.753 52.5733 240.233 56.1467 240.34 59.56C240.553 63.3467 240.66 66.92 240.66 70.28V74.84C240.66 75.7467 240.527 77.4533 240.26 79.96C240.047 81.9333 239.94 83.6133 239.94 85V85.32C239.62 86.8133 239.46 88.5733 239.46 90.6C239.46 92.0933 239.14 93.64 238.5 95.24C237.86 96.84 236.953 98.2 235.78 99.32C234.607 100.6 233.273 101.24 231.78 101.24ZM231.94 96.84C233.007 96.84 233.913 95.8533 234.66 93.88C235.3 92.12 235.753 89.9867 236.02 87.48C236.34 84.92 236.607 82.04 236.82 78.84C236.927 77.4533 236.98 75.6667 236.98 73.48L236.9 66.12C236.793 63.24 236.473 59.64 235.94 55.32C235.513 51.64 234.713 48.3867 233.54 45.56C233.007 44.2267 232.34 43.1867 231.54 42.44C230.74 41.6933 229.887 41.32 228.98 41.32C227.647 41.32 226.66 42.36 226.02 44.44C225.22 46.6267 224.687 49.0267 224.42 51.64C224.1 54.4667 223.913 57.16 223.86 59.72L223.78 62.36C223.727 63.1067 223.7 64.12 223.7 65.4V65.72C223.7 69.2933 224.073 73.6933 224.82 78.92C225.673 86.0133 226.927 91.0533 228.58 94.04C229.647 95.9067 230.767 96.84 231.94 96.84ZM264.538 99.8C263.524 99.8 262.538 99.08 261.578 97.64V97.4C261.418 94.5733 260.938 91.4267 260.138 87.96C259.338 84.4933 258.164 80.3067 256.618 75.4C255.444 71.72 254.458 68.4133 253.658 65.48V97C253.658 97.8533 253.498 98.4933 253.178 98.92C252.911 99.2933 252.351 99.48 251.498 99.48C250.858 99.48 250.351 99.2933 249.978 98.92C249.604 98.4933 249.418 97.96 249.418 97.32V96.68L249.578 73.16C249.684 66.2267 249.738 58.4133 249.738 49.72V39.88C249.738 39.24 249.871 38.8133 250.138 38.6C250.404 38.3333 250.964 38.2 251.818 38.2C253.151 38.2 254.378 38.4667 255.497 39C256.618 39.48 257.578 40.1733 258.378 41.08C260.031 42.9467 261.098 45.1867 261.578 47.8C261.791 48.8667 261.898 50.0933 261.898 51.48C261.898 52.28 261.818 53.16 261.658 54.12C261.551 55.08 261.471 55.6933 261.418 55.96C261.311 56.4933 261.071 57.2933 260.698 58.36C260.324 59.4267 260.084 60.12 259.978 60.44L259.018 62.68L258.218 64.76C258.271 66.68 258.591 69.1067 259.178 72.04C259.818 74.9733 260.511 77.6933 261.258 80.2C261.791 81.96 262.751 84.8933 264.138 89L266.458 96.04V96.2C266.458 97.1067 266.378 97.88 266.218 98.52C266.058 99.3733 265.498 99.8 264.538 99.8ZM253.498 61.88C254.244 61.1333 255.151 60.0933 256.218 58.76L257.418 51.88C257.471 51.6133 257.498 51.24 257.498 50.76C257.498 49.2133 257.204 47.4267 256.618 45.4C256.298 44.44 255.871 43.64 255.338 43C254.858 42.3067 254.351 41.9333 253.818 41.88L253.658 49.88C253.498 53.4533 253.418 56.2267 253.418 58.2C253.418 60.0667 253.444 61.2933 253.498 61.88ZM285.663 101.08C282.729 101.08 280.303 100.2 278.383 98.44C276.836 97.16 275.423 94.9733 274.143 91.88C273.343 89.8533 272.703 87 272.223 83.32C271.849 80.3333 271.663 77.5067 271.663 74.84C271.609 74.1467 271.583 72.9467 271.583 71.24V68.52V65.32C271.583 63.0267 271.663 60.28 271.823 57.08C272.036 54.36 272.463 51.5867 273.103 48.76C273.796 45.9867 274.809 43.64 276.143 41.72C277.476 39.6933 279.263 38.2533 281.503 37.4C282.836 37.0267 284.089 36.84 285.263 36.84C287.503 36.84 288.622 37.5867 288.622 39.08C288.622 39.6667 288.409 40.1467 287.983 40.52C287.609 40.84 287.103 41 286.463 41C286.249 41 285.876 40.92 285.343 40.76L284.223 40.6C283.209 40.6 282.303 40.92 281.503 41.56C280.703 42.1467 280.036 43.0267 279.503 44.2C278.276 46.76 277.449 49.56 277.023 52.6C276.436 56.3333 276.116 59.5867 276.063 62.36C275.956 64.76 275.903 67.2933 275.903 69.96V72.12C275.849 72.8667 275.823 73.8 275.823 74.92C275.823 77.64 275.956 80.3067 276.223 82.92C276.436 86.0133 277.023 88.68 277.983 90.92C278.836 93.4267 280.223 95.1867 282.143 96.2C283.049 96.7333 284.169 97 285.503 97C287.849 97 289.823 95.88 291.423 93.64C291.369 91.7733 291.236 89.96 291.023 88.2C290.809 86.3867 290.489 85.16 290.063 84.52C290.009 84.52 289.876 84.5467 289.663 84.6C289.503 84.6 289.236 84.6267 288.863 84.68L286.943 84.84C285.129 84.84 284.223 84.0667 284.223 82.52C284.223 82.04 284.489 81.6133 285.023 81.24C285.556 80.8667 286.276 80.6 287.183 80.44C288.676 80.0667 290.009 79.88 291.183 79.88C292.249 79.88 293.076 80.28 293.663 81.08C294.249 81.88 294.543 82.8933 294.543 84.12C294.543 85.88 294.809 88.28 295.343 91.32C295.876 94.3067 296.143 96.68 296.143 98.44C296.143 99.0267 295.956 99.5333 295.583 99.96C295.209 100.387 294.756 100.6 294.223 100.6C292.889 100.6 291.983 100.04 291.503 98.92V98.84L289.743 99.72C288.143 100.627 286.783 101.08 285.663 101.08Z" fill="black"/>
<path fill-rule="evenodd" clip-rule="evenodd" d="M119.936 74.7272C121.174 73.9146 123.289 74.0531 124.644 75.2347C125.445 75.9321 126.426 76.4541 127.008 77.3972C127.164 77.6501 127.347 77.8885 127.53 78.1487C127.86 77.965 128.107 77.7653 128.2 77.336C128.319 76.7835 128.778 76.4001 129.199 76.0473C130.522 74.9584 131.991 74.1449 133.739 74.0072C135.191 73.892 136.727 75.1726 136.966 76.7835C137.213 78.4483 136.059 81.173 134.94 82.423C133.113 84.4712 131.62 88.7729 129.435 90.4224C128.723 90.9588 128.209 90.9516 127.513 90.5915C125.706 89.6476 123.775 86.442 121.993 85.461C120.38 84.571 118.987 81.9534 118.423 80.097C117.72 77.7886 117.69 76.2004 119.936 74.7281V74.7272Z" fill="#E03F1E"/>
<path d="M72.5 33L137 2.5L203 33" stroke="#E03F1E" stroke-width="3" stroke-linecap="round" stroke-dasharray="6 6"/>
</svg>
