<svg width="324" height="60" viewBox="0 0 324 60" fill="none" xmlns="http://www.w3.org/2000/svg">
<path fill-rule="evenodd" clip-rule="evenodd" d="M32.7016 7.77859C32.9551 7.13233 33.0944 6.4282 33.0944 5.69137C33.0944 2.54811 30.5599 0 27.4335 0C24.3071 0 21.7726 2.54811 21.7726 5.69137C21.7726 8.15106 23.3246 10.2463 25.4977 11.0413C23.192 13.2898 19.735 17.7602 22.7306 19.3507C25.493 20.8173 26.2421 19.0589 26.9807 17.3253C27.2784 16.6267 27.5743 15.9321 27.9996 15.4543C28.0193 15.4321 28.0395 15.4094 28.0602 15.3861C29.5898 13.665 33.6726 9.07113 41.0197 12.9588C41.9196 13.0756 43.7543 13.3266 43.8937 13.3966V12.8275C42.2487 10.84 37.5483 7.00651 32.7016 7.77859Z" fill="#EB1D36"/>
<path fill-rule="evenodd" clip-rule="evenodd" d="M51.4537 19.5399C52.1372 19.4375 52.8133 19.2067 53.4481 18.8383C56.1556 17.2667 57.0833 13.7859 55.5201 11.0637C53.9569 8.3416 50.4947 7.40893 47.7872 8.98055C45.6684 10.2104 44.6396 12.6093 45.0414 14.899C41.9516 14.0157 36.3724 13.2409 36.5002 16.6444C36.618 19.7828 38.5073 19.5559 40.3699 19.3322C41.1205 19.2421 41.8667 19.1524 42.491 19.2838C42.5199 19.2899 42.5496 19.2961 42.5799 19.3025C44.8273 19.7737 50.8258 21.0316 51.1506 29.3725C51.5 30.2144 52.2011 31.9374 52.2104 32.0937L52.7007 31.8091C53.5902 29.3831 54.5421 23.3738 51.4537 19.5399Z" fill="#0096FF"/>
<path fill-rule="evenodd" clip-rule="evenodd" d="M50.6103 41.8488C51.0402 42.3927 51.5771 42.866 52.2118 43.2344C54.9194 44.806 58.3816 43.8734 59.9448 41.1512C61.508 38.4291 60.5803 34.9483 57.8727 33.3767C55.754 32.1468 53.1731 32.4505 51.4018 33.9452C50.6178 30.8133 48.4955 25.5682 45.6277 27.3812C42.9832 29.053 44.1233 30.5845 45.2473 32.0944C45.7002 32.7029 46.1506 33.3078 46.3495 33.917C46.3588 33.9453 46.3682 33.9742 46.3779 34.0038C47.0957 36.1962 49.0114 42.048 41.9891 46.5011C41.4385 47.2263 40.3049 48.6983 40.1749 48.7846L40.6652 49.0692C43.1997 48.6306 48.852 46.4548 50.6103 41.8488Z" fill="#31087B"/>
<path fill-rule="evenodd" clip-rule="evenodd" d="M31.0489 52.2214C30.7954 52.8677 30.6561 53.5718 30.6561 54.3086C30.6561 57.4519 33.1906 60 36.317 60C39.4434 60 41.9779 57.4519 41.9779 54.3086C41.9779 51.8489 40.4259 49.7537 38.2528 48.9587C40.5585 46.7102 44.0155 42.2398 41.0199 40.6493C38.2575 39.1827 37.5083 40.9411 36.7697 42.6747C36.4721 43.3733 36.1762 44.0679 35.7509 44.5457C35.7312 44.5679 35.711 44.5906 35.6903 44.6139C34.1607 46.335 30.0779 50.9289 22.7308 47.0412C21.8309 46.9244 19.9962 46.6734 19.8568 46.6034L19.8568 47.1725C21.5018 49.16 26.2022 52.9935 31.0489 52.2214Z" fill="#3CCF4E"/>
<path fill-rule="evenodd" clip-rule="evenodd" d="M12.2963 40.321C11.6128 40.4234 10.9366 40.6542 10.3019 41.0226C7.59437 42.5942 6.66669 46.075 8.2299 48.7972C9.79312 51.5193 13.2553 52.452 15.9628 50.8803C18.0816 49.6505 19.1104 47.2516 18.7086 44.9619C21.7983 45.8452 27.3776 46.62 27.2498 43.2165C27.132 40.0781 25.2427 40.305 23.3801 40.5287C22.6295 40.6188 21.8833 40.7085 21.259 40.5771C21.2301 40.571 21.2004 40.5648 21.1701 40.5584C18.9227 40.0872 12.9242 38.8293 12.5994 30.4884C12.25 29.6465 11.5489 27.9235 11.5396 27.7672L11.0493 28.0518C10.1598 30.4778 9.20786 36.4871 12.2963 40.321Z" fill="#FD841F"/>
<path fill-rule="evenodd" clip-rule="evenodd" d="M13.1398 18.1871C12.7098 17.6432 12.1729 17.1698 11.5382 16.8014C8.83064 15.2298 5.36848 16.1625 3.80527 18.8846C2.24205 21.6067 3.16974 25.0875 5.8773 26.6591C7.99606 27.889 10.5769 27.5853 12.3483 26.0907C13.1322 29.2225 15.2545 34.4678 18.1223 32.6547C20.7668 30.9829 19.6267 29.4514 18.5028 27.9415C18.0498 27.333 17.5995 26.7281 17.4005 26.1189C17.3913 26.0906 17.3818 26.0617 17.3721 26.0321C16.6544 23.8397 14.7386 17.9879 21.761 13.5348C22.3115 12.8096 23.4451 11.3376 23.5751 11.2513L23.0848 10.9668C20.5504 11.4053 14.8981 13.5811 13.1398 18.1871Z" fill="#99154E"/>
<path fill-rule="evenodd" clip-rule="evenodd" d="M158.887 16.0868H155.659V15.771C155.659 15.3747 155.579 15.0403 155.418 14.7679C155.257 14.483 155.01 14.3406 154.676 14.3406C154.305 14.3406 154.033 14.4644 153.859 14.7121C153.686 14.9474 153.6 15.2137 153.6 15.5109C153.6 15.9443 153.736 16.2911 154.008 16.5512C154.292 16.7988 154.645 17.0156 155.065 17.2013C155.486 17.3871 155.937 17.579 156.42 17.7772C156.902 17.963 157.354 18.2106 157.774 18.5202C158.195 18.8298 158.541 19.2385 158.813 19.7463C159.098 20.2416 159.24 20.8918 159.24 21.6968C159.24 23.1086 158.838 24.1364 158.034 24.7804C157.23 25.412 156.067 25.7278 154.546 25.7278C153.828 25.7278 153.191 25.6659 152.635 25.542C152.091 25.4306 151.627 25.2324 151.243 24.9476C150.872 24.6504 150.588 24.2665 150.39 23.7959C150.192 23.3253 150.093 22.7432 150.093 22.0497V21.5853H153.433V21.9011C153.433 22.4708 153.538 22.8733 153.748 23.1086C153.958 23.3315 154.23 23.4429 154.564 23.4429C154.923 23.4429 155.195 23.3191 155.381 23.0714C155.579 22.8237 155.678 22.5203 155.678 22.1612C155.678 21.7277 155.542 21.3872 155.269 21.1395C155.01 20.8794 154.676 20.6627 154.268 20.4893C153.872 20.3036 153.439 20.1178 152.969 19.932C152.499 19.7463 152.06 19.5048 151.651 19.2076C151.256 18.9103 150.922 18.5202 150.65 18.0373C150.39 17.5543 150.26 16.9227 150.26 16.1425C150.26 14.7926 150.619 13.7647 151.336 13.0588C152.053 12.3529 153.142 12 154.602 12C156.111 12 157.199 12.3282 157.867 12.9845C158.547 13.6285 158.887 14.6626 158.887 16.0868ZM67.6406 25.5235V12.2601H72.5759L73.9674 20.1178H74.0045L75.3961 12.2601H80.3314V25.5235H77.103V15.6409H77.0659L75.2291 25.5235H72.7429L70.9061 15.6409H70.869V25.5235H67.6406ZM81.8307 25.5235V12.2601H89.6789V15.0836H85.2817V17.3499H89.4006V20.0621H85.2817V22.6999H89.8459V25.5235H81.8307ZM91.1076 12.2601V25.5235H94.3359V17.3314H94.373L96.6737 25.5235H100.459V12.2601H97.2303V20.4336H97.1932L94.9668 12.2601H91.1076ZM102.088 25.5235V12.2601H109.936V15.0836H105.539V17.3499H109.658V20.0621H105.539V22.6999H110.103V25.5235H102.088ZM111.235 12.2601V25.5235H114.463V15.6409H114.5L116.337 25.5235H118.823L120.66 15.6409H120.697V25.5235H123.925V12.2601H118.99L117.598 20.1178H117.561L116.17 12.2601H111.235ZM125.425 25.5235V12.2601H133.273V15.0836H128.876V17.3499H132.995V20.0621H128.876V22.6999H133.44V25.5235H125.425ZM134.702 12.2601V25.5235H137.93V17.3314H137.967L140.268 25.5235H144.053V12.2601H140.824V20.4336H140.787L138.561 12.2601H134.702ZM163.639 18.8918C163.639 18.0001 163.652 17.2633 163.676 16.6812C163.701 16.0868 163.751 15.6162 163.825 15.2694C163.911 14.9227 164.029 14.6812 164.177 14.5449C164.338 14.4087 164.548 14.3406 164.808 14.3406C165.068 14.3406 165.272 14.4087 165.42 14.5449C165.581 14.6812 165.699 14.9227 165.773 15.2694C165.859 15.6162 165.915 16.0868 165.94 16.6812C165.965 17.2633 165.977 18.0001 165.977 18.8918C165.977 19.7834 165.965 20.5265 165.94 21.1209C165.915 21.703 165.859 22.1674 165.773 22.5141C165.699 22.8609 165.581 23.1024 165.42 23.2386C165.272 23.3748 165.068 23.4429 164.808 23.4429C164.548 23.4429 164.338 23.3748 164.177 23.2386C164.029 23.1024 163.911 22.8609 163.825 22.5141C163.751 22.1674 163.701 21.703 163.676 21.1209C163.652 20.5265 163.639 19.7834 163.639 18.8918ZM160.077 18.8918C160.077 20.1302 160.157 21.189 160.318 22.0683C160.479 22.9352 160.745 23.6473 161.116 24.2046C161.487 24.7495 161.976 25.1396 162.582 25.3749C163.188 25.6102 163.93 25.7278 164.808 25.7278C165.686 25.7278 166.428 25.6102 167.035 25.3749C167.641 25.1396 168.129 24.7495 168.5 24.2046C168.871 23.6473 169.137 22.9352 169.298 22.0683C169.459 21.189 169.539 20.1302 169.539 18.8918C169.539 17.6534 169.459 16.6007 169.298 15.7338C169.137 14.8545 168.871 14.1425 168.5 13.5976C168.129 13.0403 167.641 12.6378 167.035 12.3901C166.428 12.13 165.686 12 164.808 12C163.93 12 163.188 12.13 162.582 12.3901C161.976 12.6378 161.487 13.0403 161.116 13.5976C160.745 14.1425 160.479 14.8545 160.318 15.7338C160.157 16.6007 160.077 17.6534 160.077 18.8918ZM179.162 16.0868H175.934V15.771C175.934 15.3747 175.854 15.0403 175.693 14.7679C175.532 14.483 175.285 14.3406 174.951 14.3406C174.58 14.3406 174.308 14.4644 174.134 14.7121C173.961 14.9474 173.875 15.2137 173.875 15.5109C173.875 15.9443 174.011 16.2911 174.283 16.5512C174.567 16.7988 174.92 17.0156 175.34 17.2013C175.761 17.3871 176.212 17.579 176.695 17.7772C177.177 17.963 177.629 18.2106 178.049 18.5202C178.47 18.8298 178.816 19.2385 179.088 19.7463C179.373 20.2416 179.515 20.8918 179.515 21.6968C179.515 23.1086 179.113 24.1364 178.309 24.7804C177.505 25.412 176.342 25.7278 174.821 25.7278C174.103 25.7278 173.466 25.6659 172.91 25.542C172.366 25.4306 171.902 25.2324 171.518 24.9476C171.147 24.6504 170.863 24.2665 170.665 23.7959C170.467 23.3253 170.368 22.7432 170.368 22.0497V21.5853H173.708V21.9011C173.708 22.4708 173.813 22.8733 174.023 23.1086C174.233 23.3315 174.505 23.4429 174.839 23.4429C175.198 23.4429 175.47 23.3191 175.656 23.0714C175.854 22.8237 175.953 22.5203 175.953 22.1612C175.953 21.7277 175.817 21.3872 175.544 21.1395C175.285 20.8794 174.951 20.6627 174.543 20.4893C174.147 20.3036 173.714 20.1178 173.244 19.932C172.774 19.7463 172.335 19.5048 171.926 19.2076C171.531 18.9103 171.197 18.5202 170.925 18.0373C170.665 17.5543 170.535 16.9227 170.535 16.1425C170.535 14.7926 170.894 13.7647 171.611 13.0588C172.328 12.3529 173.417 12 174.877 12C176.386 12 177.474 12.3282 178.142 12.9845C178.822 13.6285 179.162 14.6626 179.162 16.0868ZM183.024 20.3036V25.5235H186.475V20.3036L189.851 12.2601H186.066L184.768 16.8855H184.731L183.432 12.2601H179.703L183.024 20.3036ZM192.652 20.6008L193.599 14.9722H193.636L194.582 20.6008H192.652ZM199.016 25.5235L195.788 12.2601H191.446L188.274 25.5235H191.892L192.244 23.2014H194.99L195.343 25.5235H199.016ZM199.585 12.2601V25.5235H207.285V22.6999H203.036V12.2601H199.585ZM214.587 25.5235V20.3036L211.266 12.2601H214.995L216.294 16.8855H216.331L217.629 12.2601H221.414L218.038 20.3036V25.5235H214.587ZM225.162 14.9722L224.215 20.6008H226.145L225.199 14.9722H225.162ZM227.351 12.2601L230.579 25.5235H226.906L226.553 23.2014H223.807L223.455 25.5235H219.837L223.009 12.2601H227.351ZM234.599 14.7493V17.8701H235.286C235.78 17.8701 236.145 17.7277 236.38 17.4428C236.615 17.1456 236.733 16.7617 236.733 16.2911C236.733 15.7338 236.615 15.3375 236.38 15.1022C236.158 14.8669 235.787 14.7493 235.267 14.7493H234.599ZM231.148 25.5235V12.2601H236.547C237.203 12.2601 237.759 12.3468 238.217 12.5201C238.687 12.6935 239.064 12.9412 239.349 13.2632C239.646 13.5728 239.856 13.9443 239.98 14.3778C240.116 14.8112 240.184 15.2818 240.184 15.7895C240.184 16.6812 240.004 17.3995 239.646 17.9444C239.287 18.4893 238.712 18.8237 237.92 18.9475V18.9846C238.749 19.0589 239.318 19.35 239.627 19.8577C239.936 20.3655 240.091 21.0652 240.091 21.9568V23.09V23.6287C240.091 23.8145 240.097 23.994 240.11 24.1674C240.122 24.3284 240.141 24.477 240.165 24.6132C240.19 24.7495 240.221 24.8547 240.258 24.929L240.406 25.1519C240.456 25.2139 240.536 25.2758 240.648 25.3377V25.5235H236.974C236.887 25.3501 236.819 25.1457 236.77 24.9104C236.733 24.6752 236.702 24.4399 236.677 24.2046C236.665 23.9693 236.652 23.7463 236.64 23.5358V22.9971V22.1054C236.64 21.7339 236.621 21.4243 236.584 21.1766C236.547 20.929 236.479 20.737 236.38 20.6008C236.294 20.4522 236.176 20.3531 236.028 20.3036C235.892 20.2416 235.719 20.2107 235.508 20.2107H234.599V25.5235H231.148ZM241.802 12.2601V25.5235H246.812C247.813 25.5235 248.593 25.3439 249.149 24.9848C249.706 24.6132 250.12 24.1241 250.392 23.5172C250.677 22.898 250.85 22.1921 250.912 21.3995C250.974 20.5946 251.005 19.7587 251.005 18.8918C251.005 18.0249 250.974 17.1951 250.912 16.4026C250.85 15.5976 250.677 14.8917 250.392 14.2849C250.12 13.6657 249.706 13.1765 249.149 12.8174C248.593 12.4458 247.813 12.2601 246.812 12.2601H241.802ZM245.253 14.7493H245.94C246.273 14.7493 246.539 14.7988 246.737 14.8979C246.935 14.9846 247.084 15.1765 247.183 15.4737C247.294 15.771 247.362 16.192 247.387 16.7369C247.424 17.2818 247.442 18.0001 247.442 18.8918C247.442 19.7834 247.424 20.5017 247.387 21.0466C247.362 21.5915 247.294 22.0126 247.183 22.3098C247.084 22.607 246.935 22.8051 246.737 22.9042C246.539 22.9909 246.273 23.0343 245.94 23.0343H245.253V14.7493ZM252.326 25.5235V12.2601H255.777V25.5235H252.326ZM257.146 12.2601V25.5235H260.374V15.6409H260.411L262.248 25.5235H264.734L266.571 15.6409H266.608V25.5235H269.836V12.2601H264.901L263.51 20.1178H263.472L262.081 12.2601H257.146ZM271.336 25.5235V12.2601H274.787V22.6999H279.036V25.0496L282.095 12.2601H286.436L289.665 25.5235H285.991L285.639 23.2014H282.893L282.54 25.5235H279.036H278.922H271.336ZM284.247 14.9722L283.301 20.6008H285.23L284.284 14.9722H284.247ZM298.62 16.0868H295.392V15.771C295.392 15.3747 295.311 15.0403 295.15 14.7679C294.99 14.483 294.742 14.3406 294.408 14.3406C294.037 14.3406 293.765 14.4644 293.592 14.7121C293.419 14.9474 293.332 15.2137 293.332 15.5109C293.332 15.9443 293.468 16.2911 293.74 16.5512C294.025 16.7988 294.377 17.0156 294.798 17.2013C295.219 17.3871 295.67 17.579 296.152 17.7772C296.635 17.963 297.086 18.2106 297.507 18.5202C297.927 18.8298 298.274 19.2385 298.546 19.7463C298.83 20.2416 298.973 20.8918 298.973 21.6968C298.973 23.1086 298.571 24.1364 297.767 24.7804C297.094 25.3091 296.169 25.6165 294.994 25.7026L294.408 26.7681C294.594 26.7061 294.773 26.6752 294.946 26.6752C295.392 26.6752 295.781 26.7928 296.115 27.0281C296.462 27.2634 296.635 27.635 296.635 28.1427C296.635 28.7743 296.418 29.2387 295.985 29.5359C295.565 29.8331 294.983 29.9817 294.241 29.9817C293.883 29.9817 293.512 29.9446 293.128 29.8703C292.745 29.8084 292.411 29.7217 292.126 29.6102L292.534 28.57C292.943 28.7681 293.363 28.8672 293.796 28.8672C294.081 28.8672 294.303 28.8053 294.464 28.6814C294.637 28.5576 294.724 28.409 294.724 28.2356C294.724 27.9879 294.637 27.8269 294.464 27.7526C294.291 27.6783 294.124 27.6411 293.963 27.6411C293.864 27.6411 293.771 27.6535 293.685 27.6783C293.598 27.7031 293.512 27.734 293.425 27.7712L292.961 27.3811L293.87 25.7208C293.317 25.7015 292.816 25.6419 292.367 25.542C291.823 25.4306 291.359 25.2324 290.976 24.9476C290.605 24.6504 290.32 24.2665 290.122 23.7959C289.924 23.3253 289.826 22.7432 289.826 22.0497V21.5853H293.165V21.9011C293.165 22.4708 293.27 22.8733 293.481 23.1086C293.691 23.3315 293.963 23.4429 294.297 23.4429C294.656 23.4429 294.928 23.3191 295.113 23.0714C295.311 22.8237 295.41 22.5203 295.41 22.1612C295.41 21.7277 295.274 21.3872 295.002 21.1395C294.742 20.8794 294.408 20.6627 294 20.4893C293.604 20.3036 293.171 20.1178 292.701 19.932C292.231 19.7463 291.792 19.5048 291.384 19.2076C290.988 18.9103 290.654 18.5202 290.382 18.0373C290.122 17.5543 289.993 16.9227 289.993 16.1425C289.993 14.7926 290.351 13.7647 291.069 13.0588C291.786 12.3529 292.875 12 294.334 12C295.843 12 296.932 12.3282 297.6 12.9845C298.28 13.6285 298.62 14.6626 298.62 16.0868ZM300.069 12.2601V25.5235H303.298V15.6409H303.335L305.171 25.5235H307.658L309.495 15.6409H309.532V25.5235H312.76V12.2601H307.825L306.433 20.1178H306.396L305.005 12.2601H300.069ZM317.636 20.6008L318.582 14.9722H318.619L319.566 20.6008H317.636ZM324 25.5235L320.772 12.2601H316.43L313.257 25.5235H316.875L317.228 23.2014H319.974L320.326 25.5235H324ZM240.609 37.0842V39.4248H241.833C241.833 39.9945 241.803 40.465 241.741 40.8366C241.691 41.1957 241.617 41.4806 241.518 41.6911C241.419 41.8892 241.295 42.0254 241.147 42.0998C241.011 42.1741 240.85 42.2112 240.665 42.2112C240.405 42.2112 240.195 42.1431 240.034 42.0069C239.885 41.8706 239.768 41.6292 239.681 41.2824C239.607 40.9356 239.558 40.4712 239.533 39.8892C239.508 39.2948 239.496 38.5517 239.496 37.66C239.496 36.7684 239.508 36.0315 239.533 35.4495C239.558 34.855 239.607 34.3844 239.681 34.0377C239.768 33.6909 239.892 33.4494 240.052 33.3132C240.225 33.177 240.454 33.1089 240.739 33.1089C241.147 33.1089 241.413 33.3008 241.537 33.6847C241.66 34.0067 241.722 34.5207 241.722 35.2266H245.062C245.062 34.4216 244.957 33.7405 244.746 33.1832C244.536 32.6135 244.245 32.1491 243.874 31.79C243.503 31.4308 243.058 31.1708 242.539 31.0098C242.031 30.8488 241.475 30.7683 240.869 30.7683C239.854 30.7683 239.026 30.9231 238.382 31.2327C237.739 31.5299 237.232 31.9695 236.861 32.5516C236.502 33.1336 236.255 33.8519 236.119 34.7064C235.995 35.5609 235.933 36.5455 235.933 37.66C235.933 38.7622 235.964 39.7406 236.026 40.5951C236.1 41.4496 236.267 42.1679 236.527 42.7499C236.787 43.332 237.17 43.7716 237.677 44.0688C238.185 44.3537 238.877 44.4961 239.755 44.4961C240.052 44.4961 240.343 44.4775 240.627 44.4404C240.924 44.4032 241.196 44.3413 241.444 44.2546C241.704 44.1555 241.932 44.0131 242.13 43.8273C242.341 43.6416 242.501 43.4063 242.613 43.1214H242.65L242.724 44.2917H245.062V37.0842H240.609ZM239.162 27.1273H237.715C237.776 27.9571 238.03 28.6196 238.475 29.115C238.921 29.598 239.588 29.8395 240.479 29.8395C241.37 29.8395 242.038 29.598 242.483 29.115C242.941 28.6196 243.2 27.9571 243.262 27.1273H241.796C241.759 27.5856 241.611 27.9075 241.351 28.0933C241.091 28.2667 240.801 28.3534 240.479 28.3534C240.157 28.3534 239.867 28.2667 239.607 28.0933C239.347 27.9075 239.199 27.5856 239.162 27.1273ZM151.318 34.855H154.546C154.546 33.4309 154.206 32.3968 153.526 31.7528C152.858 31.0965 151.769 30.7683 150.26 30.7683C148.801 30.7683 147.712 31.1212 146.995 31.8271C146.277 32.533 145.919 33.5609 145.919 34.9108C145.919 35.691 146.048 36.3226 146.308 36.8055C146.58 37.2885 146.914 37.6786 147.31 37.9758C147.718 38.2731 148.157 38.5145 148.627 38.7003C149.097 38.8861 149.53 39.0718 149.926 39.2576C150.334 39.431 150.668 39.6477 150.928 39.9078C151.2 40.1554 151.336 40.496 151.336 40.9295C151.336 41.2886 151.237 41.592 151.039 41.8397C150.854 42.0874 150.582 42.2112 150.223 42.2112C149.889 42.2112 149.617 42.0998 149.407 41.8768C149.196 41.6415 149.091 41.2391 149.091 40.6694V40.3536H145.752V40.818C145.752 41.5115 145.85 42.0936 146.048 42.5642C146.246 43.0348 146.531 43.4187 146.902 43.7159C147.285 44.0007 147.749 44.1989 148.293 44.3103C148.742 44.4102 149.243 44.4698 149.796 44.4891L148.887 46.1494L149.351 46.5395C149.438 46.5023 149.524 46.4714 149.611 46.4466C149.697 46.4218 149.79 46.4094 149.889 46.4094C150.05 46.4094 150.217 46.4466 150.39 46.5209C150.563 46.5952 150.65 46.7562 150.65 47.0039C150.65 47.1772 150.563 47.3259 150.39 47.4497C150.229 47.5735 150.007 47.6355 149.722 47.6355C149.289 47.6355 148.869 47.5364 148.46 47.3382L148.052 48.3785C148.337 48.49 148.671 48.5767 149.054 48.6386C149.438 48.7129 149.809 48.75 150.167 48.75C150.909 48.75 151.491 48.6014 151.911 48.3042C152.344 48.007 152.561 47.5426 152.561 46.911C152.561 46.4032 152.388 46.0317 152.041 45.7964C151.707 45.5611 151.318 45.4435 150.872 45.4435C150.699 45.4435 150.52 45.4744 150.334 45.5364L150.92 44.4709C152.095 44.3848 153.02 44.0774 153.693 43.5487C154.497 42.9047 154.899 41.8768 154.899 40.465C154.899 39.6601 154.756 39.0099 154.472 38.5146C154.2 38.0068 153.853 37.5981 153.433 37.2885C153.012 36.9789 152.561 36.7312 152.078 36.5455C151.596 36.3473 151.144 36.1554 150.724 35.9696C150.303 35.7839 149.951 35.5671 149.666 35.3194C149.394 35.0594 149.258 34.7126 149.258 34.2792C149.258 33.982 149.345 33.7157 149.518 33.4804C149.691 33.2327 149.963 33.1089 150.334 33.1089C150.668 33.1089 150.916 33.2513 151.076 33.5361C151.237 33.8086 151.318 34.143 151.318 34.5392V34.855ZM70.3016 44.2917L67.5 31.0283H71.118L72.5095 41.0223H72.5466L73.9381 31.0283H77.6118L74.7545 44.2917H70.3016ZM78.1597 44.2917V31.0283H86.0079V33.8519H81.6107V36.1182H85.7296V38.8303H81.6107V41.4682H86.1749V44.2917H78.1597ZM92.2561 31.0283V44.2917H97.2656C98.2675 44.2917 99.0468 44.1122 99.6034 43.753C100.16 43.3815 100.574 42.8923 100.847 42.2855C101.131 41.6663 101.304 40.9604 101.366 40.1678C101.428 39.3629 101.459 38.5269 101.459 37.66C101.459 36.7932 101.428 35.9634 101.366 35.1708C101.304 34.3659 101.131 33.66 100.847 33.0532C100.574 32.4339 100.16 31.9448 99.6034 31.5856C99.0468 31.2141 98.2675 31.0283 97.2656 31.0283H92.2561ZM95.7071 41.8025V33.5176H96.3936C96.7276 33.5176 96.9935 33.5671 97.1914 33.6662C97.3893 33.7529 97.5378 33.9448 97.6367 34.242C97.748 34.5392 97.8161 34.9603 97.8408 35.5052C97.8779 36.0501 97.8965 36.7684 97.8965 37.66C97.8965 38.5517 97.8779 39.27 97.8408 39.8149C97.8161 40.3598 97.748 40.7808 97.6367 41.0781C97.5378 41.3753 97.3893 41.5734 97.1914 41.6725C96.9935 41.7592 96.7276 41.8025 96.3936 41.8025H95.7071ZM105.961 39.3691L106.907 33.7405H106.944L107.89 39.3691H105.961ZM112.325 44.2917L109.096 31.0283H104.755L101.582 44.2917H105.2L105.552 41.9697H108.298L108.651 44.2917H112.325ZM113.799 39.0718V44.2917H117.25V39.0718L120.626 31.0283H116.841L115.543 35.6538H115.506L114.207 31.0283H110.477L113.799 39.0718ZM123.427 39.3691L124.373 33.7405H124.411L125.357 39.3691H123.427ZM129.791 44.2917L126.563 31.0283H122.221L119.049 44.2917H122.667L123.019 41.9697H125.765L126.118 44.2917H129.791ZM130.36 44.2917H133.588V36.0996H133.626L135.926 44.2917H139.711V31.0283H136.483V39.2019H136.446L134.219 31.0283H130.36V44.2917ZM144.661 44.2917H141.21V31.0283H144.661V44.2917ZM159.224 44.2917H155.995V31.0283H160.93L162.322 38.8861H162.359L163.751 31.0283H168.686V44.2917H165.458V34.4092H165.421L163.584 44.2917H161.097L159.261 34.4092H159.224V44.2917ZM174.508 33.7405L173.562 39.3691H175.492L174.545 33.7405H174.508ZM176.698 31.0283L179.926 44.2917H176.252L175.9 41.9697H173.154L172.801 44.2917H169.183L172.356 31.0283H176.698ZM190.324 44.2917H185.315V31.0283H190.324C191.326 31.0283 192.105 31.2141 192.662 31.5856C193.218 31.9448 193.633 32.4339 193.905 33.0532C194.189 33.66 194.363 34.3659 194.424 35.1708C194.486 35.9634 194.517 36.7932 194.517 37.66C194.517 38.5269 194.486 39.3629 194.424 40.1678C194.363 40.9604 194.189 41.6663 193.905 42.2855C193.633 42.8923 193.218 43.3815 192.662 43.753C192.105 44.1122 191.326 44.2917 190.324 44.2917ZM188.766 33.5176V41.8025H189.452C189.786 41.8025 190.052 41.7592 190.25 41.6725C190.448 41.5734 190.596 41.3753 190.695 41.0781C190.806 40.7808 190.874 40.3598 190.899 39.8149C190.936 39.27 190.955 38.5517 190.955 37.66C190.955 36.7684 190.936 36.0501 190.899 35.5052C190.874 34.9603 190.806 34.5392 190.695 34.242C190.596 33.9448 190.448 33.7529 190.25 33.6662C190.052 33.5671 189.786 33.5176 189.452 33.5176H188.766ZM195.968 44.2917H203.984V41.4682H199.419V38.8303H203.538V36.1182H199.419V33.8519H203.817V31.0283H195.968V44.2917ZM208.696 33.5176V36.6384H209.383C209.878 36.6384 210.242 36.4959 210.477 36.2111C210.712 35.9139 210.83 35.53 210.83 35.0594C210.83 34.5021 210.712 34.1058 210.477 33.8705C210.255 33.6352 209.884 33.5176 209.364 33.5176H208.696ZM205.245 44.2917V31.0283H210.644C211.3 31.0283 211.857 31.115 212.314 31.2884C212.784 31.4618 213.162 31.7095 213.446 32.0315C213.743 32.3411 213.953 32.7126 214.077 33.146C214.213 33.5795 214.281 34.0501 214.281 34.5578C214.281 35.4495 214.102 36.1678 213.743 36.7127C213.384 37.2576 212.809 37.5919 212.017 37.7158V37.7529C212.846 37.8272 213.415 38.1183 213.724 38.626C214.034 39.1338 214.188 39.8335 214.188 40.7251V41.8583V42.397C214.188 42.5827 214.194 42.7623 214.207 42.9357C214.219 43.0967 214.238 43.2453 214.262 43.3815C214.287 43.5177 214.318 43.623 214.355 43.6973L214.504 43.9202C214.553 43.9821 214.633 44.0441 214.745 44.106V44.2917H211.071C210.985 44.1184 210.917 43.914 210.867 43.6787C210.83 43.4434 210.799 43.2081 210.774 42.9728C210.762 42.7375 210.75 42.5146 210.737 42.3041V41.7654V40.8737C210.737 40.5022 210.719 40.1926 210.682 39.9449C210.644 39.6972 210.576 39.5053 210.477 39.3691C210.391 39.2204 210.273 39.1214 210.125 39.0718C209.989 39.0099 209.816 38.979 209.605 38.979H208.696V44.2917H205.245ZM215.899 44.2917H219.128V36.0996H219.165L221.465 44.2917H225.25V31.0283H222.022V39.2019H221.985L219.758 31.0283H215.899V44.2917ZM234.894 44.2917H226.879V31.0283H234.727V33.8519H230.33V36.1182H234.449V38.8303H230.33V41.4682H234.894V44.2917ZM249.787 44.2917H246.336V31.0283H249.787V44.2917ZM246.818 30.0995V27.4989H249.304V30.0995H246.818Z" fill="#404036"/>
</svg>
