<svg width="196" height="45" viewBox="0 0 196 45" fill="none" xmlns="http://www.w3.org/2000/svg">
<path d="M31.3838 35.5622C29.2254 37.4192 26.9082 36.5062 25.5769 35.6685C24.012 34.6451 22.1672 34.1345 20.2988 34.2075C18.9297 34.2911 17.5974 34.6842 16.4022 35.3574C15.207 36.0306 14.1803 36.9662 13.3991 38.0938C11.3785 42.1358 9.88658 41.7027 9.88658 41.7027C9.00258 41.9677 6.58717 41.5297 4.84511 41.1498C4.08536 40.977 3.29463 40.9954 2.54373 41.2033C1.79283 41.4111 1.10521 41.802 0.54245 42.3409C-1.50664 44.3516 2.90907 44.1564 2.90907 44.1564H195.581C195.666 44.1562 195.749 44.1302 195.819 44.0818C195.889 44.0334 195.943 43.9649 195.973 43.8854C196.003 43.8058 196.008 43.7191 195.988 43.6365C195.967 43.554 195.922 43.4795 195.859 43.4231C191.081 39.1606 185.093 40.9805 185.093 40.9805C181.213 41.2616 178.977 39.013 177.787 37.0949C176.811 35.4696 175.425 34.1297 173.767 33.2096C172.11 32.2896 170.24 31.8218 168.344 31.8532C166.897 31.9035 165.468 32.1909 164.114 32.7039C156.897 35.3985 153.527 27.5067 153.527 27.5067C150.158 14.4184 138.032 20.6743 138.032 20.6743C137.405 17.4521 135.515 14.1676 133.578 11.4847C129.848 6.23663 124.28 2.58389 117.981 1.25221C100.915 -2.21648 93.473 14.8038 93.473 14.8038C87.8916 27.2207 85.9667 29.2395 82.5023 32.7045C79.0379 36.1695 69.2206 28.4698 69.2206 28.4698C60.6548 23.8502 54.5916 29.8171 54.5916 29.8171C54.5916 29.8171 49.0936 33.974 43.3713 32.5643C40.6616 31.9812 37.8404 32.2068 35.2577 33.2129C33.8349 33.7548 32.5222 34.5501 31.3832 35.5604" fill="#E6EEE3"/>
</svg>
