<svg width="272" height="61" viewBox="0 0 272 61" fill="none" xmlns="http://www.w3.org/2000/svg">
<path d="M228.432 48.2344C231.425 50.81 234.639 49.5436 236.486 48.3818C238.656 46.9624 241.215 46.2542 243.806 46.3554C245.705 46.4713 247.553 47.0167 249.211 47.9503C250.869 48.884 252.293 50.1817 253.376 51.7457C256.179 57.3518 258.248 56.7512 258.248 56.7512C259.474 57.1187 262.824 56.5112 265.241 55.9843C266.294 55.7447 267.391 55.7702 268.433 56.0585C269.474 56.3467 270.428 56.8889 271.208 57.6363C274.05 60.4252 267.926 60.1544 267.926 60.1544H0.691813C0.573891 60.1542 0.458822 60.1181 0.361878 60.0509C0.264934 59.9838 0.19065 59.8888 0.148929 59.7785C0.107208 59.6682 0.100032 59.5478 0.128272 59.4333C0.156512 59.3188 0.218847 59.2156 0.307072 59.1374C6.93454 53.2253 15.2388 55.7495 15.2388 55.7495C20.6205 56.1394 23.7213 53.0206 25.3724 50.3602C26.7259 48.1059 28.6486 46.2475 30.9476 44.9714C33.2465 43.6953 35.8407 43.0464 38.4697 43.0901C40.4766 43.1598 42.4584 43.5584 44.3363 44.2699C54.3473 48.0073 59.0212 37.0615 59.0212 37.0615C63.6935 18.9082 80.5119 27.5851 80.5119 27.5851C81.3825 23.116 84.0034 18.5603 86.6895 14.8391C91.863 7.56019 99.5854 2.4939 108.322 0.646872C131.993 -4.16415 142.315 19.4428 142.315 19.4428C150.056 36.6648 152.726 39.4649 157.531 44.2708C162.336 49.0767 175.953 38.3973 175.953 38.3973C187.833 31.99 196.243 40.266 196.243 40.266C196.243 40.266 203.869 46.0315 211.805 44.0763C215.564 43.2676 219.477 43.5805 223.059 44.976C225.032 45.7275 226.853 46.8306 228.433 48.2318" fill="#E6EEE3"/>
</svg>
